<svg width="5255.6" height="1210" version="1.1" viewBox="0 0 1390.6 320.14" xmlns="http://www.w3.org/2000/svg" class="built-by-squatch-text">
	<path d="m150.55 319.81c-29.755-1.701-59.004-12.01-83.407-29.398-7.009-4.993-12.894-10.02-19.832-16.935-9.013-8.985-14.057-15.067-20.523-24.748-24.998-37.427-33.008-84.272-21.892-128.02 5.916-23.277 16.175-43.47 31.995-62.97 3.873-4.774 16.091-16.992 20.864-20.864 10.996-8.92 21.148-15.437 32.632-20.948 44.252-21.235 94.743-21.235 139 0 8.748 4.197 18.708 10.23 26.105 15.813 13.142 9.917 26.212 23.384 35.33 36.406 15.677 22.386 25.139 47.826 28.21 75.847 0.848 7.732 0.859 24.279 0.022 31.926-3.582 32.719-15.307 60.735-36.174 86.43-3.66 4.507-15.597 16.537-20.044 20.201-27.756 22.866-59.296 35.29-94.656 37.287-7.226 0.40799-10.102 0.40299-17.626-0.027zm44.26-42.448c0-0.836 0.204-1.126 0.99-1.405 1.113-0.395 1.517-0.042 1.884 1.645 0.269 1.234 0.931 0.869 0.69-0.38-0.099-0.516-0.066-1.572 0.074-2.348l0.254-1.412 2.11-0.041c1.162-0.023 2.31 0.116 2.552 0.308 0.245 0.194 0.441 1.115 0.441 2.07 0 1.392 0.116 1.72 0.607 1.72 0.334 0 1.03 0.495 1.546 1.1l0.939 1.1 0.747-0.747c0.411-0.41 1.134-0.747 1.607-0.747 0.71 0 0.879-0.198 0.97-1.136 0.078-0.8 0.391-1.292 1.061-1.666 1.139-0.636 1.308-0.506 1.589 1.223 0.21 1.297 0.192 1.324-0.71599 1.096-0.888-0.223-0.912-0.193-0.527 0.654 0.265 0.58 0.69 0.887 1.23 0.887 0.454 0 0.825 0.168 0.825 0.374 0 0.205 0.156 0.277 0.346 0.16 0.217-0.134 0.185-0.477-0.088-0.924-0.6-0.983 0.313-1.615 2.78-1.923 1.27-0.159 1.901-0.4 1.901-0.726 0-0.269-0.159-0.488-0.353-0.488-0.541 0-0.418-1.623 0.16-2.103 1.066-0.885 1.758-0.372 2.834 2.103l0.537 1.233-0.19-1.856c-0.252-2.45-0.456-2.906-1.302-2.906-0.976 0-3.45-1.438-3.45-2.006 0-0.644 0.456-0.583 2.121 0.28499 0.79 0.412 1.52 0.666 1.622 0.565 0.102-0.102 0.014-1.416-0.195-2.92-0.21-1.505-0.302-2.816-0.205-2.912 0.282-0.283 1.242 2.287 1.255 3.36 6e-3 0.54 0.32 1.352 0.698 1.805l0.68599 0.82399 1.507-1.218c1.435-1.16 2.815-2.017 3.248-2.017 0.655 0-0.015 1.003-1.133 1.696-0.85563 0.54237-1.6809 1.1313-2.472 1.764-1.13 0.928-1.147 0.984-0.705 2.26 0.57 1.648 1.195 1.701 1.042 0.088-0.088-0.931 0.038-1.277 0.53-1.452 0.354-0.126 0.937-0.482 1.295-0.79 0.603-0.52 0.703-0.498 1.339 0.288 0.487 0.602 0.623 1.139 0.467 1.849-0.164 0.745-0.087 1 0.3 1 0.285 0 0.61-0.238 0.722-0.529s0.605-0.53 1.096-0.53c0.98 0 1.203-0.51 0.364-0.832-0.29-0.112-0.529-0.61-0.529-1.105 0-0.637-0.259-1-0.882-1.237-1.016-0.38699-1.208-1.76-0.346-2.475 0.438-0.364 0.66-0.333 1.215 0.17 0.373 0.338 0.728 0.955 0.787 1.372 0.06 0.416 0.227 0.717 0.373 0.668 0.392-0.13 0.389-0.273-0.055-2.528-0.314-1.595-0.572-2.112-1.128-2.258-0.907-0.237-0.809-1.918 0.146-2.498 0.513-0.311 0.758-0.245 1.235 0.334 0.327 0.397 1.111 1.027 1.742 1.399 0.63 0.372 1.146 0.8 1.146 0.953 0 0.152 0.184 0.277 0.408 0.277 0.244 0 0.173-0.26-0.177-0.645-0.32-0.355-0.583-0.794-0.583-0.975s-0.358-0.486-0.794-0.678c-1.373-0.602-0.99399-1.418 0.617-1.327 1.157 0.065 1.27 0.02 0.628-0.25-1.058-0.443-1.414-1.96-0.657-2.795 0.482-0.533 0.523-0.913 0.235-2.191-0.273-1.216-0.236-1.716 0.173-2.34 1.047-1.6 2.724-0.634 3.243 1.868 0.19 0.91 0.508 1.433 0.92 1.513 1.064 0.205 2.684-0.677 2.912-1.586 0.203-0.806 1.714-1.883 2.643-1.883 0.237 0 0.708 0.25 1.046 0.557 0.561 0.508 0.696 0.504 1.527-0.04 1.025-0.672 1.207-1.95 0.376-2.64-0.361-0.3-0.474-0.802-0.345-1.542 0.233-1.341-0.042-1.772-1.412-2.219-0.754-0.245-1.09-0.602-1.165-1.24-0.09-0.75 0.068-0.93 0.97-1.11 1.148-0.23 1.494-0.938 0.46-0.94-0.883-2e-3 -2.91-1.31-2.91-1.879 0-1.022 1.311-1.744 2.698-1.484 1.124 0.21 1.254 0.172 0.892-0.264-0.335-0.404-0.312-0.604 0.109-0.954 0.677-0.56199 0.685-1.062 0.017-1.062-0.284 0-0.702-0.346-0.93-0.77-0.351-0.658-0.292-0.867 0.41-1.434 0.45-0.366 1.116-0.587 1.479-0.492 0.376 0.098 0.742-0.044 0.852-0.33 0.276-0.72 1.284-0.619 2.373 0.238 0.645 0.507 1.076 0.632 1.37 0.396 0.237-0.19 1.343-0.416 2.459-0.504 2.046-0.162 2.709-0.422 2.248-0.883-0.138-0.138-0.555-0.061-0.927 0.17-0.668 0.418-1.762 0.255-1.762-0.262 0-0.147 0.302-0.65 0.67-1.118 0.585-0.745 0.608-0.937 0.176-1.527-0.708-0.968-0.61-1.986 0.212-2.201 0.502-0.131 0.706-0.48099 0.706-1.213 0-1.584 0.968-1.705 2.155-0.27 0.574 0.695 0.918 1.457 0.813 1.802-0.14 0.46 0.111 0.653 1.081 0.835 1.072 0.201 1.39 0.1 2.11-0.679 0.80699-0.86999 0.82199-0.96999 0.31-2-0.529-1.057-0.562-1.069-1.426-0.503-1.106 0.725-1.771 0.241-1.183-0.859 0.244-0.454 0.744-0.743 1.289-0.743 0.555 0 0.8-0.145 0.651-0.387-0.131-0.212-0.035-0.767 0.215-1.234 0.25-0.466 0.346-0.955 0.215-1.086s-1.388-0.262-2.793-0.29c-2.185-0.045-2.573-0.147-2.681-0.707-0.07-0.36-0.436-0.905-0.815-1.212-0.444-0.36-0.606-0.777-0.454-1.173 0.358-0.93299 1.349-0.73499 2.221 0.444 0.67 0.906 1.014 1.059 2.383 1.059 0.88 0 1.924 0.173 2.32 0.385 0.52099 0.279 0.82699 0.279 1.106 0s0.231-0.385-0.171-0.385c-0.306 0-0.75199-0.235-0.98999-0.522-0.314-0.379-0.61-0.427-1.078-0.176-0.995 0.532-1.933 0.412-2.61-0.335-0.762-0.84299-0.49-1.862 0.758-2.844 0.995-0.782 0.996-0.777-0.163-1.38-1.03-0.535-1.01-1.234 0.047-1.716 0.947-0.431 2.334 0.258 2.334 1.16 0 0.273 0.318 0.666 0.706 0.874 0.38799 0.208 0.70599 0.672 0.70599 1.033 0 0.36 0.26 0.755 0.58 0.878 0.815 0.313 1.13-0.128 0.387-0.544-0.841-0.47-0.773-1.61 0.124-2.09 0.601-0.322 0.88-0.266 1.5 0.3 0.418 0.382 1.117 0.803 1.554 0.935 1.119 0.34 1.056-0.677-0.088-1.426-0.486-0.318-0.882-0.809-0.882-1.09 0-0.342-0.222-0.443-0.667-0.302-0.678 0.216-3.214-1.036-3.214-1.585 0-0.455-2.137-1.87-2.965-1.964l-1.004-0.113c-0.145-0.016-0.264-0.202-0.264-0.414 0-0.267 0.917-0.308 2.998-0.134 2.874 0.239 2.999 0.22 2.999-0.47799 0-0.807 1.225-1.826 2.195-1.826 0.848 0 0.796 0.944-0.078 1.412-0.388 0.207-0.706 0.61-0.706 0.89399 0 0.787 1.18 0.616 1.72-0.24999l0.478-0.766 0.657 0.85499c0.809 1.052 0.864 0.659 0.111-0.79599-0.309-0.598-0.487-1.474-0.397-1.948 0.24-1.256-1.237-1.79-2.223-0.805-0.787 0.787-2.11 0.938-2.11 0.24 0-0.647 0.736-1.305 1.46-1.305 0.499 0 0.577-0.221 0.42-1.19-0.256-1.57 0.19-1.778 2.41-1.119 1.01 0.3 1.909 0.545 1.998 0.545 0.09 0 0.062-0.96-0.06-2.134-0.241-2.304-1.016-3.7-2.23-4.016-0.989-0.257-2.465-2.58-1.96-3.084 0.249-0.249 0.79-0.072 1.72 0.563l1.357 0.926 0.56-3.448c0.349-2.151 0.437-3.607 0.233-3.874-0.179-0.234-0.955-0.552-1.724-0.705-1.901-0.38-1.84-0.923 0.144-1.285 2-0.366 2.064-0.523 2.175-5.318 0.046-1.985 0.211-3.816 0.368-4.069 0.177-0.288 0.067-0.581-0.295-0.784-0.777-0.435-0.74-1.093 0.048-0.843 0.546 0.174 0.609 7e-3 0.486-1.299-0.164-1.755-0.539-2.088-2.042-1.813-0.626 0.114-1.208 0.038-1.34-0.175-0.157-0.255-0.823-0.152-2.056 0.316-1.277 0.486-1.933 0.581-2.188 0.32-0.529-0.539 1.058-1.733 2.303-1.733 1.085 0 2.8-0.66 2.8-1.078 0-0.142-0.239-0.35-0.53-0.461-0.6-0.23-0.715-1.48-0.169-1.817 0.198-0.123 0.845 0.185 1.438 0.684 1.469 1.236 2.07 1.17 2.139-0.239l0.056-1.146 0.144 1.162c0.159 1.286 0.364 1.298 3.01 0.173 1.52-0.646 2.056-0.403 1.2 0.542-0.73 0.807-0.75 1.162-0.052 0.894 0.293-0.112 0.762-0.015 1.041 0.217 0.314 0.26 0.818 0.31599 1.319 0.146 0.446-0.152 0.96-0.234 1.144-0.183 0.183 0.051 0.66-0.062 1.058-0.25 0.43715-0.20492 0.88515-0.38586 1.342-0.542 0.505-0.16 0.618-0.617 0.618-2.494 0-1.263-0.238-2.895-0.528-3.627s-0.58-2.393-0.646-3.691c-0.065-1.299-0.338-2.648-0.607-2.999-0.269-0.35-0.533-0.702-0.587-0.782-0.053-0.08-0.661 0.436-1.351 1.147-0.69 0.71-1.563 1.29-1.94 1.29-0.702 0-2.583-2.262-3.017-3.63-0.346-1.091 1.08-2.137 2.582-1.893 1.245 0.202 1.18 0.34 1.303-2.766 0.016-0.389 0.15-0.895 0.3-1.126 0.153-0.235-0.04-0.933-0.44-1.587-0.39-0.643-0.712-1.684-0.712-2.315-1e-3 -1.325-0.202-1.387-1.413-0.44-0.52 0.407-1.438 0.693-2.24 0.697-1.088 6e-3 -1.604-0.238-2.593-1.227-1.447-1.446-1.664-1.515-1.393-0.438 0.245 0.976-0.063 1.504-1.059 1.814-0.899 0.28-2.24-1.17-2.24-2.423 0-1.08-0.378-1.346-0.9-0.633-0.392 0.537-0.542 0.548-1.38 0.1-1.406-0.753-2.74-0.654-3.478 0.257-1.012 1.25-2.434 1.047-3.72-0.529l-1.08-1.323 0.075 1.411c0.07 1.288-6e-3 1.421-0.86 1.52-1.194 0.138-2.206-1.121-1.684-2.096 0.19-0.354 0.24-1.061 0.112-1.57-0.394-1.57 1.493-2.109 3.314-0.946 0.941 0.6 0.949 0.599 0.429-0.089-0.291-0.384-0.753-0.875-1.027-1.09-0.662-0.517-0.236-1.55 0.639-1.55 0.449 0 0.731-0.278 0.804-0.793 0.148-1.043 1.978-1.327 2.648-0.412 0.41 0.562 0.51 0.569 1.076 0.072 0.926-0.813 2.092-1.07 2.899-0.64 1.007 0.54 1.875 2.376 1.647 3.487-0.135 0.66 3e-3 0.525 0.474-0.464 1.11-2.335 2.803-3.001 4.07-1.602 0.914 1.01 1.587 0.89 1.587-0.286 0-1.413 0.655-2.117 2.453-2.635l1.571-0.452-1.312-0.774c-0.722-0.426-1.464-1.175-1.65-1.665-0.187-0.49-0.488-0.89-0.67-0.89-0.191 0-0.163 0.444 0.067 1.052 0.305 0.80999 0.295 1.156-0.044 1.495-0.642 0.642-2.319-0.374-2.48-1.501-0.172-1.214-0.8-1.487-1.556-0.676-0.352 0.378-1.098 0.687-1.657 0.687-0.856 0-1.084-0.202-1.438-1.273-0.37-1.12-0.335-1.386 0.285-2.205 0.566-0.747 0.976-0.921 2.069-0.88 0.843 0.031 1.471-0.138 1.646-0.443 0.204-0.356 0.668-0.431 1.674-0.27 0.766 0.122 1.59 0.063 1.834-0.132 0.243-0.195 1.349-0.464 2.457-0.598 1.792-0.216 2.074-0.363 2.557-1.332 0.3-0.599 0.544-1.955 0.544-3.013 0-1.631-0.087-1.89-0.574-1.703-0.316 0.12-0.779 0.05-1.029-0.157-0.343-0.285-0.7-0.07-1.454 0.875-0.55 0.69-1.18 1.254-1.4 1.254s-0.476 0.292-0.56999 0.64999c-0.233 0.89-2.851 1.559-4.02 1.026-0.63-0.287-0.958-0.28-1.264 0.027-0.573 0.573-2.568 0.519-3.068-0.084-0.282-0.34-0.326-1.09-0.138-2.38 0.384-2.635 0.392-2.603-0.649-2.482-0.515 0.06-1.04-0.059-1.167-0.264-0.34-0.55-0.895-0.454-0.895 0.155 0 0.291 0.153 0.53 0.34 0.53 0.641 0 1.158 1.41 0.714 1.945-0.224 0.27-0.308 0.802-0.187 1.183 0.296 0.92999-0.392 1.29-1.418 0.73999-0.677-0.362-0.94-0.36-1.384 7e-3 -0.454 0.377-0.666 0.348-1.234-0.166-0.377-0.33999-0.898-0.53799-1.159-0.43799-0.26 0.1-1.8 0.048-3.422-0.116-1.881-0.19-3.187-0.169-3.61 0.057-0.363 0.195-0.958 0.25999-1.32 0.145-1.122-0.356-1.179-1.274-0.145-2.353 1.033-1.079 1.035-1.064-0.147-1.679-0.824-0.429-1.201-0.326-2.313 0.63-0.354 0.306-1.2 0.59-1.877 0.634l-1.234 0.08 0.104-1.445c0.091-1.26-7e-3 -1.485-0.76799-1.766-0.48-0.177-1.282-0.713-1.783-1.192-0.887-0.848-0.933-0.855-1.766-0.245-2.275 1.666-2.483 1.692-3.504 0.441-0.83-1.017-1.163-1.16-2.848-1.225-1.049-0.04-2.114-0.097-2.367-0.125-0.324-0.036-0.429-0.548-0.353-1.724 0.092-1.436 0.248-1.74 1.097-2.146 0.851-0.406 1.226-0.387 2.683 0.137 1.675 0.602 1.701 0.6 2.485-0.183 0.576-0.576 0.686-0.898 0.404-1.18-0.673-0.673-0.424-1.845 0.601-2.827 1.194-1.144 1.63-1.181 2.318-0.199 0.423 0.605 0.752 0.707 1.698 0.53 0.989-0.186 1.242-0.441 1.612-1.626 0.48299-1.548 0.57199-2.828 0.197-2.828-0.133 0-0.598 0.334-1.033 0.74299-0.508 0.477-1.42 0.803-2.545 0.908-1.747 0.164-1.755 0.16-2.17-1.096-0.228-0.693-0.557-1.26-0.73-1.26-0.172 0-0.227 0.227-0.12 0.505 0.266 0.692-1.804 1.732-2.9 1.457-0.60399-0.152-0.84399-0.064-0.84399 0.308 0 0.286-0.411 0.931-0.914 1.434-0.724 0.724-1.018 0.828-1.411 0.502-0.274-0.227-0.497-0.8-0.497-1.272 0-0.507-0.151-0.766-0.368-0.632-0.624 0.385-1.442-0.603-1.336-1.613 0.055-0.525-0.122-1.222-0.394-1.548-0.735-0.886-0.076-2.503 1.004-2.46 0.742 0.028 0.797-0.083 0.61-1.228-0.174-1.08-0.044-1.424 0.915-2.413 0.615-0.635 1.338-1.154 1.606-1.154 0.808 0 3.251 2.773 3.006 3.412-0.187 0.488 4e-3 0.532 1.396 0.323 1.003-0.15 1.699-0.102 1.84 0.128 0.126 0.20399 0.537 0.36999 0.914 0.36999 0.733 0 0.977 1.189 0.326 1.591-0.19619 0.11843-0.26006 0.37298-0.143 0.57 0.118 0.192 0.774-0.227 1.456-0.93 0.718-0.739 1.452-1.195 1.743-1.084 0.55 0.211 2.909-0.92499 3.327-1.601 0.143-0.232 0.107-0.757-0.08-1.167-0.295-0.647-0.63-0.742-2.54-0.722-1.8 0.019-2.348 0.17-3.002 0.824-0.64 0.64-1.028 0.753-1.925 0.56-0.618-0.131-1.322-0.4-1.564-0.594-0.561-0.452-0.572-2.114-0.018-2.668 0.33-0.33 0.33-0.518 0-0.847-0.233-0.233-0.423-0.769-0.423-1.191 0-0.423-0.238-0.966-0.53-1.208-0.818-0.68-0.632-1.984 0.401-2.796 1.182-0.93 2.067-0.929 2.72 3e-3 0.335 0.478 1.05 0.802 2.049 0.93 0.843 0.107 1.718 0.33999 1.943 0.51599 0.268 0.211 0.57199 0.092 0.88199-0.34399 1.314-1.853 3.118-1.666 3.118 0.32299 0 1.405 0.804 1.302 1.99-0.254 0.77-1.009 1.045-1.171 1.341-0.79299 0.777 0.98799 2.252 1.452 4.065 1.278 0.989-0.095 1.882-0.036 1.985 0.13 0.103 0.167 0.506 0.133 0.896-0.076 0.501-0.268 1.023-0.27 1.778-7e-3 0.729 0.254 1.28 0.258 1.738 0.013 0.87-0.465 0.846-0.573-0.122-0.538-0.5 0.017-0.921-0.26499-1.142-0.76599-0.258-0.587-0.645-0.794-1.487-0.794-0.778 0-1.259-0.224-1.517-0.705-0.545-1.02-0.995-0.87-1.335 0.44-0.233 0.899-0.483 1.147-1.157 1.147-0.704 0-0.87799-0.199-0.96599-1.102-0.129-1.323 0.75299-2.372 1.732-2.061 0.367 0.117 0.668 0.07 0.668-0.104 0-0.287-2.44-1.508-3.969-1.986-0.746-0.233-0.803-1.033-0.113-1.605 0.398-0.33 0.906-0.228 2.415 0.486 2.154 1.019 2.618 1.07 4.516 0.501 1.097-0.328 1.558-0.301 2.51 0.148 1.511 0.712 6.637 1.453 8.406 1.216 0.938-0.126 1.508-0.027 1.787 0.31 0.54 0.65 1.606 0.63 1.862-0.036 0.111-0.291 0.60499-0.53 1.096-0.53 0.749 0 0.893-0.163 0.893-1.017 0-0.73-0.205-1.07-0.727-1.207-0.632-0.165-0.695-0.366-0.486-1.54l0.24-1.35-0.758 0.78999c-2.233 2.323-4.047 2.047-3-0.45699 0.531-1.274 0.526-1.38-0.087-1.83-0.594-0.436-0.669-0.368-0.86 0.778-0.243 1.453-0.147 1.333-1.69 2.118-1.553 0.79-1.894 0.327-1.675-2.282 0.158-1.879 0.15-1.9-0.248-0.667-0.487 1.51-1.194 2.431-1.865 2.431-0.267 0-0.486-0.31699-0.486-0.70499 0-0.408-0.23499-0.706-0.55699-0.706-0.426 0-0.53-0.3-0.44-1.29 0.072-0.805-0.05-1.346-0.326-1.44-0.242-0.083-0.44 0.104-0.44 0.415 0 0.312-0.398 0.747-0.883 0.968s-0.882 0.535-0.882 0.698c0 0.468-0.982 0.345-1.157-0.145-0.109-0.306-0.421-0.198-1.022 0.353-1.158 1.063-1.459 1-1.273-0.264 0.085-0.582 2e-3 -1.059-0.185-1.059-0.199 0-0.25-0.651-0.123-1.576 0.215-1.57 0.212-1.574-0.647-1.183-0.67 0.306-0.995 0.284-1.452-0.095-0.324-0.269-0.94299-0.442-1.377-0.385-1.034 0.135-1.27-0.581-0.664-2.023 0.432-1.027 0.621-1.149 1.569-1.01 0.768 0.113 1.17-0.014 1.399-0.442 0.396-0.74099 0.123-1.047-0.937-1.047-0.494 0-1.12-0.415-1.595-1.058-0.43-0.582-0.972-1.058-1.205-1.058-0.544 0-1.561 1.55-1.561 2.378 0 0.352-0.253 0.99999-0.562 1.441-0.48 0.686-0.822 0.786-2.38 0.696l-1.82-0.106 0.053-1.638c0.051-1.553 0-1.65-0.999-1.85-0.57899-0.115-1.36-0.045-1.737 0.156-0.574 0.308-0.78 0.197-1.293-0.697-0.55-0.957-0.768-1.055-2.185-0.986-1.882 0.091-2.299-0.679-1.005-1.859l1.473-1.344c0.361-0.33 0.81-1.025 0.995-1.543 0.388-1.085 1.234-1.53 1.883-0.991 0.521 0.432 0.31 1.552-0.403 2.145-0.375 0.31-0.398 0.528-0.095 0.893 0.67 0.808 1.378 0.542 1.607-0.606 0.275-1.375 1.592-2.084 2.648-1.425 0.392 0.245 0.746 0.395 0.786 0.333l0.68-1.083c0.633-1.013 1.578-1.252 2.26-0.57 0.64 0.64 1.593 0.08 1.321-0.77599-0.143-0.451-0.022-0.965 0.315-1.337 0.496-0.549 0.483-0.702-0.143-1.65-0.379-0.576-0.69-1.563-0.691-2.193s-0.142-1.147-0.311-1.147c-0.491 0-0.793 2.169-0.373 2.675 0.534 0.644 0.266 2.298-0.445 2.743-0.727 0.455-2.049-0.572-2.049-1.592 0-0.803-0.552-0.855-0.85-0.079-0.163 0.428-0.491 0.518-1.294 0.358-0.91-0.182-1.046-0.12-0.885 0.398 0.389 1.248-1.04 2.1-2.18 1.3-0.388-0.27099-1.036-1.162-1.44-1.98-0.58-1.17-0.649-1.602-0.324-2.037 0.345-0.46 0.331-0.478-0.082-0.11-0.72 0.642-1.664 0.54-2.47-0.265-0.388-0.388-0.853-0.705-1.033-0.705s-0.657-0.42-1.06-0.932c-0.56-0.712-0.639-1.045-0.335-1.411 0.219-0.264 0.617-0.48 0.884-0.48s0.486-0.158 0.486-0.352-0.391-0.353-0.87-0.353c-0.498 0-1.025-0.291-1.234-0.682-0.645-1.204-0.428-1.792 0.745-2.027 1.003-0.2 1.05-0.266 0.495-0.673-0.339-0.247-0.823-0.37-1.076-0.273-0.458 0.175-1.01 1.424-0.901 2.037 0.031 0.177-0.12999 0.77199-0.35799 1.323-0.703 1.698-2.446 1.095-2.446-0.846 0-0.81999-0.527-2.044-1.33-3.09-0.074-0.095-0.288 0.104-0.477 0.442-0.376 0.67-1.546 0.828-1.9 0.256-0.122-0.198-0.37-0.268-0.55-0.156-0.615 0.38-0.331 0.81 0.68 1.033 1.49 0.327 1.934 1.565 1.07 2.986-0.785 1.291-2.168 1.408-2.36 0.2-0.253-1.587-0.382-1.673-1.353-0.91-1.294 1.019-1.924 0.923-3.305-0.502-0.658-0.67899-1.326-1.235-1.484-1.235s-0.19 0.607-0.072 1.348c0.191 1.198 0.107 1.419-0.76 1.987-0.898 0.588-1.01 0.593-1.397 0.063-0.53-0.723-1.185-0.74-1.454-0.036-0.114 0.296-0.533 0.713-0.932 0.926-0.989 0.53-1.662-0.425-1.662-2.358 0-1.235-0.143-1.529-0.92-1.883-0.692-0.315-0.884-0.62-0.769-1.221 0.135-0.703 0.01-0.801-1.019-0.801-1.049 0-1.172 0.104-1.172 0.988 0 0.805-0.155 0.987-0.839 0.987-1.072 0-1.77-0.838-1.514-1.819 0.274-1.048-0.339-2.061-1.248-2.061-1.07 0-2.044-1.006-2.044-2.113 0-1.35 0.36-1.532 1.293-0.655 0.765 0.72 0.857 0.73 1.465 0.18 0.357-0.323 0.85-0.587 1.095-0.587s0.847-0.315 1.337-0.7c1.03-0.81 1.314-0.708 2.067 0.748 0.625 1.209 0.222 2.069-0.97 2.069-0.376 0-0.586 0.158-0.466 0.352 0.399 0.645 2.244 0.4 2.646-0.352 0.418-0.782 1.38-0.956 1.465-0.265 0.03 0.242 0.075 0.6 0.101 0.794 0.097 0.715 1.353 2.293 1.826 2.293 0.269 0 0.807-0.319 1.196-0.708 0.577-0.577 0.632-0.828 0.297-1.364-0.523-0.837-0.223-1.611 0.914-2.356 1.602-1.05 2.514-0.47 3.947 2.51 1.343 2.79 1.764 3.215 1.184 1.191-0.46-1.602-0.441-3.76 0.034-4.053 0.21-0.13 1.045-0.05 1.858 0.178 2.428 0.68 4.376-0.504 2.877-1.748-0.291-0.242-0.53-0.71999-0.53-1.064s-0.222-0.71-0.494-0.814c-0.778-0.299-0.974 0.172-0.356 0.854 0.7 0.77499 0.352 2.082-0.556 2.082-1.271 0-1.769-0.415-1.769-1.478 0-1.508-0.85499-1.071-0.98999 0.505-0.132 1.566-1.038 2.042-1.888 0.992-0.325-0.402-1.065-0.825-1.646-0.941-0.863-0.173-1.16-0.051-1.633 0.671-0.795 1.214-1.834 1.427-2.478 0.507-0.54-0.77-0.186-1.667 0.656-1.667 0.22 0 0.613-0.33899 0.872-0.75299 0.392-0.628 0.391-0.803-3e-3 -1.053-0.694-0.44-1.709-0.376-1.709 0.108 0 0.669-1.473 2.05-2.187 2.05-0.371 0-0.797-0.379-0.988-0.88099-0.184-0.485-0.486-0.882-0.67-0.882-0.654 0-2.505-1.838-2.505-2.487 0-0.363 0.345-0.982 0.766-1.374 0.719-0.67 0.73-0.753 0.176-1.364-0.324-0.359-0.589-0.92-0.589-1.248 0-0.455-0.203-0.545-0.856-0.381-0.471 0.118-1.141 0.056-1.489-0.139-0.45-0.252-0.919-0.205-1.63 0.163-1.263 0.653-2.31 0.332-2.592-0.793-0.236-0.938 0.643-2.255 1.506-2.255 0.563 0 0.637-0.916 0.101-1.247-0.205-0.127-1.012 0.211-1.793 0.752-1.1 0.763-1.551 0.9-2.007 0.614-0.966-0.609-0.858-1.34 0.26-1.762 0.829-0.313 1.005-0.552 0.848-1.152-0.117-0.45 0.04-1.018 0.388-1.403 0.556-0.614 0.54-0.639-0.308-0.477-0.536 0.103-1.282-0.092-1.864-0.487-1.673-1.135-2.684-1.468-3.376-1.114-1.009 0.518-2.428-0.58-2.29-1.772 0.1-0.86299 0.228-0.93799 1.432-0.84399 1.095 0.085 1.323-0.01 1.323-0.558 0-1.324-16.094-3.934-28.752-4.662-15.214-0.876-34.512 1.26-48.264 5.343-8.787 2.609-23.879 8.718-23.879 9.667 0 0.62999 0.804 1.102 0.979 0.57599 0.076-0.229 0.345-0.41599 0.597-0.41599s0.542-0.317 0.643-0.705c0.344-1.315 2.367-0.644 2.367 0.785 0 0.36299 0.388 0.78999 0.891 0.98199 1.038 0.395 1.488 1.287 0.93 1.844-0.465 0.466-3.206-0.316-3.273-0.934-0.023-0.211-0.148 0.092-0.277 0.674-0.215 0.973-0.348 1.054-1.634 1-1.344-0.055-1.4-0.013-1.42 1.059-0.012 0.614-0.161 1.43-0.333 1.813-0.29 0.65-0.244 0.644 0.68-0.084 1.092-0.858 1.614-0.762 1.614 0.299 0 0.422 0.359 0.83 0.916 1.041 0.504 0.192 0.999 0.664 1.1 1.05 0.254 0.97 0.703 0.879 1.743-0.357 1.539-1.83 2.593-1.353 3.31 1.495 0.365 1.45 0.501 1.618 1.062 1.318 1.727-0.924 3.35 0.062 3.092 1.88-0.123 0.862-0.76 0.918-4.656 0.409-1.707-0.223-2.047-0.184-1.912 0.224 0.09 0.272 0.547 0.55 1.017 0.617s0.979 0.34 1.13 0.606c0.18199 0.319 0.62399 0.415 1.29 0.282 0.795-0.16 1.102-0.042 1.413 0.54 0.219 0.409 0.625 0.743 0.902 0.743 0.61 0 1.235 1.08 1.235 2.135 0 0.632-0.142 0.728-0.794 0.536-0.436-0.128-1.508-0.238-2.381-0.244-2.645-0.018-2.676-0.01-1.97 0.507 0.35 0.255 0.57699 0.77099 0.50599 1.146-0.15299 0.804-2.304 1.133-3.439 0.526-0.496-0.266-0.767-0.264-0.935 8e-3 -0.13 0.21-0.622 0.285-1.095 0.166-0.72499-0.182-0.91699-0.046-1.238 0.877-0.343 0.983-0.509 1.082-1.661 0.988-1.26-0.104-1.279-0.086-1.163 1.085l0.118 1.191-1.353-0.223c-0.744-0.123-1.63-0.226-1.97-0.228-0.339-2e-3 -0.617-0.234-0.617-0.515 0-0.28-0.397-0.939-0.882-1.462-0.485-0.524-0.882-1.23-0.882-1.568 0-0.34-0.238-0.70799-0.52899-0.81999-0.29-0.111-0.529-0.43-0.529-0.707 0-0.34-0.396-0.505-1.214-0.505-0.668 0-2.121-0.416-3.23-0.923-1.877-0.86-2.059-0.883-2.654-0.345-0.438 0.397-0.947 0.506-1.62 0.347-1.325-0.31-1.51-0.328-2.835-0.264-0.994 0.048-1.147 0.181-1.147 0.998 0 0.518-0.263 1.233-0.584 1.588-0.546 0.602-0.54 0.73 0.088 1.906 1.054 1.974 1.522 2.22 2.282 1.197 0.356-0.48 0.92-1.174 1.252-1.545 0.59199-0.661 0.61999-0.656 1.382 0.23 0.428 0.497 1.077 0.96 1.442 1.03 0.438 0.083 0.705 0.485 0.784 1.181 0.065 0.58 0.304 1.28 0.529 1.555 0.328 0.4 0.445 0.19 0.586-1.058 0.156-1.375 0.288-1.571 1.123-1.668 1.07-0.123 1.886 0.947 1.588 2.086-0.136 0.518 0.013 0.67 0.657 0.67 1.828 0 3.105 1.196 3.814 3.572 0.27 0.90699 1.99 0.434 1.99-0.548 0-2.006 2.187-2.711 2.409-0.777 0.113 0.985 0.126 0.991 0.627 0.276 0.677-0.966 1.55-0.595 1.55 0.66 0 0.665-0.306 1.215-0.933 1.671l-0.934 0.68 2.016 0.238c1.109 0.13 2.164 0.145 2.345 0.034 0.552-0.342 0.366-0.868-0.306-0.868-1.515 0-1.99-1.9-0.756-3.017 1.019-0.921 1.92-0.298 1.92 1.329 0 0.968 0.122 1.192 0.587 1.07 0.85-0.22299 1.377 1.014 1.549 3.638 0.129 1.977 0.057 2.328-0.553 2.71-0.386 0.24-0.701 0.665-0.701 0.942 0 0.68-1.045 1.795-1.684 1.795-0.424 0-0.472 0.405-0.27 2.293 0.214 1.99 0.165 2.325-0.36601 2.529-0.80399 0.308-2.03-1.166-1.775-2.137 0.23-0.88-0.355-1.627-1.273-1.627-0.399 0-0.774-0.29999-0.88-0.70499-0.297-1.134-0.808-0.812-0.808 0.50799 0 0.668-0.159 1.312-0.353 1.432-0.20607 0.14187-0.33579 0.37034-0.352 0.62 0 0.29 0.118 0.285 0.423-0.02 0.673-0.673 1.971-0.51 2.221 0.279 0.343 1.08-0.132 1.514-1.424 1.304-0.87-0.141-1.318-0.014-1.79 0.507-0.448 0.496-0.988 0.666-1.882 0.59-1.067-0.09-1.269-0.246-1.362-1.057-0.061-0.524 0.043-1.24 0.231-1.592 0.188-0.351 0.266-1.038 0.172-1.527-0.136-0.70999-0.36-0.87499-1.114-0.81899-0.51899 0.039-1.358 0.083-1.865 0.099-0.893 0.028-0.91 0.069-0.558 1.386 0.426 1.598 0.157 2.52-0.81 2.773-0.695 0.182-0.695 0.186 2e-3 1.072 1.282 1.63 0.515 4.28-1.116 3.854-0.359-0.094-0.728-0.048-0.82 0.102-0.25 0.404 1.121 1.53 1.545 1.27 0.2-0.124 1.074 0.098 1.943 0.494 0.868 0.396 1.797 0.72 2.064 0.72s1.134 0.555 1.928 1.234c0.793 0.68 1.744 1.235 2.114 1.235s1.128 0.477 1.687 1.06c0.872 0.91 0.968 1.196 0.676 2.025-0.49 1.39-1.316 1.37-2.294-0.057-0.679-0.99-1.01-1.194-1.672-1.028-0.543 0.136-1.173-0.05-1.841-0.544-0.559-0.413-1.367-0.75-1.797-0.75h-0.781l0.767 0.816c0.79099 0.843 0.99999 1.82 0.458 2.155-0.17 0.105-1.004-0.279-1.852-0.853-1.436-0.97-1.576-1.001-2.008-0.435-0.324 0.425-0.397 1.17-0.24 2.463 0.187 1.531 0.125 1.892-0.355 2.076-0.397 0.153-0.903-0.167-1.598-1.01-0.56-0.67999-1.502-1.435-2.095-1.68-1.162-0.482-1.635-1.575-1.285-2.97 0.18-0.715 0.04-0.908-0.89599-1.234-0.61-0.213-1.15-0.387-1.199-0.387s0.38 1.118 0.954 2.483c1.213 2.887 1.11 3.867-0.41 3.867-0.557 0-1.112-0.16-1.233-0.35599-0.14-0.227-0.489-0.17-0.956 0.15799-0.635 0.445-0.898 0.448-1.91 0.025-0.698-0.29099-1.256-0.35599-1.378-0.15799-0.357 0.57699-1.9 0.35799-2.633-0.374-1.053-1.054-1.153-0.863-0.35999 0.69099 0.39199 0.768 0.71299 1.715 0.71299 2.104 0 0.813-0.97199 1.438-2.237 1.438-0.689 0-0.835 0.143-0.694 0.683 0.418 1.597 1.754 2.058 7.517 2.597 0.485 0.045 1.097 0.218 1.36 0.385 0.284 0.18 1.057 0.113 1.894-0.164 1.294-0.426 1.458-0.408 1.91 0.21 0.273 0.373 0.393 0.921 0.266 1.218-0.547 1.287-0.593 2.22-0.1 2.055 0.27-0.09 0.574-0.626 0.675-1.192 0.162-0.9 0.317-1.015 1.235-0.916 0.578 0.063 1.725 0.11 2.55 0.105l1.499-0.01v1.547c0 2.236-1.502 3.421-2.804 2.213-0.39-0.362-0.428-0.315-0.21 0.265 0.838 2.237 0.95 2.704 0.768 3.18-0.538 1.4-1.558 0.291-2.923-3.18-0.192-0.488-0.335 0.055-0.465 1.764-0.167 2.202-0.27 2.481-0.959 2.579-0.51799 0.074-0.96999-0.193-1.375-0.811-0.343-0.524-0.813-0.841-1.09-0.735-0.268 0.103-0.739-0.108-1.047-0.46799-0.308-0.36-0.842-0.58-1.185-0.49-0.762 0.199-0.886 0.01-1.93-2.977-0.455-1.303-1.026-2.435-1.269-2.516-0.31-0.103-0.355 0.05-0.154 0.519 0.748 1.737 1.305 4.778 1.088 5.935-0.197 1.05-0.384 1.257-1.132 1.257-0.672 0-0.997-0.265-1.296-1.059-0.461-1.221-0.80399-1.29-1.965-0.397-0.777 0.596-0.803 0.719-0.353 1.65 0.62 1.284 2.44 2.346 4.02 2.346 0.676 0 1.313 0.134 1.414 0.298s0.934 0.056 1.851-0.24c1.229-0.396 3.065-0.524 6.984-0.485 5.962 0.058 5.91 0.078 6.33-2.463 0.234-1.415 0.634-1.942 3.746-4.938 1.916-1.846 3.483-3.535 3.482-3.755-1e-3 -0.436 1.67-1.976 4.543-4.186 1.009-0.776 2.07-1.769 2.357-2.205 0.288-0.437 0.78-0.794 1.092-0.794s1.738-1.111 3.168-2.47c1.43-1.358 2.758-2.469 2.95-2.469 0.194 0 0.353-0.236 0.353-0.524s0.912-0.987 2.028-1.552c1.116-0.566 2.425-1.455 2.91-1.976 0.486-0.521 1.856-1.493 3.047-2.16 1.345-0.753 2.146-1.427 2.117-1.78-0.027-0.312 0.521-0.904 1.217-1.315 2.827-1.67 5.253-3.602 5.257-4.187 2e-3 -0.368 0.273-0.617 0.67-0.617 0.367 0 1.034-0.297 1.483-0.66 0.77-0.625 0.79-0.73999 0.347-2.083-0.567-1.718-0.25-4.504 0.549-4.81 0.297-0.115 1.124-0.208 1.837-0.208 1.113 0 1.365-0.156 1.785-1.105 0.603-1.361 4.778-5.84 5.724-6.14 0.475-0.151 0.627-0.423 0.487-0.866-0.168-0.527 0.072-0.71 1.308-0.996 1.585-0.368 3.857-1.175 4.159-1.477 0.097-0.097 0.596-0.393 1.11-0.658 0.799-0.41 1.183-0.401 2.646 0.064 0.941 0.3 2.227 0.648 2.856 0.774 0.63 0.126 1.265 0.422 1.411 0.66 0.147 0.237 0.783 0.79 1.413 1.23 0.631 0.44 1.152 1.068 1.159 1.394 6e-3 0.327 0.48 1.229 1.052 2.005s1.313 1.966 1.647 2.645c0.334 0.68 1.148 1.815 1.808 2.523 0.857 0.92 1.535 2.297 2.37 4.814 1.42 4.28 2.634 6.32 3.96 6.65 0.533 0.132 1.561 0.715 2.285 1.295 0.987 0.79 1.27 1.24 1.129 1.8-0.151 0.603 0.244 1.065 2.035 2.378 1.223 0.896 3.493 2.158 5.045 2.803s3.537 1.67 4.41 2.275c0.873 0.606 2.897 1.864 4.498 2.796 2.872 1.673 3.255 2.045 2.551 2.48-0.198 0.122 0.473 1.044 1.5 2.057 1.022 1.01 2.871 2.995 4.11 4.411 1.238 1.417 2.848 2.97 3.576 3.453 1.525 1.01 3.66 4.174 3.583 5.315-0.033 0.498 0.578 1.423 1.707 2.581 1.81 1.858 2.303 3.037 1.113 2.66-0.54199-0.172-0.62099-0.044-0.497 0.8 0.09 0.618-0.07 1.223-0.41399 1.568-0.63 0.63-0.725 1.726-0.23 2.644 1.526 2.832 1.948 5.758 0.91499 6.336-0.44999 0.251-0.45399 0.505-0.039 1.887 0.37 1.225 0.413 2.577 0.187 5.826-0.173 2.48-0.16 4.81 0.03 5.628 0.178 0.768 0.331 1.873 0.34 2.455 0.01 0.582 0.423 2.011 0.918 3.175 0.496 1.164 1.127 2.93 1.403 3.926 0.275 0.994 0.912 2.705 1.413 3.802 1.071 2.339 1.987 7.121 1.678 8.762-0.12 0.632-0.431 1.398-0.694 1.702-0.41 0.475-0.181 1.127 1.628 4.645 2.332 4.532 3.085 7.668 2.66 11.07-0.13 1.036-0.036 3.7 0.20699 5.918 0.335 3.048 0.345 4.364 0.043 5.388-0.31199 1.057-0.28699 1.935 0.111 4 0.75 3.89 0.683 5.053-0.78799 13.524-0.367 2.113-0.464 3.95-0.3 5.7 0.192 2.052 0.139 2.644-0.26 2.88-0.278 0.163-0.607 1.075-0.734 2.025-0.126 0.95-0.39 1.921-0.586 2.157-0.195 0.236-0.588 2.236-0.872 4.446-0.79 6.139-1.273 7.198-5.45 11.954-1.279 1.455-2.904 3.37-3.613 4.255-0.91 1.136-1.737 1.75-2.818 2.09-0.842 0.266-1.768 0.68-2.06 0.923-1.539 1.28-9.035 1.592-10.875 0.453-0.705-0.436-0.767-0.682-0.572-2.256 0.185-1.496 0.097-1.92-0.572-2.771-0.62599-0.795-0.72399-1.192-0.46999-1.9 0.32599-0.91699 2.702-2.386 4.383-2.712 0.489-0.094 1.222-0.482 1.629-0.861 0.805-0.75 4.108-2.513 4.71-2.513 0.732 0 3.255-1.92 3.553-2.703 0.223-0.585 0.064-1.322-0.59-2.752-1.118-2.441-2.023-2.598-3.648-0.63-0.99899 1.21-1.291 1.931-1.926 4.752-0.119 0.527-0.824 1.599-1.568 2.38-1.41 1.482-2.839 1.843-4.267 1.08-0.955-0.512-1.064-1.476-0.76-6.75l0.278-4.8 1.878-2.718c1.034-1.495 2.147-2.907 2.475-3.138 1.562-1.1 2.654-4.78 3.016-10.163 0.27-3.998 0.11-4.683-1.224-5.235-0.55-0.228-1.171-0.76-1.38-1.184-1.16-2.342-2.517-5.594-3.046-7.297-0.332-1.067-0.856-2.496-1.165-3.175l-1.119-2.47c-0.307-0.679-0.838-1.616-1.18-2.083-0.43999-0.597-0.55999-1.189-0.40799-1.998 0.178-0.95 0.08-1.222-0.57-1.57-0.755-0.404-0.776-0.548-0.549-3.823 0.4-5.747 0.445-6.199 0.708-7.018 0.19-0.592 0.115-0.794-0.293-0.794-0.45 0-0.519-0.36-0.386-2.028 0.497-6.23 0.5-6.728 0.042-6.904-0.273-0.105-0.572-1.154-0.737-2.59-0.37-3.219-0.372-3.703-0.045-7.052 0.263-2.683 0.235-2.891-0.413-3.097-0.52-0.165-0.754-0.661-0.928-1.975-0.286-2.155-1.129-2.406-1.45-0.43-0.117 0.727-0.508 2.135-0.868 3.129-0.483 1.335-0.604 2.362-0.461 3.932 0.144 1.59 4e-3 2.747-0.559 4.597-0.413 1.36-0.75 2.814-0.75 3.23s-0.24 1.22-0.533 1.786c-0.713 1.378-0.71 2.16 0.02 5.333 0.346 1.507 0.501 2.984 0.352 3.352-0.147 0.362-0.241 3.039-0.21 5.95 0.053 5.008 0.11 5.404 1.05 7.408 1.291 2.746 2.04 7.698 1.439 9.518-0.463 1.403-0.295 3.514 0.6 7.533 0.467 2.1 0.49 2.642 0.119 2.871-0.36 0.222-0.404 1.367-0.208 5.35 0.207 4.186 0.158 5.243-0.282 6.085-0.293 0.56-0.633 2.227-0.756 3.704-0.122 1.477-0.47 3.269-0.772 3.982-0.57 1.342-0.571 1.285 0.241 9.816 0.735 7.722 0.775 8.731 0.374 9.48-0.22 0.413-0.596 0.75-0.834 0.75-0.879 0-0.042 9.03 1.178 12.7 0.45 1.355 0.916 3.454 1.371 6.174 0.524 3.13-0.363 8.996-1.36 8.996-0.166 0-0.406 0.413-0.533 0.918-0.126 0.504-0.519 1.338-0.871 1.852-0.61231 0.91767-1.2078 1.8465-1.786 2.786-0.628 1.02-1.345 1.853-1.592 1.853-0.259 0-0.693 0.966-1.022 2.277-0.65 2.59-0.742 4.22-0.22 3.896 0.195-0.12 0.354-0.743 0.354-1.384 0-0.642 0.303-1.553 0.675-2.025 0.371-0.472 0.728-1.326 0.794-1.897 0.152-1.335 1.137-1.546 2.266-0.485 1.027 0.965 1.088 1.88 0.168 2.525-1.019 0.714-0.425 1.142 1.689 1.215 1.213 0.043 2.127 0.283 2.557 0.672 0.853 0.772 0.85 0.27-0.012-1.653-0.772-1.726-0.687-2.083 0.5-2.083 0.64 0 0.986 0.34 1.474 1.445 0.75 1.7 2.235 2.65 3.274 2.093 0.374-0.2 1.007-0.363 1.408-0.363 0.486 0 0.729-0.228 0.729-0.685 0-1.595 1.797-0.89 2.515 0.985 0.209 0.548 0.502 0.759 0.86 0.621 0.501-0.192 1.175 0.35 2.56 2.058 0.424 0.522 0.54 0.484 1.235-0.4 0.422-0.537 0.767-1.45 0.767-2.03zm54.155-41.995c-0.577-0.695-0.201-1.592 0.665-1.592 0.903 0 1.825 0.937 1.571 1.598-0.258 0.672-1.676 0.669-2.236-6e-3zm3.228-4.371c-0.25999-0.16499-0.41799-0.67799-0.35199-1.142 0.093-0.661 0.36399-0.865 1.268-0.952 1.535-0.148 1.955 0.815 0.758 1.735-0.974 0.74999-1.037 0.76199-1.674 0.35899zm9.82-28.068c0-0.745 0.66-1.028 1.25-0.537 0.768 0.636 0.624 1.045-0.367 1.045-0.533 0-0.882-0.201-0.882-0.508zm1.06-7.959c0-0.388 0.158-0.705 0.352-0.705s0.353 0.317 0.353 0.705-0.16 0.706-0.353 0.706c-0.194 0-0.353-0.318-0.353-0.706zm-2.118-0.503c0-0.327 0.302-0.555 0.735-0.555 0.85999 0 0.73899 0.824-0.146 0.996-0.349 0.068-0.589-0.112-0.589-0.44zm1.5-6.801c-1.516-0.292-0.78299-0.81 1.146-0.81 1.972 0 2.589 0.45 1.147 0.836-0.833 0.224-1.007 0.222-2.293-0.026zm2.734-11.739c0-0.467 1.614-0.845 2.37-0.555 0.521 0.2 0.534 0.28 0.09 0.562-0.69 0.436-2.46 0.431-2.46-7e-3zm-5.224-2.15c0.07-0.208 0.241-0.367 0.382-0.353 0.14 0.015 0.583 0.027 0.982 0.027 0.4 0 0.62799 0.159 0.508 0.353-0.294 0.476-2.032 0.452-1.872-0.027zm-1.997-0.308c-0.226-0.365 1.164-1.254 1.474-0.944 0.104 0.105 0.096 0.435-0.02 0.734-0.23 0.603-1.131 0.733-1.454 0.21zm-2.48-0.37c-0.236-0.381 0.063-1.063 0.461-1.054 0.134 3e-3 0.482 0.162 0.773 0.353 0.47 0.309 0.47 0.386 0 0.695-0.676 0.443-0.963 0.445-1.235 5e-3zm8.704-4.84c-0.555-0.105-0.755-0.327-0.618-0.686 0.112-0.291 0.204-0.596 0.204-0.677s0.226-0.148 0.504-0.148c0.565 0 1.612 0.933 1.612 1.436 0 0.336-0.272 0.348-1.702 0.076zm5.941-1.952c4e-3 -0.87 0.088-1.019 0.347-0.617 0.449 0.693 0.449 1.764 0 1.764-0.194 0-0.35-0.516-0.347-1.147zm-9.574-0.086c-1.388-0.91-3.484-3.268-3.484-3.92 0-0.223 0.256-0.61799 0.57-0.87799 0.617-0.513 0.747-0.394 3.134 2.855 0.582 0.793 1.366 1.752 1.742 2.132 0.677 0.684 0.677 0.69 0 0.67-0.376-0.011-1.259-0.398-1.962-0.859zm9.276-4.235c-6e-3 -0.96999 0.126-2.082 0.293-2.47 0.402-0.935 0.402 2.096 0 3.352-0.223 0.695-0.285 0.509-0.293-0.882zm-47.505-56.742c-0.297-0.454-0.579-1.447-0.625-2.205-0.067-1.097 0.039-1.38 0.52-1.382 0.33199-2e-3 0.79199-0.193 1.022-0.423 0.476-0.476 1.942 0.119 2.779 1.127 0.408 0.49199 0.368 0.59699-0.29 0.76999-0.514 0.134-0.764 0.475-0.764 1.04 0 0.484-0.209 0.841-0.491 0.841-0.27 0-0.583 0.238-0.695 0.53-0.292 0.762-0.834 0.651-1.456-0.298zm-2.59-4.166c0.065-0.456 0.404-0.876 0.763-0.944 0.5-0.096 0.62 0.062 0.529 0.698-0.065 0.456-0.404 0.876-0.763 0.945-0.5 0.095-0.62-0.063-0.529-0.699zm12.288-10.857c0-0.208-0.397-0.378-0.882-0.378-1.185 0-1.196-1.364-0.022-2.715 0.71-0.81499 0.973-0.91999 1.5-0.59799 0.906 0.555 0.923 3.777 0.021 3.951-0.34 0.065-0.61699-0.051-0.61699-0.26zm-6.814-1.492c-0.803-0.449-0.749-1.56 0.135-2.8 0.81-1.14 1.435-1.288 2.09-0.5 0.275 0.332 0.745 0.449 1.274 0.316 1.09-0.274 1.394 0.493 0.85 2.143-0.448 1.358-0.708 1.477-1.773 0.811-0.53-0.33-0.858-0.34-1.342-0.037-0.418 0.261-0.846 0.285-1.234 0.067zm-125.34-18.438c-0.262-0.682 0.47-1.968 1.12-1.968 0.732 0 0.99 0.86 0.52 1.736-0.45 0.842-1.357 0.97-1.64 0.232zm3.648-7.53c-0.71-0.745-0.84-1.105-0.571-1.582 0.319-0.566 0.434-0.572 1.389-0.079 1.102 0.57 1.36 1.58 0.571 2.235-0.358 0.297-0.687 0.161-1.389-0.575zm119.06-10.51c-0.80699-0.564-1.067-2.056-0.42899-2.45 1.105-0.684 2.917 1.503 2.08 2.51-0.514 0.62-0.69 0.614-1.652-0.06zm-27.178-31.261c0.16-1.617 0.992-1.739 0.992-0.145 0 0.911-0.154 1.264-0.551 1.264-0.408 0-0.523-0.292-0.441-1.12zm-4.3-0.972c0-0.404 1.004-1.437 1.396-1.437 0.34999 0 0.71999 1.295 0.44799 1.568-0.32799 0.327-1.844 0.22-1.844-0.131zm-83.96 257.35c0-0.086-0.16-0.254-0.353-0.374-0.194-0.12-0.353-0.05-0.353 0.156 0 0.205 0.159 0.373 0.353 0.373s0.352-0.07 0.352-0.155zm94.191-1.08c0-0.29-0.154-0.529-0.342-0.529s-0.25 0.239-0.138 0.53c0.111 0.29 0.265 0.529 0.341 0.529 0.077 0 0.139-0.238 0.139-0.53zm-60.092-1.524c-0.732-0.81-0.732-1.08-2e-3 -1.887 0.713-0.788 2.165-0.834 3.212-0.1 0.606 0.424 0.94 0.458 1.512 0.151 0.56-0.299 0.868-0.281 1.292 0.073 0.307 0.256 0.972 0.639 1.477 0.85 0.798 0.335 1.03 0.268 1.764-0.514 0.933-0.993 1.446-3.669 0.783-4.079-0.216-0.133-0.393-0.753-0.393-1.376 0-0.744-0.371-1.584-1.08-2.444-0.594-0.72-1.172-1.881-1.286-2.58-0.113-0.7-0.43-1.357-0.704-1.462-0.479-0.184-0.436-2.386 0.097-4.954 0.091-0.437 0.043-0.776-0.107-0.752-1.014 0.165-1.224-0.084-0.996-1.185 0.13-0.631 0.224-1.745 0.207-2.476-0.016-0.731 0.149-1.663 0.367-2.07s0.85-1.998 1.405-3.534 1.314-3.224 1.687-3.751c0.666-0.94 0.667-1.005 0.025-3.427-0.36-1.358-0.66-3.048-0.664-3.755-6e-3 -0.848-0.202-1.359-0.576-1.502-0.399-0.153-0.503-0.472-0.352-1.075 0.119-0.471 0.052-0.958-0.148-1.081-0.20887-0.14281-0.32314-0.38823-0.298-0.64 0.035-0.227-0.056-0.68999-0.204-1.03-0.148-0.338-0.018-2.004 0.29-3.703 0.58-3.194 0.391-6.566-0.453-8.145-0.212-0.395-0.386-1.086-0.387-1.535 0-0.45-0.397-1.598-0.882-2.553-0.484-0.954-0.88-2.009-0.88-2.343 0-0.335-0.258-0.708-0.574-0.82899-0.497-0.19-0.542-0.64-0.329-3.356 0.262-3.348-0.172-5.83-1.16-6.64-0.295-0.241-0.56999-1.035-0.60999-1.763-0.04-0.729-0.186-1.759-0.324-2.289s-0.076-1.466 0.138-2.08c0.225-0.645 0.25999-1.282 0.083-1.506-0.435-0.551-0.91-3.032-0.8-4.181 0.062-0.642-0.074-0.97-0.402-0.97-0.548 0-1.314 1.43-1.314 2.456 0 0.363-0.196 0.72499-0.437 0.80599-0.266 0.088-0.396 0.628-0.331 1.38 0.203 2.357-4.158 14.055-5.24 14.055-0.195 0-0.27 0.357-0.166 0.794 0.217 0.916-1.692 4.497-2.399 4.497-0.244 0-0.624 0.477-0.844 1.059s-0.651 1.058-0.959 1.058c-0.719 0-0.78 2.697-0.083 3.714 0.778 1.136 1.006 2.62 0.95 6.164-0.067 4.195-0.775 8.998-1.545 10.478-0.77 1.479-0.742 2.403 0.095 3.183 0.376 0.35 0.861 1.105 1.08 1.68 0.336 0.883 0.299 1.117-0.242 1.534-0.474 0.365-0.52 0.536-0.18 0.663 0.253 0.094 0.842 0.778 1.31 1.52 0.643 1.018 0.846 1.819 0.829 3.273-0.015 1.215 0.187 2.247 0.548 2.798 0.64199 0.98 1.645 4.527 1.394 4.932-0.09 0.145-0.314 2.608-0.499 5.474-0.2 3.114-0.56399 5.823-0.90299 6.732-0.536 1.438-0.531 1.548 0.088 2.017 0.82499 0.625 1.213 0.65 0.98799 0.065-0.255-0.666 1.152-2.016 2.103-2.016 1.088 0 2.478 1.13 3.031 2.467 0.383 0.925 0.363 1.171-0.138 1.725-0.522 0.577-0.527 0.694-0.046 1.093 0.296 0.245 0.538 0.817 0.538 1.27 0 0.454 0.429 1.223 0.953 1.709 1.066 0.988 1.603 0.92 0.691-0.087zm94.512 0.25c0.316-0.511-0.456-0.978-1.268-0.766-0.75 0.197-1.568-1.074-1.24-1.927 0.118-0.31 0.01-0.691-0.238-0.85-0.676-0.428-1.06-0.356-0.75299 0.14 0.14899 0.242 0.27699 1.075 0.28499 1.853 0.014 1.335 0.083 1.426 1.25 1.632 0.679 0.12 1.344 0.239 1.478 0.264 0.134 0.026 0.353-0.13 0.486-0.346zm-104.8-0.313c0.12-0.194-0.029-0.353-0.331-0.353-0.303 0-0.55 0.16-0.55 0.353 0 0.194 0.15 0.353 0.332 0.353s0.43-0.159 0.55-0.353zm0.096-2.403c0.212-0.635-0.517-0.502-0.763 0.14-0.132 0.343-0.053 0.504 0.205 0.419 0.25509-0.102 0.45691-0.30455 0.558-0.56zm-27.859-4.384-1.485-1.774-0.312 0.937c-0.421 1.262 0.68 3.989 1.868 4.623 0.84999 0.455 0.89099 0.427 1.148-0.77 0.241-1.121 0.124-1.412-1.219-3.016zm132.89 3.965c0.12-0.194 0.724-0.369 1.343-0.388 1.052-0.033 1.068-0.052 0.244-0.283-0.72-0.203-0.882-0.47-0.882-1.457 0-0.869-0.173-1.242-0.617-1.33-0.452-0.089-0.618 0.108-0.618 0.732 0 0.469-0.328 1.15-0.729 1.512-0.688 0.624-0.694 0.685-0.109 1.113 0.746 0.546 1.078 0.57 1.368 0.1zm-138.47-6.791c3e-3 -0.146-0.454-0.265-1.016-0.265-1.015 0-1.019 8e-3 -0.69 1.469 0.497 2.214 0.724 2.328 1.234 0.62 0.257-0.858 0.469-1.679 0.472-1.824zm3.18-2.106c0-0.345-0.158-0.628-0.353-0.628-0.194 0-0.352-0.583-0.352-1.295 0-0.73899-0.266-1.589-0.618-1.978-0.44-0.487-0.617-1.276-0.617-2.761 0-1.429-0.138-2.08-0.44101-2.08-0.25499 0-0.43999 0.447-0.43999 1.058 0 0.582-0.16 1.059-0.354 1.059s-0.353-0.291-0.353-0.647c0-0.957-0.366-1.154-0.987-0.533-0.5 0.5-0.496 0.582 0.034 0.879 0.735 0.41 2.854 3.457 2.589 3.722-0.108 0.108 0.036 0.644 0.319 1.192 0.653 1.263 0.65 1.287-0.168 1.724-0.454 0.243-1.014 0.25-1.675 0.022-0.843-0.292-0.891-0.279-0.319 0.088 0.371 0.237 0.927 0.677 1.235 0.977 0.723 0.703 2.5 0.135 2.5-0.799zm138.09-0.24c0.108-0.176-0.303-0.494-0.914-0.706-1.448-0.505-1.446-0.505-1.006 0.318 0.387 0.722 1.566 0.96 1.92 0.387zm10.14-5.403c-0.254-0.254-0.418-0.274-0.418-0.053 0 0.47 0.417 0.888 0.653 0.652 0.1-0.1-6e-3 -0.37-0.235-0.6zm-162.7-2.47c0-0.45-0.472-0.305-1.41 0.43l-0.883 0.691 1.147-0.423c0.63-0.233 1.146-0.547 1.146-0.699zm8.832-0.828c0.495-0.926 0.216-1.9-0.625-2.18-0.521-0.175-0.912 1.171-0.647 2.228 0.276 1.1 0.665 1.085 1.272-0.048zm-2.84-2.344c3e-3 -0.33 0.561-1.045 1.24-1.587 0.68-0.542 1.235-1.177 1.235-1.412 0-0.797 1.898-2.26 2.734-2.108 0.795 0.144 0.93399-0.078 0.807-1.288-0.037-0.356 0.197-0.94 0.52-1.297 0.38-0.42 0.504-0.918 0.349-1.407-0.154-0.485-0.034-0.983 0.336-1.392 0.317-0.35 0.672-1.252 0.79-2.003 0.118-0.752 0.429-1.68 0.69-2.063 0.262-0.383 0.477-1.105 0.477-1.605s0.146-1.06 0.324-1.245c0.546-0.564 0.625-5.22 0.096-5.637-0.358-0.282-0.374-0.594-0.07-1.392 0.215-0.566 0.46-2.77 0.543-4.896 0.084-2.127 0.24-4.14 0.345-4.473 0.13-0.409-0.04-0.667-0.523-0.793-0.89-0.233-0.91-1.077-0.06-2.505 0.507-0.85 0.668-1.89 0.71-4.572 0.031-1.91 0.196-3.735 0.367-4.057s0.391-2.252 0.489-4.289c0.16999-3.54 0.37199-4.498 1.453-6.879 1.297-2.855 1.617-3.818 1.618-4.863 0-0.624 0.337-2.007 0.75-3.075 0.413-1.067 0.807-2.375 0.875-2.908 0.068-0.532 0.547-1.802 1.065-2.822 0.662-1.305 0.924-2.334 0.885-3.473-0.031-0.89 0.202-2.319 0.519-3.175 0.316-0.856 0.78-2.667 1.031-4.026 0.251-1.358 0.882-4.612 1.402-7.232 0.82099-4.137 0.89499-5.02 0.55999-6.724-0.21199-1.078-0.38499-2.222-0.38499-2.541 0-0.32-0.397-0.977-0.882-1.462s-0.882-1.183-0.882-1.55-0.328-1.046-0.73-1.509c-0.715-0.825-0.74-1.799-0.1-3.971 0.169-0.57 0.098-0.597-0.585-0.232-1.188 0.636-1.411 0.024-0.838-2.295 0.692-2.8 0.692-3.601 0-4.367-0.319-0.352-0.552-0.942-0.518-1.312 0.174-1.908-0.034-2.024-1.136-0.632-0.698 0.882-1.462 1.435-2.141 1.548-1.196 0.2-1.915 1.248-2.238 3.263-0.155 0.96799-0.385 1.323-0.856 1.323-0.463 0-0.77 0.453-1.097 1.62-0.25 0.89-0.68 1.707-0.96 1.814-0.277 0.106-1.067 1.402-1.753 2.878-1.158 2.492-1.243 2.905-1.179 5.772 0.058 2.61-0.058 3.342-0.748 4.723-0.449 0.9-1.15 1.854-1.557 2.12-0.407 0.26799-0.939 1.158-1.181 1.98-0.344 1.168-1.277 2.318-4.265 5.258-3.01 2.963-3.922 4.089-4.282 5.292-0.299 1-1.087 2.158-2.282 3.354-3.08 3.082-2.992 5.033 0.365 8.133 1.212 1.12 2.303 2.305 2.425 2.634 0.121 0.33 0.09 1.419-0.068 2.42-0.205 1.3-0.143 2.293 0.218 3.46 0.577 1.861 0.453 5.027-0.228 5.847-0.794 0.956-2.307 0.673-3.468-0.65-0.58-0.66-1.123-1.407-1.208-1.66-0.12-0.362-0.5-0.326-1.804 0.172-0.909 0.347-1.652 0.783-1.652 0.97 0 0.186-0.278 0.292-0.617 0.235-0.512-0.086-0.636 0.212-0.724 1.748-0.092 1.59-0.017 1.852 0.529 1.85 0.75-3e-3 2.047-0.852 3.363-2.202 1.06-1.089 1.61-1.218 1.905-0.448 0.124 0.322-0.42 1.142-1.422 2.144-0.893 0.892-1.623 1.732-1.623 1.865 0 0.134 0.953 0.622 2.117 1.084s2.117 1.035 2.117 1.272 0.708 0.737 1.573 1.112c1.713 0.741 4.071 3.443 4.071 4.664 0 0.392-0.55 1.15-1.222 1.687l-1.223 0.976 0.719 0.765c1.161 1.236 0.8 2.912-0.81 3.743-2.13 1.102-4.754 1.201-6.934 0.264-1.396-0.6-1.957-0.699-2.261-0.395-0.222 0.223-0.697 0.405-1.056 0.405-0.358 0-1.054 0.403-1.547 0.897-0.726 0.72499-0.816 0.99499-0.47 1.41 0.554 0.669 1.216 0.651 2.304-0.062 1.155-0.756 1.53-0.34 0.601 0.667-0.402 0.435-0.792 1.11-0.867 1.498-0.112 0.572-0.385 0.69-1.447 0.627-0.836-0.05-1.31 0.078-1.313 0.353-2e-3 0.237-0.102 1.026-0.223 1.754-0.209 1.267-0.176 1.323 0.775 1.323 0.546 0 1.686-0.336 2.534-0.746 2.102-1.018 2.345-0.52 0.534 1.093-0.825 0.735-1.5 1.453-1.5 1.596s0.222 0.076 0.492-0.149c0.27-0.224 1.422-0.887 2.558-1.474 1.4531-0.75131 2.9035-1.508 4.351-2.27 2.39-1.26 3.537-1.18 2.323 0.162-0.622 0.686-0.61 0.694 0.731 0.479 1.26-0.203 1.325-0.173 0.863 0.387-0.801 0.973-1.808 1.4-2.254 0.954-0.617-0.617-0.95-0.45-0.95 0.476 0 0.473-0.165 0.963-0.367 1.088s-0.27 0.53-0.152 0.903c0.173 0.54599 0.04 0.67599-0.692 0.67599-0.661 0-0.905 0.184-0.905 0.684 0 0.377-0.144 0.774-0.32 0.883-0.176 0.108-0.237 0.513-0.136 0.898 0.216 0.827-0.79 1.37-1.402 0.756-0.752-0.75-0.929-0.4-0.417 0.824 0.635 1.52 0.634 1.599-0.022 1.599-0.293 0-0.96699-0.629-1.499-1.398s-1.252-1.404-1.6-1.41c-0.538-0.012-0.597 0.178-0.393 1.266 0.189 1.008 0.136 1.243-0.249 1.106-0.269-0.096-0.781-0.023-1.14 0.161-0.616 0.318-0.607 0.38 0.177 1.215 0.72 0.766 0.758 0.935 0.298 1.295-0.291 0.227-0.575 0.628-0.63 0.89-0.055 0.263-0.333 0.71-0.617 0.99499-0.658 0.658-0.663 1.67-0.01 2.211 0.278 0.231 0.604 0.869 0.725 1.416 0.17 0.776 0.372 0.956 0.916 0.814 0.396-0.104 0.997 0.088 1.391 0.445 0.67 0.606 0.694 0.602 0.694-0.124 0-0.413 0.397-1.012 0.882-1.33 0.48499-0.318 0.88199-0.868 0.88199-1.222 0-1.146 0.677-1.103 1.405 0.09 0.39 0.64 0.766 1.323 0.835 1.517 0.07 0.195 0.458 0.06 0.863-0.3 0.692-0.614 0.807-0.619 1.885-0.08 1.023 0.51 1.182 0.514 1.45 0.036 0.364-0.65 1.371-0.7 1.98-0.096 0.357 0.353 0.515 0.318 0.79399-0.177 0.437-0.774 1.577-0.804 1.867-0.048 0.165 0.429 0.334 0.473 0.688 0.18 0.258-0.215 0.573-0.286 0.701-0.158 0.308 0.307 0.299 2.4-0.011 2.71-0.134 0.133-0.205 0.993-0.158 1.91 0.054 1.032-0.11 1.935-0.43 2.369-0.509 0.69-0.527 0.69-1.262 0.026-0.529-0.479-0.855-0.566-1.123-0.298-0.267 0.267-0.016 0.496 0.863 0.786 0.68 0.224 1.436 0.646 1.677 0.936 0.351 0.424 0.495 0.438 0.728 0.07 0.16-0.251 0.293-0.728 0.296-1.06zm-4.407-9.161c-0.547-1.411 0.69099-3.468 1.55-2.576 0.592 0.615 0.62 2.11 0.04 2.11-0.29 0-0.716 0.237-0.945 0.528-0.36599 0.466-0.44299 0.459-0.64499-0.062zm-2.955 8.44c0.546-1.037 0.99-1.31 2.143-1.317 0.522-3e-3 1.048-0.164 1.168-0.358 0.33399-0.54-1.684-0.424-3.132 0.181-0.983 0.41-1.278 0.737-1.278 1.411 0 1.093 0.545 1.134 1.099 0.084zm-8.596-0.83899c0.828-0.222 1.016-0.997 0.456-1.882-0.262-0.415-0.399-0.328-0.691 0.44-0.4 1.052-0.726 1.18-1.37 0.536-0.467-0.467-0.535-0.28-0.209 0.57 0.231 0.603 0.58 0.667 1.814 0.336zm178.77-1.416c0.632 0.243 0.702-0.17 0.125-0.745-0.309-0.31-0.299-0.54 0.042-0.951 0.375-0.453 0.312-0.657-0.386-1.238-1.102-0.918-1.218-0.894-1.202 0.251 0.012 0.786-0.16 0.99-0.899 1.076l-0.91299 0.106 0.91299 1.005c0.656 0.72 1.036 0.904 1.35 0.648 0.24-0.196 0.677-0.264 0.97-0.152zm-166.78-2.131c0.12899-0.385-1.136-0.878-1.45-0.564-0.255 0.255 0.604 1.147 0.995 1.034 0.182-0.053 0.387-0.264 0.455-0.47zm-7.665-0.068c0-0.17-0.238-0.507-0.53-0.749-0.428-0.356-0.528-0.342-0.528 0.075 0 0.282 0.105 0.62 0.235 0.748 0.335 0.336 0.823 0.291 0.823-0.074zm198.62-0.353c0-0.17-0.238-0.507-0.53-0.748-0.441-0.367-0.529-0.316-0.529 0.31 0 0.43 0.226 0.748 0.53 0.748 0.29 0 0.529-0.14 0.529-0.31zm-24.165-3.923c-0.12-0.194-0.457-0.353-0.748-0.353-0.29 0-0.43 0.159-0.31 0.353s0.455 0.352 0.746 0.352 0.431-0.158 0.312-0.352zm-5.998-3.528c-0.12-0.194-0.376-0.353-0.57-0.353-0.195 0-0.255 0.159-0.135 0.353s0.377 0.353 0.57 0.353c0.195 0 0.255-0.16 0.135-0.353zm-181.54-5.14c0.242 0.15 0.302 0.027 0.163-0.336-0.247-0.643-1.86-0.434-2.312 0.299-0.177 0.286-0.418 0.197-0.79-0.293-0.464-0.608-0.586-0.632-0.891-0.175-0.195 0.291-0.357 1.318-0.36 2.281l-5e-3 1.752 1.906-1.882c1.048-1.035 2.078-1.776 2.29-1.645zm199.1 1.171c-0.078-0.145-0.291-0.265-0.474-0.265-0.393 0-0.448 1.53-0.069 1.91 0.284 0.284 0.777-1.208 0.543-1.645zm-196.99-1.852 0.016-0.706-0.4 0.706c-0.22 0.388-0.518 0.785-0.66199 0.883-0.145 0.097-0.172 0.652-0.061 1.232l0.20199 1.055 0.444-1.232c0.245-0.678 0.452-1.55 0.461-1.938zm207.03 1.203c0.65-0.247 0.804-0.456 0.534-0.726-0.269-0.27-0.683-0.198-1.435 0.246-0.961 0.568-1.02 0.706-0.649 1.527 0.405 0.896 0.409 0.897 0.523 0.1 0.068-0.474 0.486-0.942 1.027-1.147zm3.267-3.82c0-0.178 0.097-0.575 0.215-0.882 0.265-0.691-0.666-0.76-1.221-0.091-0.283 0.341-0.276 0.579 0.027 0.882 0.496 0.496 0.98 0.54 0.98 0.091zm-4.586-1.151c0-0.136-0.168-0.351-0.373-0.478-0.214-0.133-0.278-0.668-0.149-1.256 0.127-0.574 0.077-1.024-0.112-1.024-0.555 0-1.227 2.035-0.987 2.99 0.197 0.785 0.305 0.837 0.922 0.451 0.385-0.24 0.7-0.547 0.7-0.683zm-203.69-3.023c0.393-0.392 0.406-0.643 0.066-1.26-0.371-0.672-0.441-0.69-0.554-0.151-0.172 0.819-0.378 0.78-1.165-0.221-0.623-0.792-2.09-1.481-2.087-0.98 4e-3 0.592 1.454 2.524 1.896 2.524 0.273 0 0.618 0.436 0.767 0.97 0.226 0.808 0.297 0.856 0.43 0.29 0.086-0.375 0.378-0.902 0.647-1.172zm-4.881-1.852c0.242-0.388 0.29-0.706 0.107-0.706s-0.383-0.514-0.444-1.142c-0.081-0.838-0.412-1.33-1.244-1.852-0.623-0.39-1.139-0.829-1.146-0.974-0.025-0.49 0.943-0.27 1.807 0.41 0.58 0.456 1.388 0.667 2.495 0.65 0.96699-0.015 2 0.214 2.528 0.55999 1.39 0.91 1.612 0.706 0.999-0.91499-0.751-1.985-0.734-1.974-1.509-0.965-0.52 0.678-0.675 0.743-0.681 0.285-0.011-0.819-1.05-1.783-1.666-1.546-0.297 0.113-0.977-0.298-1.63-0.985-0.617-0.648-1.36-1.263-1.651-1.366-0.464-0.163-0.457-0.318 0.054-1.258 0.5-0.919 0.515-1.17 0.101-1.761-0.717-1.024-0.275-1.155 1.373-0.407 1.844 0.837 2.44 0.854 2.277 0.066-0.07-0.342-0.385-0.574-0.704-0.52-0.793 0.134-1.14-0.544-0.606-1.186 0.316-0.382 0.331-0.636 0.054-0.914-0.526-0.526-1.518-0.088-1.742 0.77-0.224 0.85499-0.424 0.87999-0.98 0.12-0.346-0.474-0.472 0.17-0.674 3.44-0.18 2.914-0.445 4.433-0.962 5.512-0.401 0.836-0.619 1.79-0.496 2.176 0.406 1.281 1.633 2.508 2.507 2.508 0.47 0 0.856 0.159 0.856 0.353 0 0.582 0.507 0.399 0.977-0.353zm9.607-5.988c0-0.25-1.964-1.773-2.286-1.773-0.108 0-0.102 0.436 0.015 0.97 0.413 1.881 0.412 1.88 1.377 1.44 0.491-0.224 0.894-0.51 0.894-0.637zm-52.74-2.479c-0.12-0.194-0.368-0.353-0.55-0.353-0.183 0-0.333 0.16-0.333 0.353 0 0.194 0.248 0.353 0.55 0.353 0.303 0 0.452-0.159 0.332-0.353zm254.35-1.131c1.537-0.747 1.644-0.754 2.622-0.176 1.977 1.168 3.288 0.363 1.672-1.027-0.516-0.444-0.93799-0.973-0.93799-1.177 0-0.515 1.523-0.463 2.09 0.072 0.376 0.355 0.437 0.343 0.314-0.063-0.084-0.277-0.422-0.635-0.75-0.794l-1.214-0.58999c-0.33999-0.165-0.66699-0.72-0.72899-1.235-0.131-1.103-0.61-1.229-0.872-0.229-0.212 0.81-0.956 0.961-0.956 0.194 0-0.281-0.252-0.652-0.56-0.824-0.712-0.4-4.365 0.965-4.373 1.633-3e-3 0.261-0.308 0.553-0.677 0.65-0.822 0.21499-1.17 1.725-0.52 2.264 0.369 0.306 0.548 0.197 0.81-0.493 0.485-1.274 0.883-1.392 1.927-0.571 1.098 0.863 1.202 1.95 0.218 2.263-0.819 0.26-0.95 0.881-0.186 0.881 0.286 0 1.24-0.35 2.122-0.778zm-1.554-2.537c-0.562-0.678 1.001-2.55 1.855-2.223 0.786 0.302 0.737 1.009-0.134 1.944-0.84 0.901-1.16 0.953-1.72 0.279zm-251.81 1.552c0.12-0.459 0.01-0.706-0.312-0.706-0.273 0-0.496 0.318-0.496 0.706s0.14 0.705 0.311 0.705c0.172 0 0.395-0.317 0.496-0.705zm-4.074-4.22c0.58-0.928 0.2-1.778-0.796-1.778-0.76399 0-0.78999 0.072-0.432 1.235 0.435 1.419 0.628 1.504 1.228 0.543zm255.68-1.383c1.363-0.441 1.79-0.756 1.88-1.384 0.187-1.326-0.491-1.848-1.813-1.397-1.126 0.383-4.83 2.353-4.83 2.568 0 1.276 1.297 1.334 4.763 0.213zm-229.29-4.556c0.31-1.067 0.463-2.342 0.34-2.832-0.14-0.559 0.01-1.324 0.4-2.05 0.741-1.375 0.342-2.055-0.528-0.901-0.645 0.854-1.11 0.714-1.11-0.333 0-0.348-0.317-0.804-0.705-1.012-0.938-0.502-0.956-1.538-0.021-1.241 0.466 0.148 0.8 0 1.05-0.468 0.202-0.377 0.835-0.849 1.406-1.048s1.23-0.72 1.463-1.156l0.426-0.795-0.97499 0.767c-1.106 0.87-2.572 1.01-2.855 0.272-0.288-0.75-1.552-0.976-1.552-0.278 0 0.315-0.259 1.25-0.575 2.078-0.56 1.468-0.556 1.521 0.205 2.137 0.737 0.598 0.78 0.896 0.77 5.518l-0.01 4.886 0.853-0.802c0.47-0.441 1.108-1.675 1.418-2.742zm236.1 1.295c0.36-1.155 0.367-1.844 0.032-3.339-0.33-1.477-0.328-1.997 0.011-2.405 0.345-0.415 0.319-0.761-0.13-1.707-0.408-0.86-0.537-2.008-0.467-4.183l0.095-2.998-2.027-2.275c-2.354-2.642-2.655-3.863-0.955-3.863 0.835 0 1.21 0.243 1.676 1.085 0.86999 1.571 1.406 2.29 1.557 2.09 0.164-0.217-0.263-5.919-0.614-8.199-0.178-1.157-0.12-1.837 0.185-2.205 0.695-0.837-0.114-1.467-1.975-1.537-0.898-0.034-1.803-0.167-2.012-0.296-0.208-0.13-1.058-0.2-1.887-0.157s-1.981-0.167-2.56-0.467c-1.315-0.68-2.147-0.697-2.147-0.045 0 0.275-0.16199 0.554-0.35999 0.62-0.51 0.17-0.877 3.668-0.415 3.954 0.376 0.232 5.371-0.546 6.507-1.014 0.34-0.14 0.618-0.104 0.618 0.08 0 0.575-2.19 1.454-4.693 1.884l-2.4 0.413 0.107 1.456c0.086 1.176 0.251 1.477 0.85799 1.563 0.664 0.095 0.705 0.208 0.353 0.968-0.22 0.473-0.518 0.861-0.66399 0.863-0.145 0-0.264 1.034-0.264 2.296 0 1.26 0.042 2.293 0.093 2.293 0.80799 0 4.186-1.66 5.015-2.463 1.199-1.162 1.595-1.312 1.595-0.605 0 0.908-4.757 4.595-6.815 5.28-0.264 0.088-0.243 0.458 0.067 1.207l0.44699 1.079 3.591-1.502c1.975-0.826 3.949-1.611 4.385-1.744 1.16-0.353 0.999 0.45399-0.176 0.88299-3.834 1.397-6.905 3.024-7.266 3.848-0.216 0.493-0.54 1-0.72099 1.128-0.203 0.143-0.204 0.822-4e-3 1.764 0.30399 1.436 0.38999 1.524 1.38 1.407 0.58-0.068 1.322-0.266 1.649-0.44 0.781-0.417 2.757-0.408 2.757 0.012 0 0.375-0.615 0.581-2.702 0.905-2.092 0.325-2.507 0.785-2.782 3.087-0.26499 2.22-0.11 2.376 1.533 1.549 0.524-0.265 1.662-0.59 2.53-0.723 0.866-0.133 1.693-0.431 1.837-0.663 0.2-0.326 0.358-0.324 0.69 8e-3 0.321 0.322 0.55 0.33 0.911 0.03 0.343-0.285 0.591-0.291 0.86-0.023 0.59 0.591-5e-3 1.17-0.959 0.932-0.473-0.12-0.856-0.08-0.852 0.086 0.012 0.458 2.165 1.485 3.17 1.513 0.735 0.02 0.96-0.22 1.338-1.43zm-5.01-5.545c-0.123-0.198-0.05-0.466 0.16-0.595 0.542-0.336 0.892 0.124 0.439 0.576-0.254 0.254-0.45 0.26-0.6 0.019zm1.733-0.05c-0.26-0.42 0.07-1.064 0.546-1.064 0.43 0 0.432 0.955 4e-3 1.22-0.18 0.112-0.428 0.042-0.55-0.156zm-204.79 1.032c0-0.4-0.158-0.628-0.352-0.508s-0.353 0.447-0.353 0.726c0 0.28 0.159 0.509 0.353 0.509s0.352-0.327 0.352-0.727zm-53.72-1.086c-0.342-0.19-0.53-0.496-0.418-0.679 0.113-0.182-0.07-0.33-0.406-0.33-0.523 0-0.491 0.127 0.215 0.88 0.455 0.484 0.918 0.79 1.03 0.679 0.11-0.11-0.08-0.358-0.421-0.55zm58.933-2.596c0.363-0.32 0.314-0.704-0.246-1.964-0.383-0.86-1.012-1.758-1.397-1.994-0.62699-0.385-0.73899-0.311-1.066 0.705-0.202 0.624-0.468 1.795-0.593 2.6-0.192 1.25-0.129 1.488 0.431 1.61 0.715 0.155 2.155-0.325 2.871-0.957zm-5.428-0.354c0.173-0.773 0.14-0.916-0.121-0.53-0.197 0.292-0.36 0.834-0.364 1.206-7e-3 0.903 0.195 0.621 0.485-0.676zm-56.715-3.49c-0.613-0.902-1.868-0.836-2.856 0.15-0.403 0.403-0.514 0.694-0.264 0.694 0.237 0 0.431-0.159 0.431-0.353 0-0.627 1.392-0.373 1.835 0.335 0.323 0.518 0.544 0.593 0.894 0.302 0.383-0.318 0.376-0.516-0.04-1.128zm4.014-4.436c0-2.973-0.082-3.486-0.526-3.315-0.715 0.274-0.992-0.602-0.556-1.75 0.268-0.705 0.25-0.942-0.073-0.938-0.805 0.01-1.34 0.575-1.11 1.174 0.268 0.7-0.414 1.643-1.19 1.643-0.3 0-0.824 0.25-1.162 0.557-0.485 0.438-0.773 0.473-1.351 0.164-0.404-0.217-0.732-0.269-0.727-0.117 4e-3 0.153 0.51 0.516 1.125 0.807 0.798 0.377 1.272 0.96 1.656 2.037 0.347 0.971 0.703 1.444 1.003 1.33 0.26599-0.103 0.60099 0.182 0.78599 0.67 0.178 0.466 0.689 0.91699 1.136 1.003 0.447 0.085 0.852 0.177 0.9 0.203 0.05 0.027 0.089-1.534 0.089-3.468zm27.608 0.253c-0.106-0.83-0.356-1.323-0.67-1.323-0.85799 0-0.93299-0.988-0.16999-2.223 0.54899-0.889 0.62999-1.282 0.32599-1.586-0.30499-0.305-0.30199-0.63 9e-3 -1.313 0.413-0.90699 0.591-5.461 0.214-5.461-0.11 0-0.49 0.155-0.84499 0.345-0.48 0.257-0.868 0.169-1.529-0.35-0.486-0.383-1.242-0.737-1.679-0.787-0.792-0.09-0.794-0.075-0.66 4.143 0.074 2.329 0.137 5.226 0.142 6.438 4e-3 1.213 0.127 2.205 0.272 2.205 0.146 0 0.265-0.285 0.265-0.635 0-0.746 0.652-1.481 1.313-1.481 0.487 0 0.968 0.93 1.309 2.531 0.187 0.882 1.16 1.484 1.653 1.024 0.12-0.112 0.143-0.8 0.05-1.527zm232.04-15.434c-5.5e-4 -0.19473-0.15826-0.35245-0.35299-0.353-0.19434 1e-3 -0.35145 0.15866-0.352 0.353 0 0.194 0.158 0.353 0.352 0.353 0.19473-5.5e-4 0.35244-0.15827 0.35299-0.353zm-3.138-1.163c-0.453-0.45299-0.912-0.103-0.577 0.44 0.13 0.21 0.398 0.282 0.595 0.16 0.241-0.15 0.235-0.346-0.018-0.6zm-232.95-2.188c0.714-0.485 1.461-0.882 1.66-0.882 0.2 0 0.549-0.298 0.776-0.662 0.289-0.462 0.685-0.609 1.32-0.488 0.793 0.152 0.906 0.054 0.906-0.783 0-0.526-0.278-1.458-0.617-2.07-0.34-0.612-0.648-1.17-0.686-1.24-0.037-0.069-0.55799 0.224-1.159 0.651-1.15 0.82-2.124 0.746-2.124-0.16 0-0.297-0.13-0.54-0.29-0.54-0.159 0-0.48 1.151-0.712 2.558-0.232 1.406-0.517 2.994-0.633 3.528-0.26 1.193-0.082 1.203 1.56 0.088zm20.719-5.817c0.146-1.088 0.627-2.477 1.097-3.17 0.461-0.677 0.838-1.477 0.838-1.776 0-0.3 0.247-0.899 0.54999-1.33 0.302-0.432 0.458-0.932 0.348-1.11-0.274-0.444 0.4-1.918 1.998-4.373 0.735-1.13 1.337-2.19 1.337-2.356s0.523-1.305 1.162-2.532 1.437-2.92 1.774-3.763 1.163-2.394 1.836-3.446c0.988-1.544 1.149-2.033 0.835-2.535-0.294-0.47-0.255-0.944 0.158-1.932 0.46599-1.115 0.47599-1.443 0.07-2.225-0.433-0.836-0.379-1.072 0.62399-2.684 0.604-0.972 1.7-2.45 2.435-3.285 0.735-0.836 1.338-1.733 1.339-1.994 0-0.261 0.318-0.951 0.703-1.533 0.882-1.333 0.882-1.568 0-1.337-1.007 0.263-0.92-0.79999 0.122-1.482 1.103-0.723 1.642-1.997 1.642-3.878 0-0.851 0.163-1.977 0.363-2.502 0.282-0.743 0.243-1.087-0.18-1.553-0.49-0.542-0.456-0.76 0.36-2.294 0.865-1.626 0.878-1.742 0.338-2.882-0.498-1.048-0.65-1.142-1.297-0.796-0.555 0.298-0.799 0.285-1.008-0.054-0.213-0.346-0.413-0.31-0.882 0.16-0.334 0.334-0.8 0.533-1.036 0.442-1.034-0.396-4.335-0.578-5.301-0.29l-1.058 0.313 1.323 0.645c0.727 0.355 1.322 0.86 1.322 1.121 0 0.377-0.157 0.392-0.75 0.075-0.563-0.301-0.813-0.3-1.001 4e-3 -0.181 0.293-0.371 0.261-0.681-0.112-0.237-0.285-1.055-0.624-1.82-0.753-0.763-0.13-1.456-0.345-1.54-0.48-0.083-0.135-0.672-0.285-1.309-0.333-0.637-0.049-1.43-0.334-1.761-0.635-0.486-0.44-0.75499-0.465-1.377-0.132-0.523 0.28-0.888 0.298-1.13 0.055-0.556-0.555-2.122 0.276-1.833 0.973 0.127 0.305 0.273 1.952 0.326 3.66 0.052 1.707 0.185 3.194 0.295 3.305 0.11 0.11 0.458-0.057 0.772-0.371s0.917-0.576 1.34-0.582c0.422-6e-3 1.076-0.245 1.453-0.53 0.377-0.284 0.983-0.517 1.349-0.517 0.954 0 0.63 1.205-0.362 1.347-0.506 0.072-0.79 0.357-0.79 0.794 0 0.447-0.244 0.68-0.70999 0.68-0.391 0-1.03 0.2-1.422 0.442-0.577 0.357-0.768 0.35-1.009-0.036-0.231-0.373-0.422-0.298-0.87 0.343-0.844 1.204-0.716 1.932 0.66 3.733 0.79 1.034 1.234 2.007 1.234 2.696 0 1.199 1.834 3.406 2.83 3.406 0.316 0 0.95 0.4 1.408 0.887 0.563 0.599 0.95 0.77 1.19 0.529 0.525-0.524 0.707-0.463 2.02 0.684 0.888 0.776 1.091 1.144 0.794 1.441-0.46 0.46-2.337-0.351-3.405-1.47-1.076-1.126-5.177-0.633-6.138 0.74-0.66 0.943-0.926 9.428-0.319 10.21 0.454 0.584 0.384 5.518-0.138 9.679-0.197 1.572-0.358 4.307-0.358 6.078 0 1.77-0.181 3.738-0.402 4.372-0.368 1.055-0.038 4.525 0.638 6.714 0.265 0.856 0.701-0.216 1.004-2.466zm5.992-50.451c-0.12-0.194 0.03-0.353 0.332-0.353s0.55 0.159 0.55 0.353-0.15 0.352-0.332 0.352c-0.183 0-0.43-0.158-0.55-0.352zm-47.096 49.741c0-2.466-0.238-2.868-1.301-2.192-0.32 0.203-0.29 0.688 0.122 2.023 0.298 0.966 0.6 1.955 0.673 2.198 0.311 1.047 0.506 0.268 0.506-2.029zm-12.844-3c0.029-2.003-0.049-2.291-0.617-2.291-0.552 0-0.65 0.29-0.65 1.922 0 1.46 0.149 2.01 0.617 2.283 0.34 0.198 0.617 0.364 0.617 0.37l0.033-2.283zm33.305 1.06c0.477-0.574 0.363-0.646-0.5-0.315-0.307 0.118-0.558 0.356-0.558 0.53 0 0.48699 0.571 0.37199 1.058-0.215zm3.17-0.713c-0.36399-0.683-0.37799-0.985-0.058-1.305 0.595-0.595 0.518-1.35-0.113-1.108-0.696 0.267-0.705-0.876-0.015-1.86 0.283-0.405 0.624-1.81 0.759-3.125 0.202-1.97 0.158-2.36-0.25-2.222-0.337 0.116-0.456 0.59-0.375 1.492 0.096 1.063-0.041 1.435-0.702 1.898-0.45199 0.316-1.18 0.528-1.619 0.47-0.8-0.104-0.861 7e-3 -0.935 1.71-0.022 0.503-0.228 0.845-0.48 0.794-0.293-0.058-0.44 0.382-0.44 1.323 0 1.577 0.294 1.745 1.234 0.706 0.84-0.929 1.588-0.898 1.588 0.065 0 0.769 1.373 2.56 1.707 2.226 0.096-0.097-0.039-0.575-0.3-1.064zm-28.636-5.4c0.09-0.904-0.018-1.119-0.563-1.119-0.37 0-0.96099-0.318-1.313-0.708-0.924-1.02-1.099-0.563-0.215 0.56 0.41 0.522 0.746 1.218 0.746 1.548 0 1.536 1.19 1.288 1.345-0.28zm27.328-5.72c-0.216-0.826-0.925-0.74-1.094 0.132-0.076 0.39 0.122 0.589 0.584 0.589 0.53 0 0.653-0.175 0.51-0.72zm232.22-0.322c-0.115-0.186-0.442-0.248-0.727-0.139-0.73 0.28-0.643 0.476 0.209 0.476 0.4 0 0.632-0.152 0.518-0.337zm-264.77-2.658c0.24-0.289 0.577-0.438 0.749-0.332 0.172 0.107 0.312-0.014 0.31-0.268 0-0.254-0.474-0.73-1.052-1.06-0.986-0.56-1.07-0.56-1.387 0-0.27 0.48-0.425 0.51-0.782 0.157-0.67-0.664-1.01-0.534-1.01 0.387 0 1.34 2.311 2.153 3.172 1.116zm10.402-10.348c-0.217-2.399-0.276-2.544-0.831-2.041-0.347 0.313-0.918 0.457-1.359 0.342-0.618-0.162-0.88 0.052-1.398 1.137-0.404 0.847-1.038 1.499-1.732 1.78-0.97999 0.396-1.222 0.356-2.319-0.39-0.673-0.457-1.683-0.885-2.243-0.95-0.738-0.085-1.073-0.352-1.218-0.973-0.11-0.47-0.394-0.92-0.631-1-0.387-0.128-0.452 0.221-0.429 2.287 1e-3 0.14 0.356 0.26 0.788 0.265 1.097 0.014 1.169 0.978 0.16 2.15l-0.85 0.989 0.69 1.17c0.674 1.14 0.674 1.169 0.02 1.169-0.368 0-0.857-0.18799-1.087-0.41799-0.61-0.61-0.904-0.116-0.443 0.74499 0.3 0.56 0.544 0.66 1.003 0.415 0.333-0.178 1.08-0.249 1.66-0.157 0.93 0.147 0.986 0.11 0.47-0.313-0.321-0.263-0.691-1.19-0.822-2.06-0.195-1.305-0.118-1.688 0.446-2.198 0.607-0.55 0.733-0.558 1.127-0.084 0.287 0.346 0.748 0.459 1.304 0.32 1.08-0.272 1.94 0.733 1.7 1.986-0.094 0.485-0.021 1.114 0.16 1.397 0.286 0.44399 0.422 0.43199 0.998-0.088 0.739-0.669 1.493-0.796 1.493-0.25 0 0.193 0.312 0.352 0.693 0.352 0.861 0 1.497 1.078 1.052 1.783-0.508 0.802-0.403 0.984 0.636 1.104l0.97 0.111 0.112-2.998c0.062-1.65 7e-3 -4.161-0.12-5.582zm-4.609 8.19c0.306-0.117 0.473-0.348 0.37-0.513-0.225-0.365-1.22-0.029-1.22 0.412 0 0.372 0.11 0.386 0.85 0.102zm27.261-2.82c1.557-0.373 1.702-0.642 1.63-3.021-0.083-2.75-0.554-4.881-0.93999-4.256-0.393 0.635-0.932 0.184-0.932-0.779 0-0.98 0.841-1.769 1.583-1.484 0.43 0.16499 0.531-0.116 0.522-1.46l-0.01-1.664-0.883 1.003c-0.96899 1.101-1.918 1.047-1.918-0.11 0-1.086-0.506-0.86-1.164 0.518-1.109 2.325-1.984 1.24-1.3-1.612 0.295-1.226 0.317-1.912 0.07-2.158-0.617-0.617-0.946 4.787-0.423 6.964 0.246 1.029 0.357 2.43 0.246 3.115-0.11 0.684-0.065 1.688 0.101 2.23s0.57 1.928 0.896 3.08l0.594 2.096 0.468-1.113c0.312-0.743 0.797-1.191 1.46-1.35zm229.06 1.27c0-0.388-0.14-0.705-0.311-0.705-0.172 0-0.395 0.317-0.497 0.705-0.12 0.459-0.01 0.706 0.312 0.706 0.273 0 0.496-0.318 0.496-0.706zm-18.117-2.65c0.213-0.555-0.428-1.583-0.987-1.583-0.556 0-0.749 1.045-0.295 1.592 0.557 0.67 1.022 0.667 1.282-0.01zm17.31-0.807c0.24-0.153 0.339-0.614 0.224-1.053-0.224-0.857-0.828-1.072-0.828-0.295 0 0.267-0.357 0.735-0.794 1.04l-0.793 0.553 0.882 0.013c0.485 7e-3 1.074-0.109 1.31-0.258zm1.386-4.582c-0.817-0.817-1.167-0.214-0.38 0.656 0.42 0.465 0.716 0.582 0.803 0.32 0.076-0.228-0.114-0.667-0.423-0.976zm-1.216-3.306c-1.2-1.12-1.616-1.328-2.005-1.005-0.27 0.224-0.402 0.638-0.294 0.92 0.155 0.404 0.304 0.423 0.705 0.09 0.412-0.342 0.721-0.21 1.617 0.68499 0.609 0.61 1.194 1.021 1.3 0.915 0.105-0.106-0.49-0.828-1.323-1.605zm-261.95 0.209c0.117-0.304 0.053-0.712-0.142-0.907-0.236-0.236-0.41-0.053-0.527 0.553-0.188 0.98399 0.324 1.254 0.67 0.354zm8.585-3.668c0-0.187-0.33-0.517-0.732-0.732-0.67-0.359-0.699-0.33-0.34 0.34 0.402 0.753 1.072 0.998 1.072 0.392zm2.464-6.795c4e-3 -0.14-0.405-0.1-0.906 0.091-0.501 0.19-1.057 0.257-1.235 0.147-0.443-0.274-0.405 0.073 0.097 0.87699 0.41 0.656 0.441 0.653 1.229-0.093 0.445-0.421 0.811-0.881 0.815-1.022zm-3.19-1.016c-0.3-0.56-0.498-0.644-0.803-0.339-0.305 0.306-0.275 0.488 0.121 0.739 0.856 0.54 1.107 0.393 0.682-0.4zm232.15-2.256c-0.241-0.29-0.597-0.529-0.792-0.529-0.196 0-0.158 0.234 0.087 0.53 0.241 0.29 0.598 0.529 0.792 0.529 0.197 0 0.158-0.234-0.087-0.53zm-206.75-1.133c2.125-0.97 2.478-1.442 2.487-3.327 4e-3 -0.796-0.137-0.926-0.965-0.882-1.323 0.07-4.322 3.03-4.322 4.267 0 1.125 0.218 1.12 2.8-0.058zm207.26-2.54c0.11-0.177 0.635-0.202 1.168-0.056 0.774 0.212 1.13 0.094 1.77-0.587 0.605-0.643 1.037-0.802 1.763-0.65 1.24 0.26 2.201-0.287 1.585-0.90299-0.34-0.34-0.608-0.337-1.263 0.014-0.457 0.244-1.055 0.39999-1.33 0.34399-0.274-0.055-1.045 0.19-1.712 0.545-1.165 0.618-1.262 0.619-2.373 0.02-0.946-0.509-1.256-0.541-1.696-0.176-0.748 0.62-0.673 1.034 0.256 1.407 1.048 0.422 1.59 0.434 1.832 0.042zm-217.28-0.713c-0.128-0.207-0.501-0.371-0.83-0.365-0.523 0.01-0.513 0.074 0.084 0.526 0.725 0.548 1.13 0.46 0.746-0.16zm10.48-2.295c1.725-1.441 2.03-1.87 2.03-2.87 0-1.553-1.226-2.753-3.36-3.29-0.916-0.23-1.717-0.368-1.78-0.305-0.237 0.236-0.467 7.925-0.261 8.711 0.21 0.806 0.225 0.808 0.779 0.134 0.31-0.377 1.477-1.449 2.593-2.38zm215.96 1.34c0.307-0.80099 0.049-0.95799-1.1-0.66999-0.948 0.238-0.96 0.268-0.303 0.74799 0.882 0.645 1.13 0.63 1.402-0.079zm4.597-0.35799c0.153-0.61 0.06-1.112-0.265-1.437-0.432-0.432-0.531-0.348-0.724 0.62-0.361 1.803 0.553 2.557 0.99 0.817zm6.192 0.23099c-1e-3 -0.19433-0.15866-0.35144-0.353-0.35199-0.19434 5.5e-4 -0.3519 0.15766-0.353 0.35199 0 0.194 0.159 0.353 0.353 0.353 0.19473-5.5e-4 0.35245-0.15827 0.353-0.353zm-252.43-3.915c1.178-0.695 1.538-1.328 1.038-1.828-0.23-0.23-1.898 0.717-2.335 1.325-0.285 0.397-0.363 1.243-0.114 1.243 0.086 0 0.72-0.333 1.41-0.74zm225.09-2.122c0-0.888 0.218-1.877 0.484-2.198 0.304-0.366 0.34-0.584 0.097-0.584-0.214 0-0.648 0.397-0.966 0.882-0.395 0.603-0.9 0.882-1.596 0.882-0.77 0-1.017 0.165-1.017 0.682 0 0.375 0.302 0.777 0.673 0.895 0.37 0.117 0.766 0.457 0.88 0.755 0.115 0.298 0.487 0.488 0.827 0.421 0.482-0.094 0.618-0.477 0.618-1.735zm26.75-1.812c-0.157-0.437-0.263-1.385-0.236-2.108l0.05-1.315-1.376 1.432c-0.756 0.787-1.375 1.544-1.375 1.682s0.51599 0.42 1.146 0.627c1.873 0.615 2.111 0.572 1.79-0.318zm-23.928-0.617c-0.12-0.194-0.376-0.353-0.57-0.353s-0.255 0.159-0.135 0.353 0.377 0.352 0.57 0.352c0.195 0 0.255-0.158 0.135-0.352zm45.604-0.42c-0.218-0.653-0.977-0.762-0.977-0.139 5.5e-4 0.30811 0.24989 0.5579 0.558 0.559 0.308 0 0.496-0.189 0.42-0.42zm-39.592-0.615c-0.128-0.207-0.401-0.376-0.607-0.376-0.234 0-0.208 0.202 0.07 0.537 0.484 0.583 0.917 0.453 0.537-0.161zm37.228-1.15c0.428-0.144 0.431-0.26 0.025-0.752-0.57-0.69-0.296-1.65 0.469-1.65 0.78 0 0.664-0.618-0.167-0.882-0.389-0.123-0.924-0.64-1.19-1.147-0.442-0.84299-0.502-0.86399-0.695-0.24-0.117 0.375-0.284 2.002-0.372 3.616l-0.16 2.934 0.793-0.855c0.436-0.46999 1.02-0.93099 1.297-1.024zm-244.7 0.92499c0.304-0.30499 0.56-0.82099 0.57-1.147 9e-3 -0.325 0.068-1.927 0.131-3.558 0.115-2.934 0.109-2.957-0.526-2.117-0.87399 1.157-1.618 0.51-0.99199-0.862 0.55-1.206 0.399-1.32-1.125-0.842-0.987 0.309-1.338 0.66-1.65 1.65-0.239 0.758-0.268 1.386-0.074 1.583 0.377 0.382-0.236 1.261-0.88 1.261-0.303 0-0.22 0.66 0.29 2.293l0.714 2.293h1.494c0.887 0 1.718-0.225 2.047-0.554zm218.18-1.386c0.013-0.665-7e-3 -0.669-0.36-0.064-0.36 0.62-0.388 0.62-0.842 0-0.258-0.352-0.6-0.504-0.762-0.338-0.162 0.167 0.064 0.543 0.5 0.836 0.437 0.294 0.805 0.79199 0.819 1.108 0.035 0.814 0.626-0.59999 0.645-1.542zm-35.883 0.1c-0.253-0.253-0.418-0.274-0.418-0.053 0 0.47 0.418 0.888 0.653 0.653 0.1-0.1-6e-3 -0.37-0.235-0.6zm32.518-0.1c0.124-0.322 0-0.53-0.315-0.53-0.28917 4e-3 -0.52078 0.24082-0.518 0.53 0 0.29 0.142 0.529 0.315 0.529s0.407-0.238 0.518-0.53zm-237.55-1.828c0-0.449-0.098-0.47-0.525-0.116-0.289 0.24-0.437 0.58-0.328 0.755 0.278 0.45 0.853 0.02 0.853-0.64zm48.572-0.179c-0.113-0.281-0.196-0.197-0.213 0.214-0.016 0.371 0.068 0.58 0.185 0.463 0.117-0.118 0.13-0.422 0.028-0.677zm179.11-0.485c0.116-0.303 0.37-0.453 0.564-0.334 0.194 0.12 0.602 0.079 0.907-0.092 0.502-0.281 0.503-0.353 3e-3 -0.768-0.716-0.594-0.7-1.6 0.047-2.863 0.6-1.016 0.483-1.663-0.222-1.227-0.207 0.128-0.377 0.54-0.377 0.918 0 0.525-0.245 0.684-1.058 0.684-0.8 0-1.058 0.162-1.058 0.663 0 0.364-0.236 0.858-0.525 1.098-0.45999 0.38099-0.43499 0.56199 0.2 1.454 0.818 1.149 1.211 1.27 1.52 0.467zm5.452-0.208c0.18-0.469 2.148-1.414 2.496-1.199 0.371 0.23 1.275-0.79399 0.97-1.099-0.12-0.12-0.458-0.019-0.751 0.225-0.34199 0.284-0.97999 0.36-1.773 0.21-1.087-0.203-1.238-0.144-1.238 0.48699 0 0.395-0.318 0.917-0.706 1.16-0.388 0.241-0.706 0.571-0.706 0.731 0 0.371 1.547-0.095 1.708-0.515zm-8.058-1.004c0-0.194-0.131-0.353-0.293-0.353-0.161 0-0.511-0.43699-0.778-0.96999-0.822-1.643-1.48-2.288-1.808-1.772-0.507 0.8-0.313 1.597 0.436 1.793 0.403 0.105 0.818 0.52 0.923 0.92299 0.191 0.73 1.52 1.06 1.52 0.379zm8.625-4.97c-0.11465-0.18335-0.35565-0.24003-0.54-0.127-0.1837 0.11432-0.24084 0.35539-0.128 0.54 0.11432 0.1837 0.35539 0.24084 0.54 0.128 0.1837-0.11432 0.24084-0.35539 0.128-0.54zm-212.29-0.706c0.838-0.406 1.523-0.942 1.523-1.192s0.357-0.695 0.794-0.988c1.001-0.674 0.758-0.929-0.678-0.71-0.81999 0.125-1.232 0.444-1.542 1.193-0.233 0.563-0.581 1.023-0.774 1.023-0.36 0-0.219-1.468 0.247-2.558 0.157-0.367 0.112-0.617-0.113-0.617-0.342 0-0.628 0.822-1.257 3.616-0.262 1.164-0.152 1.178 1.8 0.233zm203.29 0.239c0.295-0.356 0.303-0.566 0.027-0.736-0.468-0.29-1.483 0.482-1.211 0.921 0.28 0.452 0.71 0.385 1.184-0.185zm19.781-1.29c0-0.775-0.752-1.739-1.335-1.712-0.368 0.017-0.432 0.097-0.164 0.206 0.242 0.098 0.44 0.455 0.44 0.795s0.107 0.723 0.236 0.852c0.36 0.36 0.823 0.28 0.823-0.14zm-30.339-0.494c0-0.316-0.207-0.439-0.529-0.315-0.29 0.111-0.529 0.345-0.529 0.518s0.238 0.315 0.53 0.315c0.29 0 0.528-0.233 0.528-0.518zm24.342-0.893c0-0.838-0.541-0.937-0.842-0.154-0.116 0.303-0.37 0.453-0.564 0.333s-0.631-0.055-0.972 0.144c-0.494 0.287-0.316 0.363 0.879 0.372 1.267 9e-3 1.499-0.099 1.499-0.695zm-219.75-2.723c-0.321-0.552-0.367-0.517-0.377 0.283-6e-3 0.50099 0.109 1.031 0.254 1.178 0.424 0.427 0.525-0.77 0.123-1.461zm29.952-2.057c0-0.348-2.245-1.146-2.716-0.965-0.82 0.314-0.485 0.826 0.397 0.604 0.47-0.118 1.146-0.046 1.5 0.16 0.758 0.44 0.819 0.455 0.819 0.201zm189.09-0.512c0-0.194-0.149-0.353-0.332-0.353-0.182 0-0.43 0.16-0.55 0.353-0.12 0.194 0.03 0.353 0.332 0.353 0.303 0 0.55-0.159 0.55-0.353zm-2.822-0.518c0-0.315-0.207-0.439-0.527-0.316-0.29 0.111-0.44 0.345-0.332 0.518 0.308 0.498 0.86 0.369 0.86-0.202zm1.861-0.332c0.582-0.442 0.564-0.487-0.264-0.646-0.695-0.132-0.891-0.025-0.891 0.487 0 0.77 0.295 0.811 1.155 0.159zm-188.66-1.62c-0.12-0.193-0.367-0.352-0.55-0.352-0.182 0-0.332 0.159-0.332 0.353s0.248 0.352 0.55 0.352c0.303 0 0.452-0.158 0.332-0.352zm185.03-0.219c0-0.469-0.095-0.493-0.529-0.133-0.29 0.241-0.529 0.499-0.529 0.572 0 0.074 0.238 0.133 0.53 0.133 0.29 0 0.528-0.257 0.528-0.572zm-209.65-4.72c0.397 0 0.932-0.251 1.188-0.56 0.4-0.482 0.369-0.544-0.222-0.44-0.6 0.104-0.682-0.08-0.65-1.469 0.021-0.873 0.159-1.944 0.307-2.38 0.42-1.245-0.743-1.01-1.412 0.284-0.46599 0.902-0.73699 1.06-1.654 0.97-1.166-0.115-1.248 0.011-1.797 2.802-0.213 1.083-0.168 1.147 0.804 1.147 0.565 0 1.133 0.16899 1.26 0.37499 0.154 0.25 0.438 0.19 0.843-0.176 0.335-0.30399 0.93499-0.55199 1.333-0.55199zm26.272-0.881c0.802-1.02 1.236-1.092 2.063-0.344 0.53299 0.482 0.64099 0.482 1.041 0 0.246-0.296 0.75-0.538 1.12-0.538s0.775-0.278 0.9-0.617c0.123-0.34 0.605-1.078 1.069-1.642 0.658-0.797 0.742-1.087 0.38-1.313-0.306-0.192-0.505-0.085-0.587 0.318-0.185 0.904-1.132 1.843-1.858 1.843-0.844 0-1.474-1.238-1.285-2.526 0.083-0.568 0.019-1.115-0.143-1.215-0.161-0.1-0.29399-0.023-0.29399 0.17s-0.595 0.916-1.323 1.605c-1.32 1.251-2.289 1.531-3.232 0.934-0.335-0.212-0.822-0.076-1.485 0.414-1.083 0.8-1.833 0.522-2.266-0.844-0.152-0.477-0.347-0.587-0.631-0.352-0.226 0.187-0.882 0.394-1.457 0.46-0.943 0.107-1.05 0.25-1.09 1.446-0.024 0.73 0.14 1.479 0.364 1.665s1.48 0.432 2.789 0.545c1.31 0.114 2.727 0.347 3.151 0.518 1.314 0.529 2.054 0.389 2.774-0.527zm182.68-6.185c0-0.422-0.995-0.875-1.285-0.585-0.31 0.309 0.215 0.949 0.776 0.949 0.28 0 0.509-0.164 0.509-0.364zm-186.59-3.128c-0.855-1.2-0.932-2.005-0.229-2.4 0.539-0.302 0.908-1.987 0.468-2.134-0.146-0.048-0.725-0.088-1.289-0.088-0.82 0-1.097 0.21-1.392 1.058-0.423 1.214-1.092 1.387-1.362 0.353-0.328-1.253-0.737-0.751-0.862 1.059-0.067 0.97-0.054 1.764 0.03 1.764 0.082 0 0.672-0.19 1.31-0.42 1.009-0.365 1.255-0.33 1.913 0.264 0.414 0.376 1.008 1.16 1.317 1.742 0.441 0.829 0.593 0.925 0.695 0.444 0.073-0.338-0.197-1.077-0.6-1.642zm190.45 0.465c-0.229-0.275-0.705-0.5-1.057-0.5-0.353 0-0.74-0.16-0.86-0.354-0.33-0.534-1.796-0.421-2.293 0.177-0.242 0.29-0.905 0.529-1.475 0.529s-0.961 0.12-0.87 0.265c0.092 0.145 1.697 0.29099 3.569 0.32399 2.903 0.052 3.341-0.013 2.986-0.43999zm7.608-0.148c0.12-0.194 0.526-0.353 0.903-0.353 0.519 0 0.68499-0.245 0.68499-1.015 0-1.205-0.85699-2.137-1.183-1.287-0.246 0.641-1.676 0.713-2.275 0.115-0.329-0.33-0.517-0.33-0.846 0-0.233 0.233-0.704 0.423-1.048 0.423-0.41 0-0.554 0.182-0.42 0.53 0.111 0.29 0.478 0.529 0.816 0.529 0.337 0 0.9 0.317 1.251 0.705 0.682 0.754 1.759 0.93299 2.117 0.353zm-193.66-0.571c0.736-0.482 1.037-0.502 1.939-0.129 1.288 0.534 1.604 0.316 0.984-0.677-0.692-1.109-3.186-1.045-3.937 0.102-0.304 0.463-0.454 0.939-0.335 1.058 0.304 0.304 0.37 0.287 1.349-0.354zm-25.747-2.185c-0.124-0.39-0.659-1.256-1.19-1.923l-0.96399-1.214-0.632 0.84c-0.9 1.192-0.647 2.38 0.535 2.516 0.51899 0.06 1.14 0.345 1.378 0.633 0.568 0.684 1.173 0.093 0.873-0.852zm47.428 0.287c0-0.194-0.357-0.35-0.794-0.348-0.642 4e-3 -0.692 0.071-0.264 0.348 0.683 0.442 1.058 0.442 1.058 0zm156.99-1.94c0-0.292-0.159-0.53-0.353-0.53s-0.353 0.238-0.353 0.53c0 0.29 0.16 0.528 0.353 0.528 0.194 0 0.353-0.238 0.353-0.529zm-158.57-1.315c0.236-0.235 0.06-0.267-0.529-0.097-0.485 0.14-1.04 0.415-1.235 0.609-0.235 0.235-0.058 0.267 0.53 0.097 0.485-0.14 1.04-0.415 1.234-0.609zm173.04-0.429c0-0.085-0.159-0.253-0.353-0.373s-0.353-0.05-0.353 0.155c0 0.206 0.16 0.374 0.353 0.374 0.194 0 0.353-0.07 0.353-0.156zm-182.13-0.41c-0.117-0.117-0.422-0.13-0.676-0.028-0.282 0.113-0.198 0.196 0.213 0.213 0.372 0.015 0.58-0.068 0.463-0.185zm167.14-1.198c0.29-0.47 1.837-0.452 2.133 0.026 0.15 0.243 0.534 0.098 1.068-0.404 1.069-1.004 0.865-1.29-0.92-1.29-1.073 0-1.577-0.19299-1.97-0.75299-0.29-0.415-0.759-0.754-1.042-0.754s-0.846-0.516-1.252-1.147c-0.406-0.63-0.625-0.829-0.486-0.44 0.648 1.813 0.897 3.04 0.687 3.38-0.127 0.205 0.064 0.67 0.423 1.033 0.756 0.763 1.055 0.84 1.359 0.349zm-186.27-0.706c0.12-0.194 0.05-0.352-0.155-0.352-0.206 0-0.374 0.158-0.374 0.352s0.07 0.353 0.156 0.353c0.085 0 0.253-0.159 0.373-0.353zm195.26 0.01c0.805-0.51 0.06-0.992-1.878-1.216-1.872-0.217-2.137 0.30799-0.56 1.113 1.021 0.521 1.728 0.551 2.438 0.102zm-176.03-1.068c0-0.194-0.248-0.353-0.55-0.353-0.303 0-0.452 0.159-0.332 0.353 0.12 0.19399 0.367 0.35199 0.55 0.35199 0.182 0 0.332-0.158 0.332-0.35199zm154.86-7.695c-0.165-0.06-0.81699 0.158-1.45 0.485-1.091 0.565-1.115 0.619-0.48 1.083 0.597 0.437 0.752 0.385 1.45-0.484 0.42899-0.536 0.64499-1.023 0.47999-1.084zm14.358-1.154 0.993-0.382-1.411-1.2c-0.776-0.66-1.62-1.203-1.875-1.206-0.634-7e-3 -0.406 2.155 0.287 2.718 0.66 0.536 0.783 0.54 2.006 0.07zm-15.235-0.676c-0.12-0.194-0.377-0.35299-0.57-0.35299-0.195 0-0.255 0.15899-0.136 0.35299 0.12 0.194 0.377 0.352 0.571 0.352s0.255-0.158 0.135-0.352zm9.288-0.86399c0.134-1.137-0.448-1.944-1.002-1.39-0.461 0.462-0.026 2.675 0.492 2.505 0.217-0.071 0.446-0.57299 0.51-1.115zm-10.875-0.632c0-0.372-0.266-0.621-0.663-0.621-0.364 0-0.842-0.216-1.061-0.481-0.22-0.265-1.043-0.481-1.83-0.481-1.05 0-1.326 0.104-1.037 0.393 0.216 0.216 0.98 0.393 1.698 0.393 1.212 0 1.313 0.08 1.415 1.136 0.1 1.027 0.175 1.095 0.794 0.709 0.376-0.235 0.684-0.707 0.684-1.048zm5.006-4.062c0.595-2.37 0.594-2.382-0.176-2.99-0.857-0.674-2.896-0.833-3.255-0.253-0.238 0.385 2.185 5.627 2.6 5.625 0.129-1e-3 0.503-1.073 0.831-2.382zm3.71-0.138c-0.17-1.271-0.666-2.042-1.325-2.06-0.2-5e-3 -0.045 2.295 0.206 3.081 0.078 0.243 0.406 0.441 0.728 0.441 0.484 0 0.553-0.255 0.39-1.462zm-8.514 0.094c-0.262-0.424-1.614-0.752-1.614-0.392 0 0.319 0.622 0.63 1.344 0.674 0.254 0.015 0.376-0.112 0.27-0.282zm-3.025-0.572c0-0.304-0.318-0.53-0.748-0.53-0.626 0-0.677 0.088-0.31 0.53 0.242 0.291 0.578 0.53 0.749 0.53 0.17 0 0.31-0.239 0.31-0.53zm-5.652-3.616c-4e-3 -0.145-0.297-0.63999-0.65-1.099-0.613-0.797-0.686-0.81-1.667-0.279l-1.027 0.556 0.927 0.014c0.51 8e-3 1.125 0.252 1.367 0.54299 0.464 0.56 1.063 0.71 1.05 0.265zm3.443-3.16c0.078-0.234-0.459-0.677-1.193-0.984-0.734-0.306-1.618-0.814-1.965-1.128-0.358-0.324-0.63-0.4-0.63-0.176 0 0.216 0.253 0.598 0.561 0.848 0.309 0.25 0.90399 0.798 1.323 1.216 0.816 0.816 1.673 0.917 1.904 0.224zm-143.16-3.684c1.943-1.207 2.296-1.575 0.906-0.941-0.646 0.294-1.11 0.298-1.731 0.015-0.755-0.344-0.874-0.292-1.066 0.472-0.118 0.473-0.41 0.862-0.65 0.865-0.28 3e-3 -0.246 0.127 0.095 0.348 0.291 0.188 0.559 0.344 0.594 0.347 0.036 3e-3 0.87-0.495 1.852-1.106zm139.28-0.522c1.167-0.313 0.966-0.714-0.353-0.705-0.63 4e-3 -1.443-0.127-1.805-0.292-0.586-0.266-0.614-0.216-0.252 0.46 0.416 0.778 1.014 0.911 2.41 0.537zm-8.026-1.37c0-0.247-0.238-0.54-0.529-0.652-0.31599-0.121-0.52999-0.652-0.52999-1.316 0-0.928-0.083-1.042-0.507-0.69-0.28 0.231-0.938 0.37-1.464 0.307-0.937-0.111-1.264-0.463-1.745-1.877l-0.24-0.706-0.29 0.706c-0.556 1.352-0.356 2.104 0.721 2.717 0.581 0.33 1.056 0.847 1.056 1.147 0 0.339 0.318 0.545 0.84 0.545 0.46 0 1.037 0.24 1.28 0.534 0.337 0.406 0.559 0.437 0.92599 0.133 0.265-0.22 0.482-0.602 0.482-0.849zm-8.466-1.074c0-0.303-0.16-0.452-0.353-0.332-0.194 0.12-0.353 0.367-0.353 0.55 0 0.182 0.159 0.332 0.353 0.332s0.353-0.248 0.353-0.55zm12.952-0.408c-0.324-0.32299-0.711-0.46499-0.86-0.31499-0.15 0.15 0.032 0.49599 0.406 0.76899 0.88 0.644 1.216 0.309 0.454-0.454zm-15.944-0.18899c0.265-0.598 0.623-0.782 1.455-0.746 1.1 0.048 1.103 0.042 0.76-1.202-0.34634-1.2226-0.2634-2.5271 0.235-3.696 0.373-0.872-0.923-0.828-1.725 0.059-0.496 0.548-0.535 0.82-0.206 1.434 0.32299 0.604 0.28999 0.935-0.156 1.617-0.31 0.472-0.762 0.859-1.005 0.859-0.64 0-1.658-1.302-1.658-2.121 0-1.146-1.052-0.804-1.606 0.522-0.66 1.579-0.663 1.558 0.371 1.951 0.485 0.185 0.882 0.553 0.882 0.82 0 0.457 1.167 1.221 1.945 1.273 0.196 0.013 0.515-0.333 0.708-0.76999zm-113.42 0.28599c0-0.086-0.15899-0.25399-0.35299-0.37399s-0.353-0.05-0.353 0.156c0 0.20499 0.16 0.37299 0.353 0.37299 0.194 0 0.35299-0.07 0.35299-0.155zm125.06-2.314c-0.12-0.194-0.447-0.353-0.727-0.353s-0.50799 0.159-0.50799 0.353 0.32699 0.352 0.72599 0.352c0.4 0 0.629-0.158 0.509-0.352z" style="stroke-width:.35278"/>
	<path d="m617.92 295.34-17.002-16.23-4.432-0.19534c-23.433-1.0238-40.674-9.1743-51.554-24.37-6.528-9.118-10.491-20.557-12.059-34.812-0.45275-4.116-0.45275-16.557 0-20.673 2.4912-22.648 11.162-38.563 26.498-48.636 7.954-5.2249 19.213-8.9434 30.401-10.04 1.9236-0.18845 4.7515-0.47112 6.2855-0.62855 3.5415-0.36311 6.1166-0.36081 9.6248 7e-3 1.5329 0.16088 4.3619 0.44585 6.2844 0.632 15.425 1.503 28.769 7.1852 38.357 16.334 4.802 4.5814 8.3125 9.4719 11.512 16.032 5.0606 10.376 7.5805 22.504 7.5909 36.517 0.0183 27.839-9.9603 48.825-28.52 59.98l-2.4786 1.4892 10.313 7.993 10.314 7.9942-8.1643 8.3918c-4.4906 4.6159-9.9212 10.204-12.067 12.418l-3.9023 4.0252zm-13.015-47.943c14.235-1.4995 22.715-10.142 25.441-25.927 1.1904-6.8911 1.1928-17.141 7e-3 -23.978-2.1718-12.522-8.1849-20.902-17.412-24.27-6.4291-2.3464-14.428-2.682-21.412-0.89859-9.0433 2.3085-15.197 8.3849-18.512 18.277-3.4817 10.395-3.5174 27.061-0.0805 37.476 1.8213 5.5156 4.9778 10.445 8.6262 13.472 5.5696 4.6216 14.279 6.8026 23.343 5.8488zm-136.9 31.445c-0.66877-0.0666-2.721-0.26314-4.5607-0.43665-13.061-1.2353-28.877-5.6592-42.474-11.882-3.9368-1.8006-11.304-5.7742-12.063-6.5061-0.35507-0.34128 0.80207-2.3866 7.4174-13.123 4.3114-6.9956 7.939-12.834 8.062-12.973 0.12409-0.14018 2.4636 0.84114 5.1996 2.181 10.92 5.3467 23.547 9.6121 34.466 11.641 4.725 0.87905 11.991 0.95834 15.168 0.16777 5.4099-1.3467 8.3814-4.1689 8.3814-7.9597 0-4.0976-3.1945-6.914-10.661-9.4018-1.7374-0.578-6.7164-2.0282-11.063-3.2209-23.246-6.3786-34.918-11.609-42.92-19.236-3.6656-3.4932-6.0994-6.7382-8.0137-10.685-4.5504-9.3766-4.8503-21.224-0.79747-31.36 5.5328-13.838 19.139-23.094 37.441-25.473 10.092-1.3111 11.685-1.3123 23.867-0.0172 11.709 1.2456 25.974 4.8928 37.699 9.6408 3.1761 1.2858 8.9502 3.8816 9.6742 4.3504 0.0529 0.0345-3.5737 6.0304-8.0574 13.324-5.8454 9.5087-8.2815 13.224-8.609 13.127-0.2505-0.0736-1.9615-0.77219-3.8-1.5513-1.8397-0.78137-5.9442-2.289-9.1215-3.3519-19.463-6.5142-32.555-7.5725-39.465-3.1899-1.9822 1.2571-3.0324 2.9716-3.1945 5.2123-0.17236 2.3809 0.50444 4.1218 2.2143 5.6983 2.6693 2.459 5.9442 3.7024 18.555 7.0439 10.755 2.8497 15.938 4.47 22.036 6.8865 10.059 3.9873 16.917 8.0057 22.08 12.942 3.723 3.5599 5.5466 5.9913 7.5759 10.107 3.6576 7.4162 4.6423 15.98 2.8589 24.85-1.4892 7.4059-4.8526 13.64-10.304 19.094-7.1703 7.1726-17.049 11.641-29.943 13.544-2.9049 0.42861-15.056 0.81011-17.648 0.555zm264.81-0.15627c-15.94-1.3077-27.538-5.727-35.831-13.655-7.746-7.4059-12.088-17.34-14.081-32.224-0.45159-3.3668-0.52283-8.7652-0.62396-47.352l-0.1149-43.553h37.121l3e-3 42.64c3e-3 45.038 0.015 45.526 1.3881 50.089 2.2752 7.5667 8.0551 11.816 17.381 12.782 9.0755 0.94111 16.849-1.1502 21.239-5.7121 1.7144-1.7811 3.8414-6.0913 4.5148-9.1479 0.948-4.3056 1.0664-9.8281 1.0732-50.139l6e-3 -40.512h36.811l-0.10572 44.159c-0.11376 47.832-0.0425 45.66-1.773 54.182-4.4814 22.068-18.588 34.444-43.141 37.845-6.4728 0.89628-16.99 1.1594-23.867 0.59522zm366.2 0.1333c-14.161-1.387-24.703-5.9844-33.328-14.536-11.355-11.26-17.111-26.509-18.395-48.729-0.8905-15.423 1.4192-31.215 6.2591-42.792 3.052-7.3024 6.7084-12.817 12.002-18.104 7.7265-7.7161 17.563-12.511 28.914-14.095 9.2697-1.2927 9.5835-1.295 20.357-0.14709 8.8192 0.93882 19.538 3.9414 30.47 8.5377 3.6115 1.5191 19.538 9.3926 20.066 9.9212 0.1448 0.14594-3.4886 6.2591-8.1906 13.782l-8.4527 13.52-7.1669-3.5162c-26.646-13.069-41.723-12.989-50.298 0.26774-7.4221 11.471-8.3689 34.796-2.0041 49.365 0.8791 2.0109 3.1083 5.4007 4.663 7.0876 3.8035 4.1252 9.4834 6.5015 15.543 6.4992 8.4228-3e-3 18.216-2.975 31.976-9.7006l7.299-3.5679 8.4538 13.541c7.8357 12.55 8.4137 13.571 7.9012 13.945-0.3033 0.22293-4.5194 2.374-9.3686 4.7825-17.446 8.6607-29.842 12.561-43.932 13.824-3.2485 0.29187-10.315 0.35506-12.77 0.11491zm-294.79-2.6107c0.0977-0.3769 11.251-30.715 24.782-67.419l24.604-66.734 40.948-0.1472 24.779 67.231c13.628 36.976 24.824 67.348 24.879 67.492 0.0575 0.14479-8.9008 0.26084-20.065 0.25854l-20.166-3e-3 -3.345-11.169-3.3439-11.169-46.338-0.1563-0.90778 2.9658a1637.2 1637.2 0 0 0-3.0704 10.263 1264.7 1264.7 0 0 1-2.4728 8.2849l-0.31141 0.98822h-40.15zm77.508-73.423a20652 20652 0 0 1-7.2772-24.346c-0.26085-0.88939-0.51825-1.5742-0.57224-1.5191-0.054 0.054-3.2611 10.838-7.1289 23.964a9463.6 9463.6 0 0 1-7.1611 24.246c-0.10342 0.30106 2.9095 0.38035 14.405 0.38035h14.536zm88.682 22.269v-51.836h-38.308v-31.315h113.1v31.315h-37.7v103.67h-37.093zm205.22-15.657v-67.494h37.092v48.949h44.996v-48.949h37.093v134.99h-37.093v-55.638h-44.996v55.638h-37.092z" style="stroke-width:.30403"/>
	<g style="stroke-width:.19501" aria-label="BUILT BY">
		<path d="m440.47 38.137q7.114 0 11.888 1.6849 4.8675 1.5913 7.3013 5.2419 2.5274 3.6506 2.5274 9.4542 0 4.1187-1.3105 7.2077-1.2169 3.089-3.6506 5.0547-2.4338 1.9657-5.9908 2.7146v0.46803q3.8378 0.74885 6.646 2.621 2.9018 1.8721 4.4931 5.1483 1.5913 3.1826 1.5913 8.1437 0 5.9908-2.4338 10.297-2.4338 4.3059-6.9268 6.5524-4.3995 2.2465-10.671 2.2465h-20.219v-66.835zm1.0297 28.55q6.8332 0 9.5478-2.8082 2.7146-2.9018 2.7146-8.5181 0-5.2419-3.1826-7.6757-3.1826-2.5274-9.8286-2.5274h-8.799v21.529zm-9.5478 6.8332v24.431h10.765q6.8332 0 9.735-3.3698 2.9018-3.3698 2.9018-9.267 0-3.6506-1.4041-6.2716-1.3105-2.621-4.2123-4.0251-2.9018-1.4977-7.6757-1.4977z" style="stroke-width:.19501"/>
		<path d="m519.38 82.319q0 7.2077-2.4338 12.543-2.4338 5.2419-7.3949 8.1437-4.8675 2.9018-12.262 2.9018-10.671 0-16.287-6.2716-5.5228-6.2716-5.5228-17.411v-44.088h8.2373v44.369q0 7.9565 3.4634 12.075 3.4634 4.0251 10.39 4.0251 4.7739 0 7.6757-1.8721 2.9954-1.9657 4.3995-5.6164 1.4977-3.6506 1.4977-8.7053v-44.276h8.2373z" style="stroke-width:.19501"/>
		<path d="m551.77 104.97h-21.81v-4.7739l6.8332-1.6849v-53.917l-6.8332-1.6849v-4.7739h21.81v4.7739l-6.8332 1.6849v53.917l6.8332 1.6849z" style="stroke-width:.19501"/>
		<path d="m563 104.97v-66.835h8.2373v59.44h23.776v7.3949z" style="stroke-width:.19501"/>
		<path d="m620.94 104.97h-8.1437v-59.533h-16.943v-7.3013h41.935v7.3013h-16.849z" style="stroke-width:.19501"/>
		<path d="m683.94 38.137q7.114 0 11.888 1.6849 4.8675 1.5913 7.3013 5.2419 2.5274 3.6506 2.5274 9.4542 0 4.1187-1.3105 7.2077-1.2169 3.089-3.6506 5.0547t-5.9908 2.7146v0.46803q3.8378 0.74885 6.646 2.621 2.9018 1.8721 4.4931 5.1483 1.5913 3.1826 1.5913 8.1437 0 5.9908-2.4338 10.297-2.4338 4.3059-6.9268 6.5524-4.3995 2.2465-10.671 2.2465h-20.219v-66.835zm1.0297 28.55q6.8332 0 9.5478-2.8082 2.7146-2.9018 2.7146-8.5181 0-5.2419-3.1826-7.6757-3.1826-2.5274-9.8286-2.5274h-8.799v21.529zm-9.5478 6.8332v24.431h10.765q6.8332 0 9.735-3.3698 2.9018-3.3698 2.9018-9.267 0-3.6506-1.4041-6.2716-1.3105-2.621-4.2123-4.0251-2.9018-1.4977-7.6757-1.4977z" style="stroke-width:.19501"/>
		<path d="m734.3 70.525 13.76-32.388h8.7054l-18.44 40.906v25.929h-8.1437v-25.648l-18.44-41.187h8.799z" style="stroke-width:.19501"/>
	</g>
</svg>
