<svg width="1208.2" height="1210" viewBox="0 0 319.67 320.14" xmlns="http://www.w3.org/2000/svg"><path d="M150.55 319.81c-29.755-1.701-59.004-12.01-83.407-29.398-7.009-4.993-12.894-10.02-19.832-16.935-9.013-8.985-14.057-15.067-20.523-24.748C1.79 211.302-6.22 164.457 4.896 120.709c5.916-23.277 16.175-43.47 31.995-62.97 3.873-4.774 16.091-16.992 20.864-20.864 10.996-8.92 21.148-15.437 32.632-20.948 44.252-21.235 94.743-21.235 139 0 8.748 4.197 18.708 10.23 26.105 15.813 13.142 9.917 26.212 23.384 35.33 36.406 15.677 22.386 25.139 47.826 28.21 75.847.848 7.732.859 24.279.022 31.926-3.582 32.719-15.307 60.735-36.174 86.43-3.66 4.507-15.597 16.537-20.044 20.201-27.756 22.866-59.296 35.29-94.656 37.287-7.226.408-10.102.403-17.626-.027zm44.26-42.448c0-.836.204-1.126.99-1.405 1.113-.395 1.517-.042 1.884 1.645.269 1.234.931.869.69-.38-.099-.516-.066-1.572.074-2.348l.254-1.412 2.11-.041c1.162-.023 2.31.116 2.552.308.245.194.441 1.115.441 2.07 0 1.392.116 1.72.607 1.72.334 0 1.03.495 1.546 1.1l.939 1.1.747-.747c.411-.41 1.134-.747 1.607-.747.71 0 .879-.198.97-1.136.078-.8.391-1.292 1.061-1.666 1.139-.636 1.308-.506 1.589 1.223.21 1.297.192 1.324-.716 1.096-.888-.223-.912-.193-.527.654.265.58.69.887 1.23.887.454 0 .825.168.825.374 0 .205.156.277.346.16.217-.134.185-.477-.088-.924-.6-.983.313-1.615 2.78-1.923 1.27-.159 1.901-.4 1.901-.726 0-.269-.159-.488-.353-.488-.541 0-.418-1.623.16-2.103 1.066-.885 1.758-.372 2.834 2.103l.537 1.233-.19-1.856c-.252-2.45-.456-2.906-1.302-2.906-.976 0-3.45-1.438-3.45-2.006 0-.644.456-.583 2.121.285.79.412 1.52.666 1.622.565.102-.102.014-1.416-.195-2.92-.21-1.505-.302-2.816-.205-2.912.282-.283 1.242 2.287 1.255 3.36.006.54.32 1.352.698 1.805l.686.824 1.507-1.218c1.435-1.16 2.815-2.017 3.248-2.017.655 0-.015 1.003-1.133 1.696a27.713 27.713 0 0 0-2.472 1.764c-1.13.928-1.147.984-.705 2.26.57 1.648 1.195 1.701 1.042.088-.088-.931.038-1.277.53-1.452.354-.126.937-.482 1.295-.79.603-.52.703-.498 1.339.288.487.602.623 1.139.467 1.849-.164.745-.087 1 .3 1 .285 0 .61-.238.722-.529s.605-.53 1.096-.53c.98 0 1.203-.51.364-.832-.29-.112-.529-.61-.529-1.105 0-.637-.259-1-.882-1.237-1.016-.387-1.208-1.76-.346-2.475.438-.364.66-.333 1.215.17.373.338.728.955.787 1.372.06.416.227.717.373.668.392-.13.389-.273-.055-2.528-.314-1.595-.572-2.112-1.128-2.258-.907-.237-.809-1.918.146-2.498.513-.311.758-.245 1.235.334.327.397 1.111 1.027 1.742 1.399.63.372 1.146.8 1.146.953 0 .152.184.277.408.277.244 0 .173-.26-.177-.645-.32-.355-.583-.794-.583-.975s-.358-.486-.794-.678c-1.373-.602-.994-1.418.617-1.327 1.157.065 1.27.02.628-.25-1.058-.443-1.414-1.96-.657-2.795.482-.533.523-.913.235-2.191-.273-1.216-.236-1.716.173-2.34 1.047-1.6 2.724-.634 3.243 1.868.19.91.508 1.433.92 1.513 1.064.205 2.684-.677 2.912-1.586.203-.806 1.714-1.883 2.643-1.883.237 0 .708.25 1.046.557.561.508.696.504 1.527-.04 1.025-.672 1.207-1.95.376-2.64-.361-.3-.474-.802-.345-1.542.233-1.341-.042-1.772-1.412-2.219-.754-.245-1.09-.602-1.165-1.24-.09-.75.068-.93.97-1.11 1.148-.23 1.494-.938.46-.94-.883-.002-2.91-1.31-2.91-1.879 0-1.022 1.311-1.744 2.698-1.484 1.124.21 1.254.172.892-.264-.335-.404-.312-.604.109-.954.677-.562.685-1.062.017-1.062-.284 0-.702-.346-.93-.77-.351-.658-.292-.867.41-1.434.45-.366 1.116-.587 1.479-.492.376.098.742-.044.852-.33.276-.72 1.284-.619 2.373.238.645.507 1.076.632 1.37.396.237-.19 1.343-.416 2.459-.504 2.046-.162 2.709-.422 2.248-.883-.138-.138-.555-.061-.927.17-.668.418-1.762.255-1.762-.262 0-.147.302-.65.67-1.118.585-.745.608-.937.176-1.527-.708-.968-.61-1.986.212-2.201.502-.131.706-.481.706-1.213 0-1.584.968-1.705 2.155-.27.574.695.918 1.457.813 1.802-.14.46.111.653 1.081.835 1.072.201 1.39.1 2.11-.679.807-.87.822-.97.31-2-.529-1.057-.562-1.069-1.426-.503-1.106.725-1.771.241-1.183-.859.244-.454.744-.743 1.289-.743.555 0 .8-.145.651-.387-.131-.212-.035-.767.215-1.234.25-.466.346-.955.215-1.086s-1.388-.262-2.793-.29c-2.185-.045-2.573-.147-2.681-.707-.07-.36-.436-.905-.815-1.212-.444-.36-.606-.777-.454-1.173.358-.933 1.349-.735 2.221.444.67.906 1.014 1.059 2.383 1.059.88 0 1.924.173 2.32.385.521.279.827.279 1.106 0s.231-.385-.171-.385c-.306 0-.752-.235-.99-.522-.314-.379-.61-.427-1.078-.176-.995.532-1.933.412-2.61-.335-.762-.843-.49-1.862.758-2.844.995-.782.996-.777-.163-1.38-1.03-.535-1.01-1.234.047-1.716.947-.431 2.334.258 2.334 1.16 0 .273.318.666.706.874s.706.672.706 1.033c0 .36.26.755.58.878.815.313 1.13-.128.387-.544-.841-.47-.773-1.61.124-2.09.601-.322.88-.266 1.5.3.418.382 1.117.803 1.554.935 1.119.34 1.056-.677-.088-1.426-.486-.318-.882-.809-.882-1.09 0-.342-.222-.443-.667-.302-.678.216-3.214-1.036-3.214-1.585 0-.455-2.137-1.87-2.965-1.964l-1.004-.113c-.145-.016-.264-.202-.264-.414 0-.267.917-.308 2.998-.134 2.874.239 2.999.22 2.999-.478 0-.807 1.225-1.826 2.195-1.826.848 0 .796.944-.078 1.412-.388.207-.706.61-.706.894 0 .787 1.18.616 1.72-.25l.478-.766.657.855c.809 1.052.864.659.111-.796-.309-.598-.487-1.474-.397-1.948.24-1.256-1.237-1.79-2.223-.805-.787.787-2.11.938-2.11.24 0-.647.736-1.305 1.46-1.305.499 0 .577-.221.42-1.19-.256-1.57.19-1.778 2.41-1.119 1.01.3 1.909.545 1.998.545.09 0 .062-.96-.06-2.134-.241-2.304-1.016-3.7-2.23-4.016-.989-.257-2.465-2.58-1.96-3.084.249-.249.79-.072 1.72.563l1.357.926.56-3.448c.349-2.151.437-3.607.233-3.874-.179-.234-.955-.552-1.724-.705-1.901-.38-1.84-.923.144-1.285 2-.366 2.064-.523 2.175-5.318.046-1.985.211-3.816.368-4.069.177-.288.067-.581-.295-.784-.777-.435-.74-1.093.048-.843.546.174.609.007.486-1.299-.164-1.755-.539-2.088-2.042-1.813-.626.114-1.208.038-1.34-.175-.157-.255-.823-.152-2.056.316-1.277.486-1.933.581-2.188.32-.529-.539 1.058-1.733 2.303-1.733 1.085 0 2.8-.66 2.8-1.078 0-.142-.239-.35-.53-.461-.6-.23-.715-1.48-.169-1.817.198-.123.845.185 1.438.684 1.469 1.236 2.07 1.17 2.139-.239l.056-1.146.144 1.162c.159 1.286.364 1.298 3.01.173 1.52-.646 2.056-.403 1.2.542-.73.807-.75 1.162-.052.894.293-.112.762-.015 1.041.217.314.26.818.316 1.319.146.446-.152.96-.234 1.144-.183.183.051.66-.062 1.058-.25.437-.205.885-.386 1.342-.542.505-.16.618-.617.618-2.494 0-1.263-.238-2.895-.528-3.627s-.58-2.393-.646-3.691c-.065-1.299-.338-2.648-.607-2.999-.269-.35-.533-.702-.587-.782-.053-.08-.661.436-1.351 1.147-.69.71-1.563 1.29-1.94 1.29-.702 0-2.583-2.262-3.017-3.63-.346-1.091 1.08-2.137 2.582-1.893 1.245.202 1.18.34 1.303-2.766.016-.389.15-.895.3-1.126.153-.235-.04-.933-.44-1.587-.39-.643-.712-1.684-.712-2.315-.001-1.325-.202-1.387-1.413-.44-.52.407-1.438.693-2.24.697-1.088.006-1.604-.238-2.593-1.227-1.447-1.446-1.664-1.515-1.393-.438.245.976-.063 1.504-1.059 1.814-.899.28-2.24-1.17-2.24-2.423 0-1.08-.378-1.346-.9-.633-.392.537-.542.548-1.38.1-1.406-.753-2.74-.654-3.478.257-1.012 1.25-2.434 1.047-3.72-.529l-1.08-1.323.075 1.411c.07 1.288-.006 1.421-.86 1.52-1.194.138-2.206-1.121-1.684-2.096.19-.354.24-1.061.112-1.57-.394-1.57 1.493-2.109 3.314-.946.941.6.949.599.429-.089-.291-.384-.753-.875-1.027-1.09-.662-.517-.236-1.55.639-1.55.449 0 .731-.278.804-.793.148-1.043 1.978-1.327 2.648-.412.41.562.51.569 1.076.072.926-.813 2.092-1.07 2.899-.64 1.007.54 1.875 2.376 1.647 3.487-.135.66.003.525.474-.464 1.11-2.335 2.803-3.001 4.07-1.602.914 1.01 1.587.89 1.587-.286 0-1.413.655-2.117 2.453-2.635l1.571-.452-1.312-.774c-.722-.426-1.464-1.175-1.65-1.665-.187-.49-.488-.89-.67-.89-.191 0-.163.444.067 1.052.305.81.295 1.156-.044 1.495-.642.642-2.319-.374-2.48-1.501-.172-1.214-.8-1.487-1.556-.676-.352.378-1.098.687-1.657.687-.856 0-1.084-.202-1.438-1.273-.37-1.12-.335-1.386.285-2.205.566-.747.976-.921 2.069-.88.843.031 1.471-.138 1.646-.443.204-.356.668-.431 1.674-.27.766.122 1.59.063 1.834-.132.243-.195 1.349-.464 2.457-.598 1.792-.216 2.074-.363 2.557-1.332.3-.599.544-1.955.544-3.013 0-1.631-.087-1.89-.574-1.703-.316.12-.779.05-1.029-.157-.343-.285-.7-.07-1.454.875-.55.69-1.18 1.254-1.4 1.254s-.476.292-.57.65c-.233.89-2.851 1.559-4.02 1.026-.63-.287-.958-.28-1.264.027-.573.573-2.568.519-3.068-.084-.282-.34-.326-1.09-.138-2.38.384-2.635.392-2.603-.649-2.482-.515.06-1.04-.059-1.167-.264-.34-.55-.895-.454-.895.155 0 .291.153.53.34.53.641 0 1.158 1.41.714 1.945-.224.27-.308.802-.187 1.183.296.93-.392 1.29-1.418.74-.677-.362-.94-.36-1.384.007-.454.377-.666.348-1.234-.166-.377-.34-.898-.538-1.159-.438-.26.1-1.8.048-3.422-.116-1.881-.19-3.187-.169-3.61.057-.363.195-.958.26-1.32.145-1.122-.356-1.179-1.274-.145-2.353 1.033-1.079 1.035-1.064-.147-1.679-.824-.429-1.201-.326-2.313.63-.354.306-1.2.59-1.877.634l-1.234.08.104-1.445c.091-1.26-.007-1.485-.768-1.766-.48-.177-1.282-.713-1.783-1.192-.887-.848-.933-.855-1.766-.245-2.275 1.666-2.483 1.692-3.504.441-.83-1.017-1.163-1.16-2.848-1.225-1.049-.04-2.114-.097-2.367-.125-.324-.036-.429-.548-.353-1.724.092-1.436.248-1.74 1.097-2.146.851-.406 1.226-.387 2.683.137 1.675.602 1.701.6 2.485-.183.576-.576.686-.898.404-1.18-.673-.673-.424-1.845.601-2.827 1.194-1.144 1.63-1.181 2.318-.199.423.605.752.707 1.698.53.989-.186 1.242-.441 1.612-1.626.483-1.548.572-2.828.197-2.828-.133 0-.598.334-1.033.743-.508.477-1.42.803-2.545.908-1.747.164-1.755.16-2.17-1.096-.228-.693-.557-1.26-.73-1.26-.172 0-.227.227-.12.505.266.692-1.804 1.732-2.9 1.457-.604-.152-.844-.064-.844.308 0 .286-.411.931-.914 1.434-.724.724-1.018.828-1.411.502-.274-.227-.497-.8-.497-1.272 0-.507-.151-.766-.368-.632-.624.385-1.442-.603-1.336-1.613.055-.525-.122-1.222-.394-1.548-.735-.886-.076-2.503 1.004-2.46.742.028.797-.083.61-1.228-.174-1.08-.044-1.424.915-2.413.615-.635 1.338-1.154 1.606-1.154.808 0 3.251 2.773 3.006 3.412-.187.488.004.532 1.396.323 1.003-.15 1.699-.102 1.84.128.126.204.537.37.914.37.733 0 .977 1.189.326 1.591a.417.417 0 0 0-.143.57c.118.192.774-.227 1.456-.93.718-.739 1.452-1.195 1.743-1.084.55.211 2.909-.925 3.327-1.601.143-.232.107-.757-.08-1.167-.295-.647-.63-.742-2.54-.722-1.8.019-2.348.17-3.002.824-.64.64-1.028.753-1.925.56-.618-.131-1.322-.4-1.564-.594-.561-.452-.572-2.114-.018-2.668.33-.33.33-.518 0-.847-.233-.233-.423-.769-.423-1.191 0-.423-.238-.966-.53-1.208-.818-.68-.632-1.984.401-2.796 1.182-.93 2.067-.929 2.72.003.335.478 1.05.802 2.049.93.843.107 1.718.34 1.943.516.268.211.572.092.882-.344 1.314-1.853 3.118-1.666 3.118.323 0 1.405.804 1.302 1.99-.254.77-1.009 1.045-1.171 1.341-.793.777.988 2.252 1.452 4.065 1.278.989-.095 1.882-.036 1.985.13.103.167.506.133.896-.076.501-.268 1.023-.27 1.778-.007.729.254 1.28.258 1.738.013.87-.465.846-.573-.122-.538-.5.017-.921-.265-1.142-.766-.258-.587-.645-.794-1.487-.794-.778 0-1.259-.224-1.517-.705-.545-1.02-.995-.87-1.335.44-.233.899-.483 1.147-1.157 1.147-.704 0-.878-.199-.966-1.102-.129-1.323.753-2.372 1.732-2.061.367.117.668.07.668-.104 0-.287-2.44-1.508-3.969-1.986-.746-.233-.803-1.033-.113-1.605.398-.33.906-.228 2.415.486 2.154 1.019 2.618 1.07 4.516.501 1.097-.328 1.558-.301 2.51.148 1.511.712 6.637 1.453 8.406 1.216.938-.126 1.508-.027 1.787.31.54.65 1.606.63 1.862-.036.111-.291.605-.53 1.096-.53.749 0 .893-.163.893-1.017 0-.73-.205-1.07-.727-1.207-.632-.165-.695-.366-.486-1.54l.24-1.35-.758.79c-2.233 2.323-4.047 2.047-3-.457.531-1.274.526-1.38-.087-1.83-.594-.436-.669-.368-.86.778-.243 1.453-.147 1.333-1.69 2.118-1.553.79-1.894.327-1.675-2.282.158-1.879.15-1.9-.248-.667-.487 1.51-1.194 2.431-1.865 2.431-.267 0-.486-.317-.486-.705 0-.408-.235-.706-.557-.706-.426 0-.53-.3-.44-1.29.072-.805-.05-1.346-.326-1.44-.242-.083-.44.104-.44.415 0 .312-.398.747-.883.968s-.882.535-.882.698c0 .468-.982.345-1.157-.145-.109-.306-.421-.198-1.022.353-1.158 1.063-1.459 1-1.273-.264.085-.582.002-1.059-.185-1.059-.199 0-.25-.651-.123-1.576.215-1.57.212-1.574-.647-1.183-.67.306-.995.284-1.452-.095-.324-.269-.943-.442-1.377-.385-1.034.135-1.27-.581-.664-2.023.432-1.027.621-1.149 1.569-1.01.768.113 1.17-.014 1.399-.442.396-.741.123-1.047-.937-1.047-.494 0-1.12-.415-1.595-1.058-.43-.582-.972-1.058-1.205-1.058-.544 0-1.561 1.55-1.561 2.378 0 .352-.253 1-.562 1.441-.48.686-.822.786-2.38.696l-1.82-.106.053-1.638c.051-1.553 0-1.65-.999-1.85-.579-.115-1.36-.045-1.737.156-.574.308-.78.197-1.293-.697-.55-.957-.768-1.055-2.185-.986-1.882.091-2.299-.679-1.005-1.859l1.473-1.344c.361-.33.81-1.025.995-1.543.388-1.085 1.234-1.53 1.883-.991.521.432.31 1.552-.403 2.145-.375.31-.398.528-.095.893.67.808 1.378.542 1.607-.606.275-1.375 1.592-2.084 2.648-1.425.392.245.746.395.786.333l.68-1.083c.633-1.013 1.578-1.252 2.26-.57.64.64 1.593.08 1.321-.776-.143-.451-.022-.965.315-1.337.496-.549.483-.702-.143-1.65-.379-.576-.69-1.563-.691-2.193s-.142-1.147-.311-1.147c-.491 0-.793 2.169-.373 2.675.534.644.266 2.298-.445 2.743-.727.455-2.049-.572-2.049-1.592 0-.803-.552-.855-.85-.079-.163.428-.491.518-1.294.358-.91-.182-1.046-.12-.885.398.389 1.248-1.04 2.1-2.18 1.3-.388-.271-1.036-1.162-1.44-1.98-.58-1.17-.649-1.602-.324-2.037.345-.46.331-.478-.082-.11-.72.642-1.664.54-2.47-.265-.388-.388-.853-.705-1.033-.705s-.657-.42-1.06-.932c-.56-.712-.639-1.045-.335-1.411.219-.264.617-.48.884-.48s.486-.158.486-.352-.391-.353-.87-.353c-.498 0-1.025-.291-1.234-.682-.645-1.204-.428-1.792.745-2.027 1.003-.2 1.05-.266.495-.673-.339-.247-.823-.37-1.076-.273-.458.175-1.01 1.424-.901 2.037.031.177-.13.772-.358 1.323-.703 1.698-2.446 1.095-2.446-.846 0-.82-.527-2.044-1.33-3.09-.074-.095-.288.104-.477.442-.376.67-1.546.828-1.9.256-.122-.198-.37-.268-.55-.156-.615.38-.331.81.68 1.033 1.49.327 1.934 1.565 1.07 2.986-.785 1.291-2.168 1.408-2.36.2-.253-1.587-.382-1.673-1.353-.91-1.294 1.019-1.924.923-3.305-.502-.658-.679-1.326-1.235-1.484-1.235s-.19.607-.072 1.348c.191 1.198.107 1.419-.76 1.987-.898.588-1.01.593-1.397.063-.53-.723-1.185-.74-1.454-.036-.114.296-.533.713-.932.926-.989.53-1.662-.425-1.662-2.358 0-1.235-.143-1.529-.92-1.883-.692-.315-.884-.62-.769-1.221.135-.703.01-.801-1.019-.801-1.049 0-1.172.104-1.172.988 0 .805-.155.987-.839.987-1.072 0-1.77-.838-1.514-1.819.274-1.048-.339-2.061-1.248-2.061-1.07 0-2.044-1.006-2.044-2.113 0-1.35.36-1.532 1.293-.655.765.72.857.73 1.465.18.357-.323.85-.587 1.095-.587s.847-.315 1.337-.7c1.03-.81 1.314-.708 2.067.748.625 1.209.222 2.069-.97 2.069-.376 0-.586.158-.466.352.399.645 2.244.4 2.646-.352.418-.782 1.38-.956 1.465-.265.03.242.075.6.101.794.097.715 1.353 2.293 1.826 2.293.269 0 .807-.319 1.196-.708.577-.577.632-.828.297-1.364-.523-.837-.223-1.611.914-2.356 1.602-1.05 2.514-.47 3.947 2.51 1.343 2.79 1.764 3.215 1.184 1.191-.46-1.602-.441-3.76.034-4.053.21-.13 1.045-.05 1.858.178 2.428.68 4.376-.504 2.877-1.748-.291-.242-.53-.72-.53-1.064s-.222-.71-.494-.814c-.778-.299-.974.172-.356.854.7.775.352 2.082-.556 2.082-1.271 0-1.769-.415-1.769-1.478 0-1.508-.855-1.071-.99.505-.132 1.566-1.038 2.042-1.888.992-.325-.402-1.065-.825-1.646-.941-.863-.173-1.16-.051-1.633.671-.795 1.214-1.834 1.427-2.478.507-.54-.77-.186-1.667.656-1.667.22 0 .613-.339.872-.753.392-.628.391-.803-.003-1.053-.694-.44-1.709-.376-1.709.108 0 .669-1.473 2.05-2.187 2.05-.371 0-.797-.379-.988-.881-.184-.485-.486-.882-.67-.882-.654 0-2.505-1.838-2.505-2.487 0-.363.345-.982.766-1.374.719-.67.73-.753.176-1.364-.324-.359-.589-.92-.589-1.248 0-.455-.203-.545-.856-.381-.471.118-1.141.056-1.489-.139-.45-.252-.919-.205-1.63.163-1.263.653-2.31.332-2.592-.793-.236-.938.643-2.255 1.506-2.255.563 0 .637-.916.101-1.247-.205-.127-1.012.211-1.793.752-1.1.763-1.551.9-2.007.614-.966-.609-.858-1.34.26-1.762.829-.313 1.005-.552.848-1.152-.117-.45.04-1.018.388-1.403.556-.614.54-.639-.308-.477-.536.103-1.282-.092-1.864-.487-1.673-1.135-2.684-1.468-3.376-1.114-1.009.518-2.428-.58-2.29-1.772.1-.863.228-.938 1.432-.844 1.095.085 1.323-.01 1.323-.558 0-1.324-16.094-3.934-28.752-4.662-15.214-.876-34.512 1.26-48.264 5.343-8.787 2.609-23.879 8.718-23.879 9.667 0 .63.804 1.102.979.576.076-.229.345-.416.597-.416s.542-.317.643-.705c.344-1.315 2.367-.644 2.367.785 0 .363.388.79.891.982 1.038.395 1.488 1.287.93 1.844-.465.466-3.206-.316-3.273-.934-.023-.211-.148.092-.277.674-.215.973-.348 1.054-1.634 1-1.344-.055-1.4-.013-1.42 1.059-.012.614-.161 1.43-.333 1.813-.29.65-.244.644.68-.084 1.092-.858 1.614-.762 1.614.299 0 .422.359.83.916 1.041.504.192.999.664 1.1 1.05.254.97.703.879 1.743-.357 1.539-1.83 2.593-1.353 3.31 1.495.365 1.45.501 1.618 1.062 1.318 1.727-.924 3.35.062 3.092 1.88-.123.862-.76.918-4.656.409-1.707-.223-2.047-.184-1.912.224.09.272.547.55 1.017.617s.979.34 1.13.606c.182.319.624.415 1.29.282.795-.16 1.102-.042 1.413.54.219.409.625.743.902.743.61 0 1.235 1.08 1.235 2.135 0 .632-.142.728-.794.536-.436-.128-1.508-.238-2.381-.244-2.645-.018-2.676-.01-1.97.507.35.255.577.771.506 1.146-.153.804-2.304 1.133-3.439.526-.496-.266-.767-.264-.935.008-.13.21-.622.285-1.095.166-.725-.182-.917-.046-1.238.877-.343.983-.509 1.082-1.661.988-1.26-.104-1.279-.086-1.163 1.085l.118 1.191-1.353-.223c-.744-.123-1.63-.226-1.97-.228-.339-.002-.617-.234-.617-.515 0-.28-.397-.939-.882-1.462-.485-.524-.882-1.23-.882-1.568 0-.34-.238-.708-.529-.82-.29-.111-.529-.43-.529-.707 0-.34-.396-.505-1.214-.505-.668 0-2.121-.416-3.23-.923-1.877-.86-2.059-.883-2.654-.345-.438.397-.947.506-1.62.347-1.325-.31-1.51-.328-2.835-.264-.994.048-1.147.181-1.147.998 0 .518-.263 1.233-.584 1.588-.546.602-.54.73.088 1.906 1.054 1.974 1.522 2.22 2.282 1.197.356-.48.92-1.174 1.252-1.545.592-.661.62-.656 1.382.23.428.497 1.077.96 1.442 1.03.438.083.705.485.784 1.181.065.58.304 1.28.529 1.555.328.4.445.19.586-1.058.156-1.375.288-1.571 1.123-1.668 1.07-.123 1.886.947 1.588 2.086-.136.518.013.67.657.67 1.828 0 3.105 1.196 3.814 3.572.27.907 1.99.434 1.99-.548 0-2.006 2.187-2.711 2.409-.777.113.985.126.991.627.276.677-.966 1.55-.595 1.55.66 0 .665-.306 1.215-.933 1.671l-.934.68 2.016.238c1.109.13 2.164.145 2.345.034.552-.342.366-.868-.306-.868-1.515 0-1.99-1.9-.756-3.017 1.019-.921 1.92-.298 1.92 1.329 0 .968.122 1.192.587 1.07.85-.223 1.377 1.014 1.549 3.638.129 1.977.057 2.328-.553 2.71-.386.24-.701.665-.701.942 0 .68-1.045 1.795-1.684 1.795-.424 0-.472.405-.27 2.293.214 1.99.165 2.325-.366 2.529-.804.308-2.03-1.166-1.775-2.137.23-.88-.355-1.627-1.273-1.627-.399 0-.774-.3-.88-.705-.297-1.134-.808-.812-.808.508 0 .668-.159 1.312-.353 1.432a.817.817 0 0 0-.352.62c0 .29.118.285.423-.02.673-.673 1.971-.51 2.221.279.343 1.08-.132 1.514-1.424 1.304-.87-.141-1.318-.014-1.79.507-.448.496-.988.666-1.882.59-1.067-.09-1.269-.246-1.362-1.057-.061-.524.043-1.24.231-1.592.188-.351.266-1.038.172-1.527-.136-.71-.36-.875-1.114-.819-.519.039-1.358.083-1.865.099-.893.028-.91.069-.558 1.386.426 1.598.157 2.52-.81 2.773-.695.182-.695.186.002 1.072 1.282 1.63.515 4.28-1.116 3.854-.359-.094-.728-.048-.82.102-.25.404 1.121 1.53 1.545 1.27.2-.124 1.074.098 1.943.494.868.396 1.797.72 2.064.72s1.134.555 1.928 1.234c.793.68 1.744 1.235 2.114 1.235s1.128.477 1.687 1.06c.872.91.968 1.196.676 2.025-.49 1.39-1.316 1.37-2.294-.057-.679-.99-1.01-1.194-1.672-1.028-.543.136-1.173-.05-1.841-.544-.559-.413-1.367-.75-1.797-.75h-.781l.767.816c.791.843 1 1.82.458 2.155-.17.105-1.004-.279-1.852-.853-1.436-.97-1.576-1.001-2.008-.435-.324.425-.397 1.17-.24 2.463.187 1.531.125 1.892-.355 2.076-.397.153-.903-.167-1.598-1.01-.56-.68-1.502-1.435-2.095-1.68-1.162-.482-1.635-1.575-1.285-2.97.18-.715.04-.908-.896-1.234-.61-.213-1.15-.387-1.199-.387s.38 1.118.954 2.483c1.213 2.887 1.11 3.867-.41 3.867-.557 0-1.112-.16-1.233-.356-.14-.227-.489-.17-.956.158-.635.445-.898.448-1.91.025-.698-.291-1.256-.356-1.378-.158-.357.577-1.9.358-2.633-.374-1.053-1.054-1.153-.863-.36.691.392.768.713 1.715.713 2.104 0 .813-.972 1.438-2.237 1.438-.689 0-.835.143-.694.683.418 1.597 1.754 2.058 7.517 2.597.485.045 1.097.218 1.36.385.284.18 1.057.113 1.894-.164 1.294-.426 1.458-.408 1.91.21.273.373.393.921.266 1.218-.547 1.287-.593 2.22-.1 2.055.27-.09.574-.626.675-1.192.162-.9.317-1.015 1.235-.916.578.063 1.725.11 2.55.105l1.499-.01v1.547c0 2.236-1.502 3.421-2.804 2.213-.39-.362-.428-.315-.21.265.838 2.237.95 2.704.768 3.18-.538 1.4-1.558.291-2.923-3.18-.192-.488-.335.055-.465 1.764-.167 2.202-.27 2.481-.959 2.579-.518.074-.97-.193-1.375-.811-.343-.524-.813-.841-1.09-.735-.268.103-.739-.108-1.047-.468s-.842-.58-1.185-.49c-.762.199-.886.01-1.93-2.977-.455-1.303-1.026-2.435-1.269-2.516-.31-.103-.355.05-.154.519.748 1.737 1.305 4.778 1.088 5.935-.197 1.05-.384 1.257-1.132 1.257-.672 0-.997-.265-1.296-1.059-.461-1.221-.804-1.29-1.965-.397-.777.596-.803.719-.353 1.65.62 1.284 2.44 2.346 4.02 2.346.676 0 1.313.134 1.414.298s.934.056 1.851-.24c1.229-.396 3.065-.524 6.984-.485 5.962.058 5.91.078 6.33-2.463.234-1.415.634-1.942 3.746-4.938 1.916-1.846 3.483-3.535 3.482-3.755-.001-.436 1.67-1.976 4.543-4.186 1.009-.776 2.07-1.769 2.357-2.205.288-.437.78-.794 1.092-.794s1.738-1.111 3.168-2.47c1.43-1.358 2.758-2.469 2.95-2.469.194 0 .353-.236.353-.524s.912-.987 2.028-1.552c1.116-.566 2.425-1.455 2.91-1.976.486-.521 1.856-1.493 3.047-2.16 1.345-.753 2.146-1.427 2.117-1.78-.027-.312.521-.904 1.217-1.315 2.827-1.67 5.253-3.602 5.257-4.187.002-.368.273-.617.67-.617.367 0 1.034-.297 1.483-.66.77-.625.79-.74.347-2.083-.567-1.718-.25-4.504.549-4.81.297-.115 1.124-.208 1.837-.208 1.113 0 1.365-.156 1.785-1.105.603-1.361 4.778-5.84 5.724-6.14.475-.151.627-.423.487-.866-.168-.527.072-.71 1.308-.996 1.585-.368 3.857-1.175 4.159-1.477.097-.097.596-.393 1.11-.658.799-.41 1.183-.401 2.646.064.941.3 2.227.648 2.856.774.63.126 1.265.422 1.411.66.147.237.783.79 1.413 1.23.631.44 1.152 1.068 1.159 1.394.006.327.48 1.229 1.052 2.005s1.313 1.966 1.647 2.645c.334.68 1.148 1.815 1.808 2.523.857.92 1.535 2.297 2.37 4.814 1.42 4.28 2.634 6.32 3.96 6.65.533.132 1.561.715 2.285 1.295.987.79 1.27 1.24 1.129 1.8-.151.603.244 1.065 2.035 2.378 1.223.896 3.493 2.158 5.045 2.803s3.537 1.67 4.41 2.275c.873.606 2.897 1.864 4.498 2.796 2.872 1.673 3.255 2.045 2.551 2.48-.198.122.473 1.044 1.5 2.057 1.022 1.01 2.871 2.995 4.11 4.411 1.238 1.417 2.848 2.97 3.576 3.453 1.525 1.01 3.66 4.174 3.583 5.315-.033.498.578 1.423 1.707 2.581 1.81 1.858 2.303 3.037 1.113 2.66-.542-.172-.621-.044-.497.8.09.618-.07 1.223-.414 1.568-.63.63-.725 1.726-.23 2.644 1.526 2.832 1.948 5.758.915 6.336-.45.251-.454.505-.039 1.887.37 1.225.413 2.577.187 5.826-.173 2.48-.16 4.81.03 5.628.178.768.331 1.873.34 2.455.01.582.423 2.011.918 3.175.496 1.164 1.127 2.93 1.403 3.926.275.994.912 2.705 1.413 3.802 1.071 2.339 1.987 7.121 1.678 8.762-.12.632-.431 1.398-.694 1.702-.41.475-.181 1.127 1.628 4.645 2.332 4.532 3.085 7.668 2.66 11.07-.13 1.036-.036 3.7.207 5.918.335 3.048.345 4.364.043 5.388-.312 1.057-.287 1.935.111 4 .75 3.89.683 5.053-.788 13.524-.367 2.113-.464 3.95-.3 5.7.192 2.052.139 2.644-.26 2.88-.278.163-.607 1.075-.734 2.025-.126.95-.39 1.921-.586 2.157-.195.236-.588 2.236-.872 4.446-.79 6.139-1.273 7.198-5.45 11.954-1.279 1.455-2.904 3.37-3.613 4.255-.91 1.136-1.737 1.75-2.818 2.09-.842.266-1.768.68-2.06.923-1.539 1.28-9.035 1.592-10.875.453-.705-.436-.767-.682-.572-2.256.185-1.496.097-1.92-.572-2.771-.626-.795-.724-1.192-.47-1.9.326-.917 2.702-2.386 4.383-2.712.489-.094 1.222-.482 1.629-.861.805-.75 4.108-2.513 4.71-2.513.732 0 3.255-1.92 3.553-2.703.223-.585.064-1.322-.59-2.752-1.118-2.441-2.023-2.598-3.648-.63-.999 1.21-1.291 1.931-1.926 4.752-.119.527-.824 1.599-1.568 2.38-1.41 1.482-2.839 1.843-4.267 1.08-.955-.512-1.064-1.476-.76-6.75l.278-4.8 1.878-2.718c1.034-1.495 2.147-2.907 2.475-3.138 1.562-1.1 2.654-4.78 3.016-10.163.27-3.998.11-4.683-1.224-5.235-.55-.228-1.171-.76-1.38-1.184-1.16-2.342-2.517-5.594-3.046-7.297-.332-1.067-.856-2.496-1.165-3.175l-1.119-2.47c-.307-.679-.838-1.616-1.18-2.083-.44-.597-.56-1.189-.408-1.998.178-.95.08-1.222-.57-1.57-.755-.404-.776-.548-.549-3.823.4-5.747.445-6.199.708-7.018.19-.592.115-.794-.293-.794-.45 0-.519-.36-.386-2.028.497-6.23.5-6.728.042-6.904-.273-.105-.572-1.154-.737-2.59-.37-3.219-.372-3.703-.045-7.052.263-2.683.235-2.891-.413-3.097-.52-.165-.754-.661-.928-1.975-.286-2.155-1.129-2.406-1.45-.43-.117.727-.508 2.135-.868 3.129-.483 1.335-.604 2.362-.461 3.932.144 1.59.004 2.747-.559 4.597-.413 1.36-.75 2.814-.75 3.23s-.24 1.22-.533 1.786c-.713 1.378-.71 2.16.02 5.333.346 1.507.501 2.984.352 3.352-.147.362-.241 3.039-.21 5.95.053 5.008.11 5.404 1.05 7.408 1.291 2.746 2.04 7.698 1.439 9.518-.463 1.403-.295 3.514.6 7.533.467 2.1.49 2.642.119 2.871-.36.222-.404 1.367-.208 5.35.207 4.186.158 5.243-.282 6.085-.293.56-.633 2.227-.756 3.704-.122 1.477-.47 3.269-.772 3.982-.57 1.342-.571 1.285.241 9.816.735 7.722.775 8.731.374 9.48-.22.413-.596.75-.834.75-.879 0-.042 9.03 1.178 12.7.45 1.355.916 3.454 1.371 6.174.524 3.13-.363 8.996-1.36 8.996-.166 0-.406.413-.533.918-.126.504-.519 1.338-.871 1.852a90.15 90.15 0 0 0-1.786 2.786c-.628 1.02-1.345 1.853-1.592 1.853-.259 0-.693.966-1.022 2.277-.65 2.59-.742 4.22-.22 3.896.195-.12.354-.743.354-1.384 0-.642.303-1.553.675-2.025.371-.472.728-1.326.794-1.897.152-1.335 1.137-1.546 2.266-.485 1.027.965 1.088 1.88.168 2.525-1.019.714-.425 1.142 1.689 1.215 1.213.043 2.127.283 2.557.672.853.772.85.27-.012-1.653-.772-1.726-.687-2.083.5-2.083.64 0 .986.34 1.474 1.445.75 1.7 2.235 2.65 3.274 2.093.374-.2 1.007-.363 1.408-.363.486 0 .729-.228.729-.685 0-1.595 1.797-.89 2.515.985.209.548.502.759.86.621.501-.192 1.175.35 2.56 2.058.424.522.54.484 1.235-.4.422-.537.767-1.45.767-2.03zm54.155-41.995c-.577-.695-.201-1.592.665-1.592.903 0 1.825.937 1.571 1.598-.258.672-1.676.669-2.236-.006zm3.228-4.371c-.26-.165-.418-.678-.352-1.142.093-.661.364-.865 1.268-.952 1.535-.148 1.955.815.758 1.735-.974.75-1.037.762-1.674.359zm9.82-28.068c0-.745.66-1.028 1.25-.537.768.636.624 1.045-.367 1.045-.533 0-.882-.201-.882-.508zm1.06-7.959c0-.388.158-.705.352-.705s.353.317.353.705-.16.706-.353.706c-.194 0-.353-.318-.353-.706zm-2.118-.503c0-.327.302-.555.735-.555.86 0 .739.824-.146.996-.349.068-.589-.112-.589-.44zm1.5-6.801c-1.516-.292-.783-.81 1.146-.81 1.972 0 2.589.45 1.147.836-.833.224-1.007.222-2.293-.026zm2.734-11.739c0-.467 1.614-.845 2.37-.555.521.2.534.28.09.562-.69.436-2.46.431-2.46-.007zm-5.224-2.15c.07-.208.241-.367.382-.353.14.015.583.027.982.027.4 0 .628.159.508.353-.294.476-2.032.452-1.872-.027zm-1.997-.308c-.226-.365 1.164-1.254 1.474-.944.104.105.096.435-.02.734-.23.603-1.131.733-1.454.21zm-2.48-.37c-.236-.381.063-1.063.461-1.054.134.003.482.162.773.353.47.309.47.386 0 .695-.676.443-.963.445-1.235.005zm8.704-4.84c-.555-.105-.755-.327-.618-.686.112-.291.204-.596.204-.677s.226-.148.504-.148c.565 0 1.612.933 1.612 1.436 0 .336-.272.348-1.702.076zm5.941-1.952c.004-.87.088-1.019.347-.617.449.693.449 1.764 0 1.764-.194 0-.35-.516-.347-1.147zm-9.574-.086c-1.388-.91-3.484-3.268-3.484-3.92 0-.223.256-.618.57-.878.617-.513.747-.394 3.134 2.855.582.793 1.366 1.752 1.742 2.132.677.684.677.69 0 .67-.376-.011-1.259-.398-1.962-.859zm9.276-4.235c-.006-.97.126-2.082.293-2.47.402-.935.402 2.096 0 3.352-.223.695-.285.509-.293-.882zm-47.505-56.742c-.297-.454-.579-1.447-.625-2.205-.067-1.097.039-1.38.52-1.382.332-.002.792-.193 1.022-.423.476-.476 1.942.119 2.779 1.127.408.492.368.597-.29.77-.514.134-.764.475-.764 1.04 0 .484-.209.841-.491.841-.27 0-.583.238-.695.53-.292.762-.834.651-1.456-.298zm-2.59-4.166c.065-.456.404-.876.763-.944.5-.096.62.062.529.698-.065.456-.404.876-.763.945-.5.095-.62-.063-.529-.699zm12.288-10.857c0-.208-.397-.378-.882-.378-1.185 0-1.196-1.364-.022-2.715.71-.815.973-.92 1.5-.598.906.555.923 3.777.021 3.951-.34.065-.617-.051-.617-.26zm-6.814-1.492c-.803-.449-.749-1.56.135-2.8.81-1.14 1.435-1.288 2.09-.5.275.332.745.449 1.274.316 1.09-.274 1.394.493.85 2.143-.448 1.358-.708 1.477-1.773.811-.53-.33-.858-.34-1.342-.037-.418.261-.846.285-1.234.067zM99.874 70.29c-.262-.682.47-1.968 1.12-1.968.732 0 .99.86.52 1.736-.45.842-1.357.97-1.64.232zm3.648-7.53c-.71-.745-.84-1.105-.571-1.582.319-.566.434-.572 1.389-.079 1.102.57 1.36 1.58.571 2.235-.358.297-.687.161-1.389-.575zm119.06-10.51c-.807-.564-1.067-2.056-.429-2.45 1.105-.684 2.917 1.503 2.08 2.51-.514.62-.69.614-1.652-.06zm-27.178-31.261c.16-1.617.992-1.739.992-.145 0 .911-.154 1.264-.551 1.264-.408 0-.523-.292-.441-1.12zm-4.3-.972c0-.404 1.004-1.437 1.396-1.437.35 0 .72 1.295.448 1.568-.328.327-1.844.22-1.844-.131zm-83.96 257.35c0-.086-.16-.254-.353-.374-.194-.12-.353-.05-.353.156 0 .205.159.373.353.373s.352-.07.352-.155zm94.191-1.08c0-.29-.154-.529-.342-.529s-.25.239-.138.53c.111.29.265.529.341.529.077 0 .139-.238.139-.53zm-60.092-1.524c-.732-.81-.732-1.08-.002-1.887.713-.788 2.165-.834 3.212-.1.606.424.94.458 1.512.151.56-.299.868-.281 1.292.073.307.256.972.639 1.477.85.798.335 1.03.268 1.764-.514.933-.993 1.446-3.669.783-4.079-.216-.133-.393-.753-.393-1.376 0-.744-.371-1.584-1.08-2.444-.594-.72-1.172-1.881-1.286-2.58-.113-.7-.43-1.357-.704-1.462-.479-.184-.436-2.386.097-4.954.091-.437.043-.776-.107-.752-1.014.165-1.224-.084-.996-1.185.13-.631.224-1.745.207-2.476-.016-.731.149-1.663.367-2.07s.85-1.998 1.405-3.534 1.314-3.224 1.687-3.751c.666-.94.667-1.005.025-3.427-.36-1.358-.66-3.048-.664-3.755-.006-.848-.202-1.359-.576-1.502-.399-.153-.503-.472-.352-1.075.119-.471.052-.958-.148-1.081a.692.692 0 0 1-.298-.64c.035-.227-.056-.69-.204-1.03-.148-.338-.018-2.004.29-3.703.58-3.194.391-6.566-.453-8.145-.212-.395-.386-1.086-.387-1.535 0-.45-.397-1.598-.882-2.553-.484-.954-.88-2.009-.88-2.343 0-.335-.258-.708-.574-.829-.497-.19-.542-.64-.329-3.356.262-3.348-.172-5.83-1.16-6.64-.295-.241-.57-1.035-.61-1.763-.04-.729-.186-1.759-.324-2.289s-.076-1.466.138-2.08c.225-.645.26-1.282.083-1.506-.435-.551-.91-3.032-.8-4.181.062-.642-.074-.97-.402-.97-.548 0-1.314 1.43-1.314 2.456 0 .363-.196.725-.437.806-.266.088-.396.628-.331 1.38.203 2.357-4.158 14.055-5.24 14.055-.195 0-.27.357-.166.794.217.916-1.692 4.497-2.399 4.497-.244 0-.624.477-.844 1.059s-.651 1.058-.959 1.058c-.719 0-.78 2.697-.083 3.714.778 1.136 1.006 2.62.95 6.164-.067 4.195-.775 8.998-1.545 10.478-.77 1.479-.742 2.403.095 3.183.376.35.861 1.105 1.08 1.68.336.883.299 1.117-.242 1.534-.474.365-.52.536-.18.663.253.094.842.778 1.31 1.52.643 1.018.846 1.819.829 3.273-.015 1.215.187 2.247.548 2.798.642.98 1.645 4.527 1.394 4.932-.09.145-.314 2.608-.499 5.474-.2 3.114-.564 5.823-.903 6.732-.536 1.438-.531 1.548.088 2.017.825.625 1.213.65.988.065-.255-.666 1.152-2.016 2.103-2.016 1.088 0 2.478 1.13 3.031 2.467.383.925.363 1.171-.138 1.725-.522.577-.527.694-.046 1.093.296.245.538.817.538 1.27 0 .454.429 1.223.953 1.709 1.066.988 1.603.92.691-.087zm94.512.25c.316-.511-.456-.978-1.268-.766-.75.197-1.568-1.074-1.24-1.927.118-.31.01-.691-.238-.85-.676-.428-1.06-.356-.753.14.149.242.277 1.075.285 1.853.014 1.335.083 1.426 1.25 1.632.679.12 1.344.239 1.478.264.134.026.353-.13.486-.346zm-104.8-.313c.12-.194-.029-.353-.331-.353-.303 0-.55.16-.55.353 0 .194.15.353.332.353s.43-.159.55-.353zm.096-2.403c.212-.635-.517-.502-.763.14-.132.343-.053.504.205.419a.999.999 0 0 0 .558-.56zm-27.859-4.384-1.485-1.774-.312.937c-.421 1.262.68 3.989 1.868 4.623.85.455.891.427 1.148-.77.241-1.121.124-1.412-1.219-3.016zm132.89 3.965c.12-.194.724-.369 1.343-.388 1.052-.033 1.068-.052.244-.283-.72-.203-.882-.47-.882-1.457 0-.869-.173-1.242-.617-1.33-.452-.089-.618.108-.618.732 0 .469-.328 1.15-.729 1.512-.688.624-.694.685-.109 1.113.746.546 1.078.57 1.368.1zm-138.47-6.791c.003-.146-.454-.265-1.016-.265-1.015 0-1.019.008-.69 1.469.497 2.214.724 2.328 1.234.62.257-.858.469-1.679.472-1.824zm3.18-2.106c0-.345-.158-.628-.353-.628-.194 0-.352-.583-.352-1.295 0-.739-.266-1.589-.618-1.978-.44-.487-.617-1.276-.617-2.761 0-1.429-.138-2.08-.441-2.08-.255 0-.44.447-.44 1.058 0 .582-.16 1.059-.354 1.059s-.353-.291-.353-.647c0-.957-.366-1.154-.987-.533-.5.5-.496.582.034.879.735.41 2.854 3.457 2.589 3.722-.108.108.036.644.319 1.192.653 1.263.65 1.287-.168 1.724-.454.243-1.014.25-1.675.022-.843-.292-.891-.279-.319.088.371.237.927.677 1.235.977.723.703 2.5.135 2.5-.799zm138.09-.24c.108-.176-.303-.494-.914-.706-1.448-.505-1.446-.505-1.006.318.387.722 1.566.96 1.92.387zm10.14-5.403c-.254-.254-.418-.274-.418-.053 0 .47.417.888.653.652.1-.1-.006-.37-.235-.6zm-162.7-2.47c0-.45-.472-.305-1.41.43l-.883.691 1.147-.423c.63-.233 1.146-.547 1.146-.699zm8.832-.828c.495-.926.216-1.9-.625-2.18-.521-.175-.912 1.171-.647 2.228.276 1.1.665 1.085 1.272-.048zm-2.84-2.344c.003-.33.561-1.045 1.24-1.587.68-.542 1.235-1.177 1.235-1.412 0-.797 1.898-2.26 2.734-2.108.795.144.934-.078.807-1.288-.037-.356.197-.94.52-1.297.38-.42.504-.918.349-1.407-.154-.485-.034-.983.336-1.392.317-.35.672-1.252.79-2.003.118-.752.429-1.68.69-2.063.262-.383.477-1.105.477-1.605s.146-1.06.324-1.245c.546-.564.625-5.22.096-5.637-.358-.282-.374-.594-.07-1.392.215-.566.46-2.77.543-4.896.084-2.127.24-4.14.345-4.473.13-.409-.04-.667-.523-.793-.89-.233-.91-1.077-.06-2.505.507-.85.668-1.89.71-4.572.031-1.91.196-3.735.367-4.057s.391-2.252.489-4.289c.17-3.54.372-4.498 1.453-6.879 1.297-2.855 1.617-3.818 1.618-4.863 0-.624.337-2.007.75-3.075.413-1.067.807-2.375.875-2.908.068-.532.547-1.802 1.065-2.822.662-1.305.924-2.334.885-3.473-.031-.89.202-2.319.519-3.175.316-.856.78-2.667 1.031-4.026.251-1.358.882-4.612 1.402-7.232.821-4.137.895-5.02.56-6.724-.212-1.078-.385-2.222-.385-2.541 0-.32-.397-.977-.882-1.462s-.882-1.183-.882-1.55-.328-1.046-.73-1.509c-.715-.825-.74-1.799-.1-3.971.169-.57.098-.597-.585-.232-1.188.636-1.411.024-.838-2.295.692-2.8.692-3.601 0-4.367-.319-.352-.552-.942-.518-1.312.174-1.908-.034-2.024-1.136-.632-.698.882-1.462 1.435-2.141 1.548-1.196.2-1.915 1.248-2.238 3.263-.155.968-.385 1.323-.856 1.323-.463 0-.77.453-1.097 1.62-.25.89-.68 1.707-.96 1.814-.277.106-1.067 1.402-1.753 2.878-1.158 2.492-1.243 2.905-1.179 5.772.058 2.61-.058 3.342-.748 4.723-.449.9-1.15 1.854-1.557 2.12-.407.268-.939 1.158-1.181 1.98-.344 1.168-1.277 2.318-4.265 5.258-3.01 2.963-3.922 4.089-4.282 5.292-.299 1-1.087 2.158-2.282 3.354-3.08 3.082-2.992 5.033.365 8.133 1.212 1.12 2.303 2.305 2.425 2.634.121.33.09 1.419-.068 2.42-.205 1.3-.143 2.293.218 3.46.577 1.861.453 5.027-.228 5.847-.794.956-2.307.673-3.468-.65-.58-.66-1.123-1.407-1.208-1.66-.12-.362-.5-.326-1.804.172-.909.347-1.652.783-1.652.97 0 .186-.278.292-.617.235-.512-.086-.636.212-.724 1.748-.092 1.59-.017 1.852.529 1.85.75-.003 2.047-.852 3.363-2.202 1.06-1.089 1.61-1.218 1.905-.448.124.322-.42 1.142-1.422 2.144-.893.892-1.623 1.732-1.623 1.865 0 .134.953.622 2.117 1.084s2.117 1.035 2.117 1.272.708.737 1.573 1.112c1.713.741 4.071 3.443 4.071 4.664 0 .392-.55 1.15-1.222 1.687l-1.223.976.719.765c1.161 1.236.8 2.912-.81 3.743-2.13 1.102-4.754 1.201-6.934.264-1.396-.6-1.957-.699-2.261-.395-.222.223-.697.405-1.056.405-.358 0-1.054.403-1.547.897-.726.725-.816.995-.47 1.41.554.669 1.216.651 2.304-.062 1.155-.756 1.53-.34.601.667-.402.435-.792 1.11-.867 1.498-.112.572-.385.69-1.447.627-.836-.05-1.31.078-1.313.353-.002.237-.102 1.026-.223 1.754-.209 1.267-.176 1.323.775 1.323.546 0 1.686-.336 2.534-.746 2.102-1.018 2.345-.52.534 1.093-.825.735-1.5 1.453-1.5 1.596s.222.076.492-.149c.27-.224 1.422-.887 2.558-1.474a665.238 665.238 0 0 0 4.351-2.27c2.39-1.26 3.537-1.18 2.323.162-.622.686-.61.694.731.479 1.26-.203 1.325-.173.863.387-.801.973-1.808 1.4-2.254.954-.617-.617-.95-.45-.95.476 0 .473-.165.963-.367 1.088s-.27.53-.152.903c.173.546.04.676-.692.676-.661 0-.905.184-.905.684 0 .377-.144.774-.32.883-.176.108-.237.513-.136.898.216.827-.79 1.37-1.402.756-.752-.75-.929-.4-.417.824.635 1.52.634 1.599-.022 1.599-.293 0-.967-.629-1.499-1.398s-1.252-1.404-1.6-1.41c-.538-.012-.597.178-.393 1.266.189 1.008.136 1.243-.249 1.106-.269-.096-.781-.023-1.14.161-.616.318-.607.38.177 1.215.72.766.758.935.298 1.295-.291.227-.575.628-.63.89-.055.263-.333.71-.617.995-.658.658-.663 1.67-.01 2.211.278.231.604.869.725 1.416.17.776.372.956.916.814.396-.104.997.088 1.391.445.67.606.694.602.694-.124 0-.413.397-1.012.882-1.33s.882-.868.882-1.222c0-1.146.677-1.103 1.405.09.39.64.766 1.323.835 1.517.07.195.458.06.863-.3.692-.614.807-.619 1.885-.08 1.023.51 1.182.514 1.45.036.364-.65 1.371-.7 1.98-.096.357.353.515.318.794-.177.437-.774 1.577-.804 1.867-.048.165.429.334.473.688.18.258-.215.573-.286.701-.158.308.307.299 2.4-.011 2.71-.134.133-.205.993-.158 1.91.054 1.032-.11 1.935-.43 2.369-.509.69-.527.69-1.262.026-.529-.479-.855-.566-1.123-.298-.267.267-.016.496.863.786.68.224 1.436.646 1.677.936.351.424.495.438.728.07.16-.251.293-.728.296-1.06zm-4.407-9.161c-.547-1.411.691-3.468 1.55-2.576.592.615.62 2.11.04 2.11-.29 0-.716.237-.945.528-.366.466-.443.459-.645-.062zm-2.955 8.44c.546-1.037.99-1.31 2.143-1.317.522-.003 1.048-.164 1.168-.358.334-.54-1.684-.424-3.132.181-.983.41-1.278.737-1.278 1.411 0 1.093.545 1.134 1.099.084zm-8.596-.839c.828-.222 1.016-.997.456-1.882-.262-.415-.399-.328-.691.44-.4 1.052-.726 1.18-1.37.536-.467-.467-.535-.28-.209.57.231.603.58.667 1.814.336zm178.77-1.416c.632.243.702-.17.125-.745-.309-.31-.299-.54.042-.951.375-.453.312-.657-.386-1.238-1.102-.918-1.218-.894-1.202.251.012.786-.16.99-.899 1.076l-.913.106.913 1.005c.656.72 1.036.904 1.35.648.24-.196.677-.264.97-.152zm-166.78-2.131c.129-.385-1.136-.878-1.45-.564-.255.255.604 1.147.995 1.034.182-.053.387-.264.455-.47zm-7.665-.068c0-.17-.238-.507-.53-.749-.428-.356-.528-.342-.528.075 0 .282.105.62.235.748.335.336.823.291.823-.074zm198.62-.353c0-.17-.238-.507-.53-.748-.441-.367-.529-.316-.529.31 0 .43.226.748.53.748.29 0 .529-.14.529-.31zm-24.165-3.923c-.12-.194-.457-.353-.748-.353-.29 0-.43.159-.31.353s.455.352.746.352.431-.158.312-.352zm-5.998-3.528c-.12-.194-.376-.353-.57-.353-.195 0-.255.159-.135.353s.377.353.57.353c.195 0 .255-.16.135-.353zm-181.54-5.14c.242.15.302.027.163-.336-.247-.643-1.86-.434-2.312.299-.177.286-.418.197-.79-.293-.464-.608-.586-.632-.891-.175-.195.291-.357 1.318-.36 2.281l-.005 1.752 1.906-1.882c1.048-1.035 2.078-1.776 2.29-1.645zm199.1 1.171c-.078-.145-.291-.265-.474-.265-.393 0-.448 1.53-.069 1.91.284.284.777-1.208.543-1.645zm-196.99-1.852.016-.706-.4.706c-.22.388-.518.785-.662.883-.145.097-.172.652-.061 1.232l.202 1.055.444-1.232c.245-.678.452-1.55.461-1.938zm207.03 1.203c.65-.247.804-.456.534-.726-.269-.27-.683-.198-1.435.246-.961.568-1.02.706-.649 1.527.405.896.409.897.523.1.068-.474.486-.942 1.027-1.147zm3.267-3.82c0-.178.097-.575.215-.882.265-.691-.666-.76-1.221-.091-.283.341-.276.579.027.882.496.496.98.54.98.091zm-4.586-1.151c0-.136-.168-.351-.373-.478-.214-.133-.278-.668-.149-1.256.127-.574.077-1.024-.112-1.024-.555 0-1.227 2.035-.987 2.99.197.785.305.837.922.451.385-.24.7-.547.7-.683zm-203.69-3.023c.393-.392.406-.643.066-1.26-.371-.672-.441-.69-.554-.151-.172.819-.378.78-1.165-.221-.623-.792-2.09-1.481-2.087-.98.004.592 1.454 2.524 1.896 2.524.273 0 .618.436.767.97.226.808.297.856.43.29.086-.375.378-.902.647-1.172zm-4.881-1.852c.242-.388.29-.706.107-.706s-.383-.514-.444-1.142c-.081-.838-.412-1.33-1.244-1.852-.623-.39-1.139-.829-1.146-.974-.025-.49.943-.27 1.807.41.58.456 1.388.667 2.495.65.967-.015 2 .214 2.528.56 1.39.91 1.612.706.999-.915-.751-1.985-.734-1.974-1.509-.965-.52.678-.675.743-.681.285-.011-.819-1.05-1.783-1.666-1.546-.297.113-.977-.298-1.63-.985-.617-.648-1.36-1.263-1.651-1.366-.464-.163-.457-.318.054-1.258.5-.919.515-1.17.101-1.761-.717-1.024-.275-1.155 1.373-.407 1.844.837 2.44.854 2.277.066-.07-.342-.385-.574-.704-.52-.793.134-1.14-.544-.606-1.186.316-.382.331-.636.054-.914-.526-.526-1.518-.088-1.742.77-.224.855-.424.88-.98.12-.346-.474-.472.17-.674 3.44-.18 2.914-.445 4.433-.962 5.512-.401.836-.619 1.79-.496 2.176.406 1.281 1.633 2.508 2.507 2.508.47 0 .856.159.856.353 0 .582.507.399.977-.353zm9.607-5.988c0-.25-1.964-1.773-2.286-1.773-.108 0-.102.436.015.97.413 1.881.412 1.88 1.377 1.44.491-.224.894-.51.894-.637zm-52.74-2.479c-.12-.194-.368-.353-.55-.353-.183 0-.333.16-.333.353 0 .194.248.353.55.353.303 0 .452-.159.332-.353zm254.35-1.131c1.537-.747 1.644-.754 2.622-.176 1.977 1.168 3.288.363 1.672-1.027-.516-.444-.938-.973-.938-1.177 0-.515 1.523-.463 2.09.072.376.355.437.343.314-.063-.084-.277-.422-.635-.75-.794l-1.214-.59c-.34-.165-.667-.72-.729-1.235-.131-1.103-.61-1.229-.872-.229-.212.81-.956.961-.956.194 0-.281-.252-.652-.56-.824-.712-.4-4.365.965-4.373 1.633-.003.261-.308.553-.677.65-.822.215-1.17 1.725-.52 2.264.369.306.548.197.81-.493.485-1.274.883-1.392 1.927-.571 1.098.863 1.202 1.95.218 2.263-.819.26-.95.881-.186.881.286 0 1.24-.35 2.122-.778zm-1.554-2.537c-.562-.678 1.001-2.55 1.855-2.223.786.302.737 1.009-.134 1.944-.84.901-1.16.953-1.72.279zm-251.81 1.552c.12-.459.01-.706-.312-.706-.273 0-.496.318-.496.706s.14.705.311.705c.172 0 .395-.317.496-.705zm-4.074-4.22c.58-.928.2-1.778-.796-1.778-.764 0-.79.072-.432 1.235.435 1.419.628 1.504 1.228.543zm255.68-1.383c1.363-.441 1.79-.756 1.88-1.384.187-1.326-.491-1.848-1.813-1.397-1.126.383-4.83 2.353-4.83 2.568 0 1.276 1.297 1.334 4.763.213zm-229.29-4.556c.31-1.067.463-2.342.34-2.832-.14-.559.01-1.324.4-2.05.741-1.375.342-2.055-.528-.901-.645.854-1.11.714-1.11-.333 0-.348-.317-.804-.705-1.012-.938-.502-.956-1.538-.021-1.241.466.148.8 0 1.05-.468.202-.377.835-.849 1.406-1.048s1.23-.72 1.463-1.156l.426-.795-.975.767c-1.106.87-2.572 1.01-2.855.272-.288-.75-1.552-.976-1.552-.278 0 .315-.259 1.25-.575 2.078-.56 1.468-.556 1.521.205 2.137.737.598.78.896.77 5.518l-.01 4.886.853-.802c.47-.441 1.108-1.675 1.418-2.742zm236.1 1.295c.36-1.155.367-1.844.032-3.339-.33-1.477-.328-1.997.011-2.405.345-.415.319-.761-.13-1.707-.408-.86-.537-2.008-.467-4.183l.095-2.998-2.027-2.275c-2.354-2.642-2.655-3.863-.955-3.863.835 0 1.21.243 1.676 1.085.87 1.571 1.406 2.29 1.557 2.09.164-.217-.263-5.919-.614-8.199-.178-1.157-.12-1.837.185-2.205.695-.837-.114-1.467-1.975-1.537-.898-.034-1.803-.167-2.012-.296-.208-.13-1.058-.2-1.887-.157s-1.981-.167-2.56-.467c-1.315-.68-2.147-.697-2.147-.045 0 .275-.162.554-.36.62-.51.17-.877 3.668-.415 3.954.376.232 5.371-.546 6.507-1.014.34-.14.618-.104.618.08 0 .575-2.19 1.454-4.693 1.884l-2.4.413.107 1.456c.086 1.176.251 1.477.858 1.563.664.095.705.208.353.968-.22.473-.518.861-.664.863-.145 0-.264 1.034-.264 2.296 0 1.26.042 2.293.093 2.293.808 0 4.186-1.66 5.015-2.463 1.199-1.162 1.595-1.312 1.595-.605 0 .908-4.757 4.595-6.815 5.28-.264.088-.243.458.067 1.207l.447 1.079 3.591-1.502c1.975-.826 3.949-1.611 4.385-1.744 1.16-.353.999.454-.176.883-3.834 1.397-6.905 3.024-7.266 3.848-.216.493-.54 1-.721 1.128-.203.143-.204.822-.004 1.764.304 1.436.39 1.524 1.38 1.407.58-.068 1.322-.266 1.649-.44.781-.417 2.757-.408 2.757.012 0 .375-.615.581-2.702.905-2.092.325-2.507.785-2.782 3.087-.265 2.22-.11 2.376 1.533 1.549.524-.265 1.662-.59 2.53-.723.866-.133 1.693-.431 1.837-.663.2-.326.358-.324.69.008.321.322.55.33.911.03.343-.285.591-.291.86-.023.59.591-.005 1.17-.959.932-.473-.12-.856-.08-.852.086.012.458 2.165 1.485 3.17 1.513.735.02.96-.22 1.338-1.43zm-5.01-5.545c-.123-.198-.05-.466.16-.595.542-.336.892.124.439.576-.254.254-.45.26-.6.019zm1.733-.05c-.26-.42.07-1.064.546-1.064.43 0 .432.955.004 1.22-.18.112-.428.042-.55-.156zm-204.79 1.032c0-.4-.158-.628-.352-.508s-.353.447-.353.726c0 .28.159.509.353.509s.352-.327.352-.727zm-53.72-1.086c-.342-.19-.53-.496-.418-.679.113-.182-.07-.33-.406-.33-.523 0-.491.127.215.88.455.484.918.79 1.03.679.11-.11-.08-.358-.421-.55zm58.933-2.596c.363-.32.314-.704-.246-1.964-.383-.86-1.012-1.758-1.397-1.994-.627-.385-.739-.311-1.066.705-.202.624-.468 1.795-.593 2.6-.192 1.25-.129 1.488.431 1.61.715.155 2.155-.325 2.871-.957zm-5.428-.354c.173-.773.14-.916-.121-.53-.197.292-.36.834-.364 1.206-.007.903.195.621.485-.676zm-56.715-3.49c-.613-.902-1.868-.836-2.856.15-.403.403-.514.694-.264.694.237 0 .431-.159.431-.353 0-.627 1.392-.373 1.835.335.323.518.544.593.894.302.383-.318.376-.516-.04-1.128zm4.014-4.436c0-2.973-.082-3.486-.526-3.315-.715.274-.992-.602-.556-1.75.268-.705.25-.942-.073-.938-.805.01-1.34.575-1.11 1.174.268.7-.414 1.643-1.19 1.643-.3 0-.824.25-1.162.557-.485.438-.773.473-1.351.164-.404-.217-.732-.269-.727-.117.004.153.51.516 1.125.807.798.377 1.272.96 1.656 2.037.347.971.703 1.444 1.003 1.33.266-.103.601.182.786.67.178.466.689.917 1.136 1.003.447.085.852.177.9.203.05.027.089-1.534.089-3.468zm27.608.253c-.106-.83-.356-1.323-.67-1.323-.858 0-.933-.988-.17-2.223.549-.889.63-1.282.326-1.586-.305-.305-.302-.63.009-1.313.413-.907.591-5.461.214-5.461-.11 0-.49.155-.845.345-.48.257-.868.169-1.529-.35-.486-.383-1.242-.737-1.679-.787-.792-.09-.794-.075-.66 4.143.074 2.329.137 5.226.142 6.438.004 1.213.127 2.205.272 2.205.146 0 .265-.285.265-.635 0-.746.652-1.481 1.313-1.481.487 0 .968.93 1.309 2.531.187.882 1.16 1.484 1.653 1.024.12-.112.143-.8.05-1.527zm232.04-15.434a.354.354 0 0 0-.353-.353.353.353 0 1 0 .353.353zm-3.138-1.163c-.453-.453-.912-.103-.577.44.13.21.398.282.595.16.241-.15.235-.346-.018-.6zm-232.95-2.188c.714-.485 1.461-.882 1.66-.882.2 0 .549-.298.776-.662.289-.462.685-.609 1.32-.488.793.152.906.054.906-.783 0-.526-.278-1.458-.617-2.07-.34-.612-.648-1.17-.686-1.24-.037-.069-.558.224-1.159.651-1.15.82-2.124.746-2.124-.16 0-.297-.13-.54-.29-.54-.159 0-.48 1.151-.712 2.558-.232 1.406-.517 2.994-.633 3.528-.26 1.193-.082 1.203 1.56.088zm20.719-5.817c.146-1.088.627-2.477 1.097-3.17.461-.677.838-1.477.838-1.776 0-.3.247-.899.55-1.33.302-.432.458-.932.348-1.11-.274-.444.4-1.918 1.998-4.373.735-1.13 1.337-2.19 1.337-2.356s.523-1.305 1.162-2.532 1.437-2.92 1.774-3.763 1.163-2.394 1.836-3.446c.988-1.544 1.149-2.033.835-2.535-.294-.47-.255-.944.158-1.932.466-1.115.476-1.443.07-2.225-.433-.836-.379-1.072.624-2.684.604-.972 1.7-2.45 2.435-3.285.735-.836 1.338-1.733 1.339-1.994 0-.261.318-.951.703-1.533.882-1.333.882-1.568 0-1.337-1.007.263-.92-.8.122-1.482 1.103-.723 1.642-1.997 1.642-3.878 0-.851.163-1.977.363-2.502.282-.743.243-1.087-.18-1.553-.49-.542-.456-.76.36-2.294.865-1.626.878-1.742.338-2.882-.498-1.048-.65-1.142-1.297-.796-.555.298-.799.285-1.008-.054-.213-.346-.413-.31-.882.16-.334.334-.8.533-1.036.442-1.034-.396-4.335-.578-5.301-.29l-1.058.313 1.323.645c.727.355 1.322.86 1.322 1.121 0 .377-.157.392-.75.075-.563-.301-.813-.3-1.001.004-.181.293-.371.261-.681-.112-.237-.285-1.055-.624-1.82-.753-.763-.13-1.456-.345-1.54-.48-.083-.135-.672-.285-1.309-.333-.637-.049-1.43-.334-1.761-.635-.486-.44-.755-.465-1.377-.132-.523.28-.888.298-1.13.055-.556-.555-2.122.276-1.833.973.127.305.273 1.952.326 3.66.052 1.707.185 3.194.295 3.305.11.11.458-.057.772-.371s.917-.576 1.34-.582c.422-.006 1.076-.245 1.453-.53.377-.284.983-.517 1.349-.517.954 0 .63 1.205-.362 1.347-.506.072-.79.357-.79.794 0 .447-.244.68-.71.68-.391 0-1.03.2-1.422.442-.577.357-.768.35-1.009-.036-.231-.373-.422-.298-.87.343-.844 1.204-.716 1.932.66 3.733.79 1.034 1.234 2.007 1.234 2.696 0 1.199 1.834 3.406 2.83 3.406.316 0 .95.4 1.408.887.563.599.95.77 1.19.529.525-.524.707-.463 2.02.684.888.776 1.091 1.144.794 1.441-.46.46-2.337-.351-3.405-1.47-1.076-1.126-5.177-.633-6.138.74-.66.943-.926 9.428-.319 10.21.454.584.384 5.518-.138 9.679-.197 1.572-.358 4.307-.358 6.078 0 1.77-.181 3.738-.402 4.372-.368 1.055-.038 4.525.638 6.714.265.856.701-.216 1.004-2.466zm5.992-50.451c-.12-.194.03-.353.332-.353s.55.159.55.353-.15.352-.332.352c-.183 0-.43-.158-.55-.352zm-47.096 49.741c0-2.466-.238-2.868-1.301-2.192-.32.203-.29.688.122 2.023.298.966.6 1.955.673 2.198.311 1.047.506.268.506-2.029zm-12.844-3c.029-2.003-.049-2.291-.617-2.291-.552 0-.65.29-.65 1.922 0 1.46.149 2.01.617 2.283.34.198.617.364.617.37l.033-2.283zm33.305 1.06c.477-.574.363-.646-.5-.315-.307.118-.558.356-.558.53 0 .487.571.372 1.058-.215zm3.17-.713c-.364-.683-.378-.985-.058-1.305.595-.595.518-1.35-.113-1.108-.696.267-.705-.876-.015-1.86.283-.405.624-1.81.759-3.125.202-1.97.158-2.36-.25-2.222-.337.116-.456.59-.375 1.492.096 1.063-.041 1.435-.702 1.898-.452.316-1.18.528-1.619.47-.8-.104-.861.007-.935 1.71-.022.503-.228.845-.48.794-.293-.058-.44.382-.44 1.323 0 1.577.294 1.745 1.234.706.84-.929 1.588-.898 1.588.065 0 .769 1.373 2.56 1.707 2.226.096-.097-.039-.575-.3-1.064zm-28.636-5.4c.09-.904-.018-1.119-.563-1.119-.37 0-.961-.318-1.313-.708-.924-1.02-1.099-.563-.215.56.41.522.746 1.218.746 1.548 0 1.536 1.19 1.288 1.345-.28zm27.328-5.72c-.216-.826-.925-.74-1.094.132-.076.39.122.589.584.589.53 0 .653-.175.51-.72zm232.22-.322c-.115-.186-.442-.248-.727-.139-.73.28-.643.476.209.476.4 0 .632-.152.518-.337zm-264.77-2.658c.24-.289.577-.438.749-.332.172.107.312-.014.31-.268 0-.254-.474-.73-1.052-1.06-.986-.56-1.07-.56-1.387 0-.27.48-.425.51-.782.157-.67-.664-1.01-.534-1.01.387 0 1.34 2.311 2.153 3.172 1.116zm10.402-10.348c-.217-2.399-.276-2.544-.831-2.041-.347.313-.918.457-1.359.342-.618-.162-.88.052-1.398 1.137-.404.847-1.038 1.499-1.732 1.78-.98.396-1.222.356-2.319-.39-.673-.457-1.683-.885-2.243-.95-.738-.085-1.073-.352-1.218-.973-.11-.47-.394-.92-.631-1-.387-.128-.452.221-.429 2.287.001.14.356.26.788.265 1.097.014 1.169.978.16 2.15l-.85.989.69 1.17c.674 1.14.674 1.169.02 1.169-.368 0-.857-.188-1.087-.418-.61-.61-.904-.116-.443.745.3.56.544.66 1.003.415.333-.178 1.08-.249 1.66-.157.93.147.986.11.47-.313-.321-.263-.691-1.19-.822-2.06-.195-1.305-.118-1.688.446-2.198.607-.55.733-.558 1.127-.084.287.346.748.459 1.304.32 1.08-.272 1.94.733 1.7 1.986-.094.485-.021 1.114.16 1.397.286.444.422.432.998-.088.739-.669 1.493-.796 1.493-.25 0 .193.312.352.693.352.861 0 1.497 1.078 1.052 1.783-.508.802-.403.984.636 1.104l.97.111.112-2.998c.062-1.65.007-4.161-.12-5.582zm-4.609 8.19c.306-.117.473-.348.37-.513-.225-.365-1.22-.029-1.22.412 0 .372.11.386.85.102zm27.261-2.82c1.557-.373 1.702-.642 1.63-3.021-.083-2.75-.554-4.881-.94-4.256-.393.635-.932.184-.932-.779 0-.98.841-1.769 1.583-1.484.43.165.531-.116.522-1.46l-.01-1.664-.883 1.003c-.969 1.101-1.918 1.047-1.918-.11 0-1.086-.506-.86-1.164.518-1.109 2.325-1.984 1.24-1.3-1.612.295-1.226.317-1.912.07-2.158-.617-.617-.946 4.787-.423 6.964.246 1.029.357 2.43.246 3.115-.11.684-.065 1.688.101 2.23s.57 1.928.896 3.08l.594 2.096.468-1.113c.312-.743.797-1.191 1.46-1.35zm229.06 1.27c0-.388-.14-.705-.311-.705-.172 0-.395.317-.497.705-.12.459-.01.706.312.706.273 0 .496-.318.496-.706zm-18.117-2.65c.213-.555-.428-1.583-.987-1.583-.556 0-.749 1.045-.295 1.592.557.67 1.022.667 1.282-.01zm17.31-.807c.24-.153.339-.614.224-1.053-.224-.857-.828-1.072-.828-.295 0 .267-.357.735-.794 1.04l-.793.553.882.013c.485.007 1.074-.109 1.31-.258zm1.386-4.582c-.817-.817-1.167-.214-.38.656.42.465.716.582.803.32.076-.228-.114-.667-.423-.976zm-1.216-3.306c-1.2-1.12-1.616-1.328-2.005-1.005-.27.224-.402.638-.294.92.155.404.304.423.705.09.412-.342.721-.21 1.617.685.609.61 1.194 1.021 1.3.915.105-.106-.49-.828-1.323-1.605zm-261.95.209c.117-.304.053-.712-.142-.907-.236-.236-.41-.053-.527.553-.188.984.324 1.254.67.354zm8.585-3.668c0-.187-.33-.517-.732-.732-.67-.359-.699-.33-.34.34.402.753 1.072.998 1.072.392zm2.464-6.795c.004-.14-.405-.1-.906.091-.501.19-1.057.257-1.235.147-.443-.274-.405.073.097.877.41.656.441.653 1.229-.093.445-.421.811-.881.815-1.022zm-3.19-1.016c-.3-.56-.498-.644-.803-.339-.305.306-.275.488.121.739.856.54 1.107.393.682-.4zm232.15-2.256c-.241-.29-.597-.529-.792-.529-.196 0-.158.234.087.53.241.29.598.529.792.529.197 0 .158-.234-.087-.53zm-206.75-1.133c2.125-.97 2.478-1.442 2.487-3.327.004-.796-.137-.926-.965-.882-1.323.07-4.322 3.03-4.322 4.267 0 1.125.218 1.12 2.8-.058zm207.26-2.54c.11-.177.635-.202 1.168-.056.774.212 1.13.094 1.77-.587.605-.643 1.037-.802 1.763-.65 1.24.26 2.201-.287 1.585-.903-.34-.34-.608-.337-1.263.014-.457.244-1.055.4-1.33.344-.274-.055-1.045.19-1.712.545-1.165.618-1.262.619-2.373.02-.946-.509-1.256-.541-1.696-.176-.748.62-.673 1.034.256 1.407 1.048.422 1.59.434 1.832.042zm-217.28-.713c-.128-.207-.501-.371-.83-.365-.523.01-.513.074.084.526.725.548 1.13.46.746-.16zm10.48-2.295c1.725-1.441 2.03-1.87 2.03-2.87 0-1.553-1.226-2.753-3.36-3.29-.916-.23-1.717-.368-1.78-.305-.237.236-.467 7.925-.261 8.711.21.806.225.808.779.134.31-.377 1.477-1.449 2.593-2.38zm215.96 1.34c.307-.801.049-.958-1.1-.67-.948.238-.96.268-.303.748.882.645 1.13.63 1.402-.079zm4.597-.358c.153-.61.06-1.112-.265-1.437-.432-.432-.531-.348-.724.62-.361 1.803.553 2.557.99.817zm6.192.231a.354.354 0 0 0-.353-.352.354.354 0 0 0-.353.352c0 .194.159.353.353.353a.354.354 0 0 0 .353-.353zm-252.43-3.915c1.178-.695 1.538-1.328 1.038-1.828-.23-.23-1.898.717-2.335 1.325-.285.397-.363 1.243-.114 1.243.086 0 .72-.333 1.41-.74zm225.09-2.122c0-.888.218-1.877.484-2.198.304-.366.34-.584.097-.584-.214 0-.648.397-.966.882-.395.603-.9.882-1.596.882-.77 0-1.017.165-1.017.682 0 .375.302.777.673.895.37.117.766.457.88.755.115.298.487.488.827.421.482-.094.618-.477.618-1.735zm26.75-1.812c-.157-.437-.263-1.385-.236-2.108l.05-1.315-1.376 1.432c-.756.787-1.375 1.544-1.375 1.682s.516.42 1.146.627c1.873.615 2.111.572 1.79-.318zm-23.928-.617c-.12-.194-.376-.353-.57-.353s-.255.159-.135.353.377.352.57.352c.195 0 .255-.158.135-.352zm45.604-.42c-.218-.653-.977-.762-.977-.139 0 .308.25.558.558.559.308 0 .496-.189.42-.42zm-39.592-.615c-.128-.207-.401-.376-.607-.376-.234 0-.208.202.07.537.484.583.917.453.537-.161zm37.228-1.15c.428-.144.431-.26.025-.752-.57-.69-.296-1.65.469-1.65.78 0 .664-.618-.167-.882-.389-.123-.924-.64-1.19-1.147-.442-.843-.502-.864-.695-.24-.117.375-.284 2.002-.372 3.616l-.16 2.934.793-.855c.436-.47 1.02-.931 1.297-1.024zm-244.7.925c.304-.305.56-.821.57-1.147.009-.325.068-1.927.131-3.558.115-2.934.109-2.957-.526-2.117-.874 1.157-1.618.51-.992-.862.55-1.206.399-1.32-1.125-.842-.987.309-1.338.66-1.65 1.65-.239.758-.268 1.386-.074 1.583.377.382-.236 1.261-.88 1.261-.303 0-.22.66.29 2.293l.714 2.293h1.494c.887 0 1.718-.225 2.047-.554zm218.18-1.386c.013-.665-.007-.669-.36-.064-.36.62-.388.62-.842 0-.258-.352-.6-.504-.762-.338-.162.167.064.543.5.836.437.294.805.792.819 1.108.035.814.626-.6.645-1.542zm-35.883.1c-.253-.253-.418-.274-.418-.053 0 .47.418.888.653.653.1-.1-.006-.37-.235-.6zm32.518-.1c.124-.322 0-.53-.315-.53a.525.525 0 0 0-.518.53c0 .29.142.529.315.529s.407-.238.518-.53zm-237.55-1.828c0-.449-.098-.47-.525-.116-.289.24-.437.58-.328.755.278.45.853.02.853-.64zm48.572-.179c-.113-.281-.196-.197-.213.214-.016.371.068.58.185.463.117-.118.13-.422.028-.677zm179.11-.485c.116-.303.37-.453.564-.334.194.12.602.079.907-.092.502-.281.503-.353.003-.768-.716-.594-.7-1.6.047-2.863.6-1.016.483-1.663-.222-1.227-.207.128-.377.54-.377.918 0 .525-.245.684-1.058.684-.8 0-1.058.162-1.058.663 0 .364-.236.858-.525 1.098-.46.381-.435.562.2 1.454.818 1.149 1.211 1.27 1.52.467zm5.452-.208c.18-.469 2.148-1.414 2.496-1.199.371.23 1.275-.794.97-1.099-.12-.12-.458-.019-.751.225-.342.284-.98.36-1.773.21-1.087-.203-1.238-.144-1.238.487 0 .395-.318.917-.706 1.16-.388.241-.706.571-.706.731 0 .371 1.547-.095 1.708-.515zm-8.058-1.004c0-.194-.131-.353-.293-.353-.161 0-.511-.437-.778-.97-.822-1.643-1.48-2.288-1.808-1.772-.507.8-.313 1.597.436 1.793.403.105.818.52.923.923.191.73 1.52 1.06 1.52.379zm8.625-4.97a.394.394 0 0 0-.54-.127.394.394 0 0 0-.128.54c.114.184.355.24.54.128a.394.394 0 0 0 .128-.54zm-212.29-.706c.838-.406 1.523-.942 1.523-1.192s.357-.695.794-.988c1.001-.674.758-.929-.678-.71-.82.125-1.232.444-1.542 1.193-.233.563-.581 1.023-.774 1.023-.36 0-.219-1.468.247-2.558.157-.367.112-.617-.113-.617-.342 0-.628.822-1.257 3.616-.262 1.164-.152 1.178 1.8.233zm203.29.239c.295-.356.303-.566.027-.736-.468-.29-1.483.482-1.211.921.28.452.71.385 1.184-.185zm19.781-1.29c0-.775-.752-1.739-1.335-1.712-.368.017-.432.097-.164.206.242.098.44.455.44.795s.107.723.236.852c.36.36.823.28.823-.14zm-30.339-.494c0-.316-.207-.439-.529-.315-.29.111-.529.345-.529.518s.238.315.53.315c.29 0 .528-.233.528-.518zm24.342-.893c0-.838-.541-.937-.842-.154-.116.303-.37.453-.564.333s-.631-.055-.972.144c-.494.287-.316.363.879.372 1.267.009 1.499-.099 1.499-.695zm-219.75-2.723c-.321-.552-.367-.517-.377.283-.006.501.109 1.031.254 1.178.424.427.525-.77.123-1.461zm29.952-2.057c0-.348-2.245-1.146-2.716-.965-.82.314-.485.826.397.604.47-.118 1.146-.046 1.5.16.758.44.819.455.819.201zm189.09-.512c0-.194-.149-.353-.332-.353-.182 0-.43.16-.55.353-.12.194.03.353.332.353.303 0 .55-.159.55-.353zm-2.822-.518c0-.315-.207-.439-.527-.316-.29.111-.44.345-.332.518.308.498.86.369.86-.202zm1.861-.332c.582-.442.564-.487-.264-.646-.695-.132-.891-.025-.891.487 0 .77.295.811 1.155.159zM74.52 81.73c-.12-.193-.367-.352-.55-.352-.182 0-.332.159-.332.353s.248.352.55.352c.303 0 .452-.158.332-.352zm185.03-.219c0-.469-.095-.493-.529-.133-.29.241-.529.499-.529.572 0 .074.238.133.53.133.29 0 .528-.257.528-.572zM49.9 76.791c.397 0 .932-.251 1.188-.56.4-.482.369-.544-.222-.44-.6.104-.682-.08-.65-1.469.021-.873.159-1.944.307-2.38.42-1.245-.743-1.01-1.412.284-.466.902-.737 1.06-1.654.97-1.166-.115-1.248.011-1.797 2.802-.213 1.083-.168 1.147.804 1.147.565 0 1.133.169 1.26.375.154.25.438.19.843-.176.335-.304.935-.552 1.333-.552zm26.272-.881c.802-1.02 1.236-1.092 2.063-.344.533.482.641.482 1.041 0 .246-.296.75-.538 1.12-.538s.775-.278.9-.617c.123-.34.605-1.078 1.069-1.642.658-.797.742-1.087.38-1.313-.306-.192-.505-.085-.587.318-.185.904-1.132 1.843-1.858 1.843-.844 0-1.474-1.238-1.285-2.526.083-.568.019-1.115-.143-1.215-.161-.1-.294-.023-.294.17s-.595.916-1.323 1.605c-1.32 1.251-2.289 1.531-3.232.934-.335-.212-.822-.076-1.485.414-1.083.8-1.833.522-2.266-.844-.152-.477-.347-.587-.631-.352-.226.187-.882.394-1.457.46-.943.107-1.05.25-1.09 1.446-.024.73.14 1.479.364 1.665s1.48.432 2.789.545c1.31.114 2.727.347 3.151.518 1.314.529 2.054.389 2.774-.527zm182.68-6.185c0-.422-.995-.875-1.285-.585-.31.309.215.949.776.949.28 0 .509-.164.509-.364zm-186.59-3.128c-.855-1.2-.932-2.005-.229-2.4.539-.302.908-1.987.468-2.134-.146-.048-.725-.088-1.289-.088-.82 0-1.097.21-1.392 1.058-.423 1.214-1.092 1.387-1.362.353-.328-1.253-.737-.751-.862 1.059-.067.97-.054 1.764.03 1.764.082 0 .672-.19 1.31-.42 1.009-.365 1.255-.33 1.913.264.414.376 1.008 1.16 1.317 1.742.441.829.593.925.695.444.073-.338-.197-1.077-.6-1.642zm190.45.465c-.229-.275-.705-.5-1.057-.5-.353 0-.74-.16-.86-.354-.33-.534-1.796-.421-2.293.177-.242.29-.905.529-1.475.529s-.961.12-.87.265c.092.145 1.697.291 3.569.324 2.903.052 3.341-.013 2.986-.44zm7.608-.148c.12-.194.526-.353.903-.353.519 0 .685-.245.685-1.015 0-1.205-.857-2.137-1.183-1.287-.246.641-1.676.713-2.275.115-.329-.33-.517-.33-.846 0-.233.233-.704.423-1.048.423-.41 0-.554.182-.42.53.111.29.478.529.816.529.337 0 .9.317 1.251.705.682.754 1.759.933 2.117.353zm-193.66-.571c.736-.482 1.037-.502 1.939-.129 1.288.534 1.604.316.984-.677-.692-1.109-3.186-1.045-3.937.102-.304.463-.454.939-.335 1.058.304.304.37.287 1.349-.354zm-25.747-2.185c-.124-.39-.659-1.256-1.19-1.923l-.964-1.214-.632.84c-.9 1.192-.647 2.38.535 2.516.519.06 1.14.345 1.378.633.568.684 1.173.093.873-.852zm47.428.287c0-.194-.357-.35-.794-.348-.642.004-.692.071-.264.348.683.442 1.058.442 1.058 0zm156.99-1.94c0-.292-.159-.53-.353-.53s-.353.238-.353.53c0 .29.16.528.353.528.194 0 .353-.238.353-.529zM96.761 61.19c.236-.235.06-.267-.529-.097-.485.14-1.04.415-1.235.609-.235.235-.058.267.53.097.485-.14 1.04-.415 1.234-.609zm173.04-.429c0-.085-.159-.253-.353-.373s-.353-.05-.353.155c0 .206.16.374.353.374.194 0 .353-.07.353-.156zm-182.13-.41c-.117-.117-.422-.13-.676-.028-.282.113-.198.196.213.213.372.015.58-.068.463-.185zm167.14-1.198c.29-.47 1.837-.452 2.133.026.15.243.534.098 1.068-.404 1.069-1.004.865-1.29-.92-1.29-1.073 0-1.577-.193-1.97-.753-.29-.415-.759-.754-1.042-.754s-.846-.516-1.252-1.147c-.406-.63-.625-.829-.486-.44.648 1.813.897 3.04.687 3.38-.127.205.064.67.423 1.033.756.763 1.055.84 1.359.349zm-186.27-.706c.12-.194.05-.352-.155-.352-.206 0-.374.158-.374.352s.07.353.156.353c.085 0 .253-.159.373-.353zm195.26.01c.805-.51.06-.992-1.878-1.216-1.872-.217-2.137.308-.56 1.113 1.021.521 1.728.551 2.438.102zm-176.03-1.068c0-.194-.248-.353-.55-.353-.303 0-.452.159-.332.353s.367.352.55.352c.182 0 .332-.158.332-.352zm154.86-7.695c-.165-.06-.817.158-1.45.485-1.091.565-1.115.619-.48 1.083.597.437.752.385 1.45-.484.429-.536.645-1.023.48-1.084zm14.358-1.154.993-.382-1.411-1.2c-.776-.66-1.62-1.203-1.875-1.206-.634-.007-.406 2.155.287 2.718.66.536.783.54 2.006.07zm-15.235-.676c-.12-.194-.377-.353-.57-.353-.195 0-.255.159-.136.353.12.194.377.352.571.352s.255-.158.135-.352zm9.288-.864c.134-1.137-.448-1.944-1.002-1.39-.461.462-.026 2.675.492 2.505.217-.071.446-.573.51-1.115zm-10.875-.632c0-.372-.266-.621-.663-.621-.364 0-.842-.216-1.061-.481-.22-.265-1.043-.481-1.83-.481-1.05 0-1.326.104-1.037.393.216.216.98.393 1.698.393 1.212 0 1.313.08 1.415 1.136.1 1.027.175 1.095.794.709.376-.235.684-.707.684-1.048zm5.006-4.062c.595-2.37.594-2.382-.176-2.99-.857-.674-2.896-.833-3.255-.253-.238.385 2.185 5.627 2.6 5.625.129-.001.503-1.073.831-2.382zm3.71-.138c-.17-1.271-.666-2.042-1.325-2.06-.2-.005-.045 2.295.206 3.081.078.243.406.441.728.441.484 0 .553-.255.39-1.462zm-8.514.094c-.262-.424-1.614-.752-1.614-.392 0 .319.622.63 1.344.674.254.015.376-.112.27-.282zm-3.025-.572c0-.304-.318-.53-.748-.53-.626 0-.677.088-.31.53.242.291.578.53.749.53.17 0 .31-.239.31-.53zm-5.652-3.616c-.004-.145-.297-.64-.65-1.099-.613-.797-.686-.81-1.667-.279l-1.027.556.927.014c.51.008 1.125.252 1.367.543.464.56 1.063.71 1.05.265zm3.443-3.16c.078-.234-.459-.677-1.193-.984-.734-.306-1.618-.814-1.965-1.128-.358-.324-.63-.4-.63-.176 0 .216.253.598.561.848.309.25.904.798 1.323 1.216.816.816 1.673.917 1.904.224zM91.975 31.23c1.943-1.207 2.296-1.575.906-.941-.646.294-1.11.298-1.731.015-.755-.344-.874-.292-1.066.472-.118.473-.41.862-.65.865-.28.003-.246.127.095.348.291.188.559.344.594.347.036.003.87-.495 1.852-1.106zm139.28-.522c1.167-.313.966-.714-.353-.705-.63.004-1.443-.127-1.805-.292-.586-.266-.614-.216-.252.46.416.778 1.014.911 2.41.537zm-8.026-1.37c0-.247-.238-.54-.529-.652-.316-.121-.53-.652-.53-1.316 0-.928-.083-1.042-.507-.69-.28.231-.938.37-1.464.307-.937-.111-1.264-.463-1.745-1.877l-.24-.706-.29.706c-.556 1.352-.356 2.104.721 2.717.581.33 1.056.847 1.056 1.147 0 .339.318.545.84.545.46 0 1.037.24 1.28.534.337.406.559.437.926.133.265-.22.482-.602.482-.849zm-8.466-1.074c0-.303-.16-.452-.353-.332-.194.12-.353.367-.353.55 0 .182.159.332.353.332s.353-.248.353-.55zm12.952-.408c-.324-.323-.711-.465-.86-.315-.15.15.032.496.406.769.88.644 1.216.309.454-.454zm-15.944-.189c.265-.598.623-.782 1.455-.746 1.1.048 1.103.042.76-1.202a5.56 5.56 0 0 1 .235-3.696c.373-.872-.923-.828-1.725.059-.496.548-.535.82-.206 1.434.323.604.29.935-.156 1.617-.31.472-.762.859-1.005.859-.64 0-1.658-1.302-1.658-2.121 0-1.146-1.052-.804-1.606.522-.66 1.579-.663 1.558.371 1.951.485.185.882.553.882.82 0 .457 1.167 1.221 1.945 1.273.196.013.515-.333.708-.77zm-113.42.286c0-.086-.159-.254-.353-.374s-.353-.05-.353.156c0 .205.16.373.353.373.194 0 .353-.07.353-.155zm125.06-2.314c-.12-.194-.447-.353-.727-.353s-.508.159-.508.353.327.352.726.352c.4 0 .629-.158.509-.352z" style="stroke-width:.35278"/></svg>